<svg xmlns="http://www.w3.org/2000/svg" viewBox="0 0 512 512"><path d="M260.762.785c-93.052 0-168.23 75.177-168.23 168.229 0 93.051 75.178 168.229 168.23 168.229 39.123 0 74.963-13.254 103.52-35.581a9.93 9.93 0 0 1 16.044 7.822v13.962c0 2.897 1.106 5.558 3.088 7.54l85.396 85.395c4.267 4.267 10.796 4.245 14.957.039a9.93 9.93 0 0 1 .037-.039l24.24-24.24c4.265-4.264 4.25-10.862.056-15.11l-85.365-85.365c-1.983-1.982-4.644-3.088-7.54-3.088h-13.962a9.93 9.93 0 0 1-7.823-16.045c22.327-28.556 35.581-64.397 35.581-103.52 0-93.05-75.178-168.228-168.23-168.228zm0 48.664c65.912 0 119.564 53.565 119.564 119.565 0 65.912-53.565 119.564-119.564 119.564-65.912 0-119.564-53.565-119.564-119.564 0-65.912 53.564-119.565 119.564-119.565z" style="fill:#8b62b8;stroke-width:1;fill-opacity:1"/><path d="M273.977 159.487H39.332c-21.607 0-39.108 17.5-39.108 39.107v273.753c0 21.607 17.5 39.108 39.108 39.108h273.753c21.607 0 39.107-17.5 39.107-39.108V237.702zm-97.769 312.86c-32.361 0-58.661-26.3-58.661-58.661 0-32.362 26.3-58.661 58.661-58.661 32.362 0 58.662 26.3 58.662 58.661 0 32.362-26.3 58.661-58.662 58.661zM234.87 276.81H39.332v-78.215H234.87z" style="fill:#6288b8;fill-opacity:1;stroke-width:.999999"/></svg>