<svg xmlns="http://www.w3.org/2000/svg" viewBox="0 0 512 512"><path style="fill:#6288b8" transform="matrix(1.04088 0 0 1.04088 -10.467 -10.469)" d="M208 11.592C99.362 11.592 11.592 99.362 11.592 208c0 108.638 87.77 196.408 196.408 196.408 45.676 0 87.52-15.474 120.86-41.54A11.594 11.594 0 0 1 347.591 372v16.3c0 3.382 1.291 6.49 3.605 8.804l99.7 99.699c4.981 4.981 12.604 4.955 17.462.045a11.594 11.594 0 0 1 .043-.045l28.301-28.301c4.979-4.979 4.961-12.682.065-17.64l-99.664-99.665c-2.315-2.314-5.422-3.605-8.803-3.605H372a11.594 11.594 0 0 1-9.133-18.733c26.067-33.34 41.541-75.183 41.541-120.859 0-108.638-87.77-196.408-196.408-196.408zm0 56.816c76.953 0 139.592 62.537 139.592 139.592 0 76.953-62.537 139.592-139.592 139.592-76.953 0-139.592-62.537-139.592-139.592 0-76.953 62.537-139.592 139.592-139.592z"/><path d="m103.41 205.862 70.246 72.038 125.417-133.205" style="fill:none;stroke:#8b62b8;stroke-width:55"/></svg>