<svg width="32" height="32" xmlns="http://www.w3.org/2000/svg"><path d="M30.5 2A1.5 1.5 0 0 1 32 3.5v25a1.5 1.5 0 0 1-3 0v-25A1.5 1.5 0 0 1 30.5 2zM14.16 4.996a2.5 2.5 0 0 1 3.832 1.908l.008.202v18.188a2.5 2.5 0 0 1-3.523 2.28l-.19-.094-7-3.883-.162-.098L2.5 23.5a2.5 2.5 0 0 1-2.479-2.174l-.016-.162L0 21v-9a2.5 2.5 0 0 1 2.336-2.495L2.5 9.5l4.573-.001.087-.06 7-4.443zM15 8.015l-6.147 3.902-.104.125a1.5 1.5 0 0 1-1.03.47l-.148-.002-.093-.011H3v8h4.464l.059-.008a1.5 1.5 0 0 1 1.184.398l.124.133L15 24.444V8.015zM23.5 9a1.5 1.5 0 0 1 1.5 1.5v11a1.5 1.5 0 0 1-3 0v-11A1.5 1.5 0 0 1 23.5 9z" fill="#919191" fill-rule="nonzero"/></svg>