<svg width="32" height="32" xmlns="http://www.w3.org/2000/svg"><path d="M29.42 6.5a2.58 2.58 0 0 1 2.575 2.411l.005.17v14.451a2.58 2.58 0 0 1-2.411 2.575l-.17.006h-6.122v-3.097h5.606V9.596h-5.522V6.5h6.038zm-20.707 0v3.097H3.097v13.42h5.747v3.096H2.581a2.58 2.58 0 0 1-2.576-2.411L0 23.532V9.081a2.58 2.58 0 0 1 2.411-2.576l.17-.005h6.132zm.061 7.742a2.065 2.065 0 1 1 0 4.129 2.065 2.065 0 0 1 0-4.13zm7.226 0a2.065 2.065 0 1 1 0 4.129 2.065 2.065 0 0 1 0-4.13zm7.226 0a2.065 2.065 0 1 1 0 4.129 2.065 2.065 0 0 1 0-4.13z" fill="#919191" fill-rule="nonzero"/></svg>