<svg width="32" height="32" xmlns="http://www.w3.org/2000/svg"><path d="M2.937 21.44h.02a1.508 1.508 0 0 1 .461.077l.082.03c.182.074.352.184.5.332l.5.499V21.5a1.5 1.5 0 0 1 3 0v.878l.5-.5A1.5 1.5 0 1 1 10.121 24l-.5.5h.879c.41 0 .782.165 1.053.432l.097.105.056.07.085.13.057.104.036.08.05.14.037.142.018.115.004.033A1.5 1.5 0 0 1 10.5 27.5l-.879-.001.5.5.103.114A1.5 1.5 0 0 1 8 30.12l-.5-.5v.879a1.5 1.5 0 0 1-3 0v-.879l-.5.5a1.5 1.5 0 0 1-2.233-1.996L1.879 28l.497-.5H1.5l-.144-.007a1.496 1.496 0 0 1-.54-.158l-.131-.076a1.5 1.5 0 0 1-.295-2.267l.11-.11c.047-.042.097-.081.149-.117l.079-.051.088-.05.142-.063.14-.046.096-.024.144-.022.088-.007.074-.002h.879l-.5-.5a1.5 1.5 0 0 1 1.058-2.56zM8.717 3.5c.42 0 .819.176 1.101.482l.1.12 1.158 1.551H30a1.5 1.5 0 0 1 1.473 1.216l.02.14.007.145v19.384a1.5 1.5 0 0 1-1.356 1.494l-.144.006-16.656.002c.367-.51.6-1.124.647-1.788L14 26l-.005-.192-.018-.214a3.483 3.483 0 0 0-.11-.556H28.5V8.653H10.324a1.5 1.5 0 0 1-.99-.374l-.112-.108-.1-.12L7.964 6.5H3.5l-.002 12.552-.101.108-.097.113-.135.174-.255-.008a3.489 3.489 0 0 0-2.272.863l-.139.129L.5 5a1.5 1.5 0 0 1 1.356-1.493L2 3.5h6.716zM6 24c-.698 0-1.312.357-1.67.899l-.084.14-.068.134-.057.141-.043.132-.036.147-.031.2-.004.043C4.002 25.89 4 25.945 4 26l.005.144A2 2 0 0 0 8 26l-.01-.207-.015-.111-.016-.089-.036-.146-.024-.077A2 2 0 0 0 6 24z" fill="#646464" fill-rule="nonzero"/></svg>