<svg width="32" height="32" xmlns="http://www.w3.org/2000/svg"><path d="M6 20a1.5 1.5 0 0 1 1.5 1.5v.878l.5-.5A1.5 1.5 0 1 1 10.121 24l-.499.499.878.001a1.5 1.5 0 0 1 0 3h-.878l.5.5A1.5 1.5 0 1 1 8 30.121l-.5-.5v.879a1.5 1.5 0 0 1-3 0v-.879l-.5.5A1.5 1.5 0 1 1 1.879 28l.499-.5H1.5a1.5 1.5 0 0 1 0-3h.879l-.5-.5a1.5 1.5 0 0 1 .336-2.375l.123-.06.082-.033.136-.043.077-.018.12-.02.135-.01H3l.124.01.087.013.15.036.095.03.147.064.156.089c.047.03.088.06.127.093l.114.103.5.499V21.5l.007-.145c.007-.07.018-.14.035-.208l.036-.126.018-.05.038-.091.077-.148.073-.111.087-.11.103-.105.107-.092.11-.078c.233-.15.511-.236.809-.236zm0 4-.136.005-.147.015-.149.027-.138.035-.053.017-.145.054-.126.058-.123.067-.03.018a2.01 2.01 0 0 0-.487.421l-.063.08-.075.105A1.99 1.99 0 0 0 4 26l.01.207.017.12.014.08.037.147-.025-.093c.044.183.112.356.201.516l.122.191.065.085A1.993 1.993 0 0 0 6 28a1.99 1.99 0 0 0 1.166-.375l.128-.1.124-.115.142-.159.064-.084.042-.06.063-.102c.085-.145.152-.302.198-.468l.04-.178c.013-.069.022-.139.028-.21L8 26c0-.112-.01-.222-.027-.329l-.033-.158-.04-.14-.018-.051-.065-.16-.079-.152-.082-.131-.09-.122a2.012 2.012 0 0 0-.27-.28l-.092-.074A1.991 1.991 0 0 0 6 24zM30.469 4c.792 0 1.442.604 1.516 1.377l.007.146v20.313a1.537 1.537 0 0 1-1.38 1.682l-.143.007H13.65a3.48 3.48 0 0 0 .341-1.293L14 26l-.005-.192-.018-.214a3.476 3.476 0 0 0-.325-1.117H28.6l-2.544-12.362H9.185c-.373 0-.73-.138-1.005-.38l-.113-.11-.102-.123-1.023-1.37H3.35l1.472 8.071a3.503 3.503 0 0 0-1.367.894l-.155.176-.135.174-.255-.008c-.315.003-.63.048-.935.135L.025 8.883A1.524 1.524 0 0 1 1.39 7.092l.134-.006h2.538V5.522c0-.791.605-1.442 1.378-1.516L5.586 4H30.47zm-1.524 3.046H7.11v.04h.596c.427 0 .832.18 1.12.49l.1.122 1.023 1.37h17.348c.626 0 1.178.382 1.409.945l.047.133.036.139.156.76V7.045z" fill="#646464" fill-rule="nonzero"/></svg>