<svg width="32" height="32" xmlns="http://www.w3.org/2000/svg"><path d="M11.739.446c.293-.293.65-.433 1.003-.446l14.502.002c.788 0 1.434.6 1.508 1.368l.007.146v28.97c0 .787-.6 1.434-1.369 1.507l-.146.007H5.517c-.787 0-1.434-.6-1.507-1.368l-.007-.146V8.893a1.472 1.472 0 0 1 .327-1.026l.117-.13L11.739.447zm13.99 2.585H14.324v5.777c0 .788-.6 1.434-1.369 1.508l-.146.007H7.031V28.97H25.73V3.03zm-3.554 20.695a1.514 1.514 0 1 1 0 3.029H11.07a1.514 1.514 0 1 1 0-3.029h11.105zm0-5.048a1.514 1.514 0 0 1 0 3.03H11.07a1.514 1.514 0 1 1 0-3.03h11.105zm0-5.047a1.514 1.514 0 1 1 0 3.028H11.07a1.514 1.514 0 1 1 0-3.028h11.105zm-10.88-8.46L9.172 7.294h2.123V5.17z" fill="#919191" fill-rule="nonzero"/></svg>