<svg width="32" height="32" xmlns="http://www.w3.org/2000/svg"><path d="M30.469 4c.792 0 1.442.604 1.516 1.377l.007.146v20.313a1.537 1.537 0 0 1-1.38 1.682l-.143.007H4.696a1.524 1.524 0 0 1-1.466-1.108l-.033-.142L.025 8.883A1.524 1.524 0 0 1 1.39 7.092l.134-.006h2.538V5.522c0-.791.605-1.442 1.378-1.516L5.586 4H30.47zM6.942 10.133H3.35l2.616 14.344H28.6l-2.544-12.362H9.185c-.373 0-.73-.138-1.005-.38l-.113-.11-.102-.123-1.023-1.37zm22.003-3.087H7.11v.04h.596c.427 0 .832.18 1.12.49l.1.122 1.023 1.37h17.348c.626 0 1.178.382 1.409.945l.047.133.036.139.156.76V7.045z" fill="#919191" fill-rule="nonzero"/></svg>