<svg viewBox="0 0 32 32" xmlns="http://www.w3.org/2000/svg"><path d="m28.11 17.071.16.077a2.686 2.686 0 0 0 3.188-.856c.905-1.198.644-2.876-.544-3.779L17.601 2.536A2.673 2.673 0 0 0 15.991 2a2.68 2.68 0 0 0-1.62.537l-.428.323-12.866 9.647a2.689 2.689 0 0 0-.534 3.772l.116.143a2.689 2.689 0 0 0 3.186.67l.06-.031v9.329A2.691 2.691 0 0 0 6.6 29.084h5.811l.171-.005a2.691 2.691 0 0 0 2.523-2.69v-4.52h1.795v4.52a2.698 2.698 0 0 0 2.695 2.695h5.821a2.691 2.691 0 0 0 2.694-2.694V17.07zM15.986 5.196l9.025 6.764v14.027h-5.016v-7.215h-7.989v7.215H7.002V11.935l8.804-6.6.181-.14z" fill="#919191"/></svg>