<svg width="32" height="32" xmlns="http://www.w3.org/2000/svg"><path d="M1.548 32.003a1.549 1.549 0 0 1-1.54-1.4L0 30.456V1.55C0 .747.614.085 1.4.011l.148-.008h22.073c.36-.023.732.08 1.05.335l.131.119 6.56 6.56.054.036c.272.2.478.5.553.898l.004.033c.026.129.035.259.028.387L32 30.455c0 .804-.614 1.466-1.4 1.54l-.148.008H1.548zm5.29-12.023-3.741 3.74v5.186h12.667L6.838 19.98zm16.869-4.113-8.263 8.263 4.706 4.776h8.753v-7.843l-5.196-5.196zM22.158 3.1H3.097V19.34l2.646-2.645a1.549 1.549 0 0 1 2.072-.106l.118.106 5.283 5.284 9.397-9.397a1.549 1.549 0 0 1 2.072-.106l.117.106 4.101 4.101v-6.84h-5.196a1.549 1.549 0 0 1-1.54-1.4l-.008-.148V3.1zM11.183 6.369a3.854 3.854 0 1 1 0 7.707 3.854 3.854 0 0 1 0-7.707zm14.072-1.08v1.458h1.459l-1.459-1.459z" fill="#919191" fill-rule="nonzero"/></svg>