<svg width="32" height="32" xmlns="http://www.w3.org/2000/svg"><path d="m31.64 16.974-.066.071-4.847 4.849-.114.103a1.5 1.5 0 0 1-1.893 0l-.114-.103-.103-.114a1.5 1.5 0 0 1 0-1.893l.103-.114 2.272-2.273-9.378-.001v9.381l2.273-2.274.114-.103a1.5 1.5 0 0 1 2.11 2.11l-.103.114-4.887 4.885-.076.064-.122.088-.051.03A1.475 1.475 0 0 1 16 32c-.197 0-.386-.038-.558-.107l-.154-.072-.103-.061-.111-.08-.084-.071-4.884-4.882-.103-.114a1.5 1.5 0 0 1 0-1.893l.103-.114.114-.103a1.5 1.5 0 0 1 1.893 0l.114.103 2.273 2.272v-9.379H5.121l2.273 2.274a1.5 1.5 0 0 1 .103 2.007l-.103.114a1.5 1.5 0 0 1-2.007.103l-.114-.103-4.834-4.833a1.5 1.5 0 0 1-.103-2.008l.103-.114 4.834-4.833a1.5 1.5 0 0 1 2.224 2.007l-.103.114L5.119 14.5l9.381-.001V5.121l-2.273 2.273a1.5 1.5 0 0 1-2.007.103l-.114-.103a1.5 1.5 0 0 1-.103-2.007l.103-.114L14.939.439a1.5 1.5 0 0 1 2.008-.103l.114.103 4.833 4.834a1.5 1.5 0 0 1-2.007 2.224l-.114-.103L17.5 5.119v9.38h9.38l-2.274-2.272-.103-.114a1.5 1.5 0 0 1 2.11-2.11l.114.103 4.885 4.887.09.11.077.113.016.026A1.475 1.475 0 0 1 32 16c0 .247-.06.48-.165.684l-.052.093-.077.115-.065.082z" fill="#6288B8" fill-rule="nonzero"/></svg>