<svg width="32" height="32" xmlns="http://www.w3.org/2000/svg"><g fill="none" fill-rule="nonzero"><path d="M11.239.446c.293-.293.65-.433 1.003-.446l14.502.002c.788 0 1.434.6 1.508 1.368l.007.146v12.515H25.23v-11H13.823v5.777c0 .788-.6 1.434-1.369 1.508l-.146.007H6.531V28.97h3.715V32H5.017c-.787 0-1.434-.6-1.507-1.368l-.007-.146V8.893a1.472 1.472 0 0 1 .327-1.026l.117-.13L11.239.447zm-.444 4.725L8.672 7.294h2.123V5.17z" fill="#919191"/><path d="M27.271 16.44a1.5 1.5 0 0 1 .103 2.007l-.103.114-5.295 5.294 5.585 5.584a1.5 1.5 0 0 1-2.008 2.225l-.114-.103-5.584-5.585-5.294 5.295a1.5 1.5 0 0 1-2.225-2.007l.103-.114 5.295-5.295-5.295-5.294a1.5 1.5 0 0 1 2.008-2.225l.114.103 5.294 5.295 5.295-5.295a1.5 1.5 0 0 1 2.121 0z" fill="#B86262"/></g></svg>