<svg width="32" height="32" xmlns="http://www.w3.org/2000/svg"><g fill="none" fill-rule="nonzero"><path d="M26.522 0a1.5 1.5 0 0 1 1.493 1.356l.007.144L28.02 18h1.412a1 1 0 0 1 1 1v12a1 1 0 0 1-1 1H2.5a1 1 0 0 1-1-1V19a1 1 0 0 1 1-1h1V9.307a1.49 1.49 0 0 1 0-.183v-.4a1.5 1.5 0 0 1 .34-.951l.1-.11L11.162.439a1.5 1.5 0 0 1 .912-.432L12.223 0h14.299zM25.02 3l-11.298-.001v6.224a1.5 1.5 0 0 1-1.355 1.493l-.145.007H6.5V18h18.522V3zM10.723 5.62 8.62 7.723h2.103V5.62z" fill="#919191"/><path d="M8.078 29.69c1.235 0 2.235-.405 3.003-1.213.768-.809 1.151-1.873 1.151-3.194 0-1.285-.37-2.32-1.11-3.105-.74-.785-1.71-1.178-2.91-1.178-1.269 0-2.288.41-3.058 1.23C4.384 23.05 4 24.125 4 25.453c0 1.258.379 2.278 1.137 3.062.758.783 1.738 1.174 2.941 1.174zm.035-1.635c-.633 0-1.144-.242-1.535-.727-.39-.484-.586-1.142-.586-1.974 0-.82.196-1.48.586-1.978.39-.498.918-.747 1.582-.747.645 0 1.152.242 1.524.726.37.485.556 1.163.556 2.034 0 .836-.191 1.489-.574 1.96-.383.47-.9.706-1.553.706zm8.49 1.488c1.356 0 2.44-.39 3.255-1.172.815-.781 1.222-1.826 1.222-3.135 0-2.73-1.492-4.095-4.476-4.095h-2.977v8.402h2.977zm-.146-1.535h-.937v-5.326h.925c.836 0 1.486.23 1.949.688.462.46.694 1.089.694 1.89 0 .847-.234 1.517-.7 2.01-.467.492-1.11.738-1.931.738zm9.1 1.535v-6.861h2.396V21.14h-6.68v1.54h2.385v6.862h1.899z" fill="#FFF"/></g></svg>