<svg width="32" height="32" xmlns="http://www.w3.org/2000/svg"><g fill="none" fill-rule="nonzero"><path d="M26.522 0a1.5 1.5 0 0 1 1.493 1.356l.007.144L28.02 18h1.412a1 1 0 0 1 1 1v12a1 1 0 0 1-1 1H2.5a1 1 0 0 1-1-1V19a1 1 0 0 1 1-1h1V9.307a1.49 1.49 0 0 1 0-.183v-.4a1.5 1.5 0 0 1 .34-.951l.1-.11L11.162.439a1.5 1.5 0 0 1 .912-.432L12.223 0h14.299zM25.02 3l-11.298-.001v6.224a1.5 1.5 0 0 1-1.355 1.493l-.145.007H6.5V18h18.522V3zM10.723 5.62 8.62 7.723h2.103V5.62z" fill="#919191"/><path d="M6.726 29.7v-3.136h.978c1.1 0 1.979-.282 2.637-.847.658-.565.987-1.305.987-2.219 0-1.934-1.147-2.9-3.44-2.9H4.676V29.7h2.05zm.806-4.69h-.806v-2.838h.806c1.092 0 1.638.467 1.638 1.403 0 .956-.546 1.434-1.638 1.434zm8.354 4.69c1.468 0 2.643-.423 3.526-1.27.882-.846 1.323-1.978 1.323-3.396 0-2.958-1.616-4.437-4.85-4.437h-3.224V29.7h3.225zm-.159-1.663h-1.016v-5.77h1.003c.906 0 1.61.249 2.11.746.502.497.753 1.18.753 2.047 0 .918-.253 1.644-.758 2.177-.506.533-1.203.8-2.092.8zm8.57 1.663v-3.536h2.951v-1.663h-2.952v-2.234h3.212v-1.67h-5.262V29.7h2.05z" fill="#FFF"/></g></svg>