<svg width="32" height="32" xmlns="http://www.w3.org/2000/svg"><path d="M16 0c8.837 0 16 7.163 16 16l-.003.299.003.217-.003.187-.013.181-.013.09C31.467 25.358 24.509 32 16 32 7.5 32 .547 25.371.03 17l-.019-.17-.007-.121L0 16.392l.002-.076L0 16C0 7.273 6.988.177 15.673.003L16 0zm-4.54 18.576c.044.536.101 1.06.17 1.569l.074.503.109.654c.139.774.305 1.505.494 2.187l.145.501.171.535.18.509.094.244.095.238.196.455c.832 1.838 1.844 2.932 2.812 2.932.924 0 1.888-.997 2.698-2.686l.114-.246.196-.455.095-.238.093-.244.18-.51.172-.534c.2-.655.378-1.363.53-2.115l.11-.573.108-.654c.103-.665.185-1.357.244-2.072l-8.04.003-1.04-.003zM3.32 18.4a12.923 12.923 0 0 0 7.288 9.325C9.61 25.759 8.894 23.23 8.53 20.39l-.064-.536-.075-.749-.043-.547-1.4-.018-1.068-.023-1.175-.04-.624-.028-.762-.048zm25.36-.002-.56.038-.605.031-.9.034-1.281.032-1.469.022h-.216l-.041.55-.075.748c-.339 3.057-1.08 5.782-2.14 7.873a12.93 12.93 0 0 0 7.216-8.974l.072-.354zM10.609 4.273l-.244.117C6.45 6.293 3.643 10.117 3.168 14.636l.35-.025.747-.04.845-.03 2.008-.045 1.172-.013c.015-.358.035-.713.06-1.064l.042-.524.075-.749c.339-3.057 1.08-5.782 2.14-7.873zm10.784.001.092.184c.948 1.936 1.63 4.39 1.983 7.135l.066.553.075.749c.046.521.08 1.051.102 1.588l1.172.013 1.06.02 1.169.032 1.009.043.712.043c-.485-4.611-3.4-8.499-7.44-10.36zM16 3.097l-.132.007c-.881.09-1.79 1.066-2.56 2.667l-.12.258-.196.455-.095.238-.093.244-.18.51-.172.534c-.2.655-.378 1.363-.53 2.115l-.11.573-.108.654a29.927 29.927 0 0 0-.312 3.112l3.341-.01 5.875.012c-.042-.87-.12-1.712-.226-2.517l-.086-.597-.109-.654a24.25 24.25 0 0 0-.494-2.187l-.145-.501-.171-.535-.18-.509-.094-.244-.095-.238-.196-.455c-.794-1.754-1.752-2.831-2.68-2.925L16 3.097z" fill="#919191" fill-rule="nonzero"/></svg>