<svg width="32" height="32" xmlns="http://www.w3.org/2000/svg"><g fill="none" fill-rule="nonzero"><path d="M26.522 0a1.5 1.5 0 0 1 1.493 1.356l.007.144L28.02 18h1.412a1 1 0 0 1 1 1v12a1 1 0 0 1-1 1H2.5a1 1 0 0 1-1-1V19a1 1 0 0 1 1-1h1V9.307a1.49 1.49 0 0 1 0-.183v-.4a1.5 1.5 0 0 1 .34-.951l.1-.11L11.162.439a1.5 1.5 0 0 1 .912-.432L12.223 0h14.299zM25.02 3l-11.298-.001v6.224a1.5 1.5 0 0 1-1.355 1.493l-.145.007H6.5V18h18.522V3zM10.723 5.62 8.62 7.723h2.103V5.62z" fill="#919191"/><path d="M12.596 29.903v-1.791h-4.93l4.916-6.775V20.1h-7.52v1.798h4.662L4.7 28.63v1.272h7.896zm5.44 0v-1.71h-.82V21.81h.82V20.1h-3.85v1.709h.821v6.385h-.82v1.709h3.848zm4.585 0v-3.377h1.053c1.185 0 2.131-.304 2.84-.913.709-.608 1.063-1.405 1.063-2.389 0-2.083-1.235-3.124-3.705-3.124h-3.46v9.803h2.209zm.868-5.052h-.868v-3.056h.868c1.176 0 1.764.504 1.764 1.511 0 1.03-.588 1.545-1.764 1.545z" fill="#FFF"/></g></svg>