<svg xmlns="http://www.w3.org/2000/svg" width="30" height="30"><g fill="none"><path fill="#6288b8" d="M10.322 5.193a1.406 1.406 0 0 1 .135 2.806l-.135.007H7.039v14.062h3.137c.73 0 1.332.558 1.4 1.27l.006.136c0 .73-.557 1.332-1.27 1.4l-.136.006H5.634a1.406 1.406 0 0 1-1.4-1.27l-.006-.136V6.599c0-.73.557-1.331 1.27-1.4l.137-.006h4.688zM8.445 9.882 8.3 9.88c2.254 0 3.775.422 5.264 1.435l.313.22.287.216.35.28.424.368.21.187 2.534 2.326.184.165.497.43.298.24c.048.039.095.075.142.11.622.475 1.197.799 1.83.998v2.898c-1.292-.254-2.4-.794-3.534-1.657-.333-.254-.67-.535-1.06-.88l-2.712-2.484-.436-.387-.325-.272-.352-.27-.063-.045c-1.038-.75-1.995-1.048-3.702-1.064zm20.996 3.712c.623.463.754 1.344.29 1.968-.944 1.273-1.946 2.278-3.003 3v-2.12h-.47v-1.136c.407-.403.81-.876 1.215-1.42a1.406 1.406 0 0 1 1.968-.292zm-5.994-8.401c.73 0 1.33.558 1.4 1.27l.006.136-.001 9.844H22.04V8.005h-3.281a1.406 1.406 0 0 1-1.4-1.27l-.006-.136c0-.73.557-1.331 1.27-1.4l.136-.006zM2.822 11.698v3.614a18.7 18.7 0 0 0-.404.397 1.406 1.406 0 1 1-2.006-1.97 16.086 16.086 0 0 1 2.41-2.041z"/><path fill="#62b880" d="M25.322 17.849v4.688h4.687v2.812H25.32v4.688h-2.812v-4.688H17.82v-2.812h4.688v-4.688z"/></g></svg>