<svg xmlns="http://www.w3.org/2000/svg" width="33.504" height="29.984"><path d="M23.776 4.832c0-.256.096-.48.288-.672a.817.817 0 0 1 .672-.256h2.976V.928c0-.277.096-.501.288-.672A.94.94 0 0 1 28.64 0c.235 0 .459.085.672.256.213.17.299.395.256.672v2.976h3.008a.94.94 0 0 1 .64.256c.192.17.288.395.288.672a.856.856 0 0 1-.288.672.94.94 0 0 1-.64.256h-3.008v3.008c0 .256-.085.47-.256.64-.17.17-.395.267-.672.288a.82.82 0 0 1-.64-.288.82.82 0 0 1-.288-.64V5.76h-2.976a.98.98 0 0 1-.672-.256.921.921 0 0 1-.288-.672z" style="fill:#6288b8;fill-opacity:1"/><path d="M.384 14.144a11.112 11.112 0 0 1 0-5.792c.512-1.92 1.493-3.605 2.944-5.056A11.053 11.053 0 0 1 7.008.832 11.286 11.286 0 0 1 11.296 0c1.472 0 2.901.277 4.288.832a10.64 10.64 0 0 1 3.68 2.464 10.6 10.6 0 0 1 2.56 3.968c.555 1.515.8 3.04.736 4.576-.064 1.536-.47 3.019-1.216 4.448a4.08 4.08 0 0 1 1.664.992l5.792 5.824c.81.79 1.216 1.739 1.216 2.848 0 1.11-.405 2.059-1.216 2.848-.81.79-1.75 1.184-2.816 1.184-1.11 0-2.059-.395-2.848-1.184l-5.824-5.824c-.427-.427-.757-.981-.992-1.664-1.6.79-3.275 1.184-5.024 1.184-1.472 0-2.901-.277-4.288-.832a10.64 10.64 0 0 1-3.68-2.464C1.878 17.75.896 16.064.384 14.144zm3.424-2.912c0 2.09.725 3.861 2.176 5.312a7.992 7.992 0 0 0 2.432 1.632 7.233 7.233 0 0 0 2.88.576c2.09 0 3.861-.736 5.312-2.208a7.507 7.507 0 0 0 1.632-2.432 7.306 7.306 0 0 0 .576-2.848c0-2.09-.736-3.872-2.208-5.344-1.472-1.45-3.243-2.176-5.312-2.176-2.07 0-3.84.725-5.312 2.176-1.472 1.45-2.197 3.221-2.176 5.312z" style="fill:#b89a62;fill-opacity:1"/></svg>