<svg xmlns="http://www.w3.org/2000/svg" width="28.592" height="28.608"><path d="M.368 13.504q-.736-2.784 0-5.536t2.784-4.8Q4.688 1.6 6.672.8 8.656 0 10.768 0q2.08 0 4.064.8t3.52 2.368q1.664 1.664 2.464 3.808t.672 4.384q-.128 2.24-1.152 4.224.896.256 1.568.928l5.568 5.536q1.12 1.12 1.12 2.72t-1.12 2.72q-1.12 1.12-2.72 1.12t-2.72-1.12l-5.536-5.568q-.704-.64-.96-1.568-2.24 1.12-4.768 1.12-2.112 0-4.096-.8t-3.52-2.336Q1.104 16.288.368 13.504zM3.6 10.752q0 2.976 2.08 5.056 2.112 2.08 5.088 2.08 2.944 0 5.024-2.08t2.112-5.056q.032-2.976-2.112-5.056-2.112-2.112-5.024-2.112-2.944 0-5.088 2.112-2.08 2.08-2.08 5.056z" style="fill:#b89a62;fill-opacity:1"/></svg>