<svg xmlns="http://www.w3.org/2000/svg" viewBox="0 0 330 330"><path d="m174.379 307.037 33.164-33.164a13.266 13.266 0 0 0-9.38-22.646h-19.898v-72.961h72.962v19.898a13.266 13.266 0 0 0 22.646 9.38l33.164-33.164c5.181-5.18 5.181-13.58 0-18.76l-33.164-33.165a13.267 13.267 0 0 0-22.646 9.38v19.9h-72.962V78.772h19.899a13.265 13.265 0 0 0 9.38-22.647l-33.165-33.164c-5.18-5.18-13.58-5.18-18.76 0l-33.165 33.164a13.261 13.261 0 0 0-2.876 14.457 13.267 13.267 0 0 0 12.256 8.19h19.9v72.961H78.771v-19.898a13.265 13.265 0 0 0-22.647-9.38L22.961 155.62a13.22 13.22 0 0 0-3.885 9.38c0 3.395 1.295 6.79 3.886 9.38l33.164 33.164a13.267 13.267 0 0 0 22.647-9.38v-19.898h72.96v72.961h-19.898a13.264 13.264 0 0 0-9.38 22.646l33.164 33.164c5.18 5.182 13.58 5.182 18.76 0z" style="fill:#b89a62"/></svg>