<svg xmlns="http://www.w3.org/2000/svg" version="1.1" id="Capa_1" x="0" y="0" xml:space="preserve" width="210.381" height="210.168"><defs id="defs37"><style id="style827"></style></defs><g id="trash" transform="translate(-14.905 -15.011) scale(7.50597)" style="fill:#b86262;fill-opacity:1"><path id="line841" style="color:#000;font-style:normal;font-variant:normal;font-weight:400;font-stretch:normal;font-size:medium;line-height:normal;font-family:sans-serif;font-variant-ligatures:normal;font-variant-position:normal;font-variant-caps:normal;font-variant-numeric:normal;font-variant-alternates:normal;font-feature-settings:normal;text-indent:0;text-align:start;text-decoration:none;text-decoration-line:none;text-decoration-style:solid;text-decoration-color:#000;letter-spacing:normal;word-spacing:normal;text-transform:none;writing-mode:lr-tb;direction:ltr;text-orientation:mixed;dominant-baseline:auto;baseline-shift:baseline;text-anchor:start;white-space:normal;shape-padding:0;clip-rule:nonzero;display:inline;overflow:visible;visibility:visible;opacity:1;isolation:auto;mix-blend-mode:normal;color-interpolation:sRGB;color-interpolation-filters:linearRGB;solid-color:#000;solid-opacity:1;vector-effect:none;fill:#b86262;fill-opacity:1;fill-rule:nonzero;stroke:none;stroke-width:2px;stroke-linecap:round;stroke-linejoin:round;stroke-miterlimit:4;stroke-dasharray:none;stroke-dashoffset:0;stroke-opacity:1;color-rendering:auto;image-rendering:auto;shape-rendering:auto;text-rendering:auto;enable-background:accumulate" d="M18.984 10.986A1 1 0 0 0 18 12v10a1 1 0 1 0 2 0V12a1 1 0 0 0-1.016-1.014zm-6 0A1 1 0 0 0 12 12v10a1 1 0 1 0 2 0V12a1 1 0 0 0-1.016-1.014zM13 2a1 1 0 1 0 0 2h6a1 1 0 1 0 0-2zM3 6a1 1 0 1 0 0 2h26a1 1 0 1 0 0-2zm4 0a1 1 0 0 0-1 1v22a1 1 0 0 0 1 1h18a1 1 0 0 0 1-1V7a1 1 0 0 0-1-1zm1 2h16v20H8z"/></g></svg>