<svg xmlns="http://www.w3.org/2000/svg" version="1.1" id="Capa_1" x="0" y="0" xml:space="preserve" width="245.364" height="245.307"><defs id="defs37"><style id="style829"></style></defs><g id="Layer_42" data-name="Layer 42" transform="matrix(10.5995 0 0 10.5995 -10.535 -62.079)" style="fill:#b89a62;fill-opacity:1"><path id="rect839" style="fill:#b89a62;fill-opacity:1;stroke-width:.89014125" d="m7.497 21.246 6.93-6.93 1.26 1.259-6.93 6.93zm13.085-5.411a.89.89 0 0 1-.632-.258l-5.527-5.546a.894.894 0 0 1 1.264-1.264l5.545 5.546a.89.89 0 0 1 0 1.264.89.89 0 0 1-.65.258zM1.89 29a.89.89 0 0 1-.89-.988l.686-6.231a.89.89 0 0 1 .258-.525L16.506 6.693a2.848 2.848 0 0 1 4.032 0l2.768 2.768a2.848 2.848 0 0 1 0 4.033L8.752 28.048a.89.89 0 0 1-.525.258l-6.23.685zm6.231-1.584zm-4.69-5.137-.535 4.825 4.825-.534L22.05 12.239a1.068 1.068 0 0 0 0-1.514l-2.777-2.777a1.068 1.068 0 0 0-1.513 0z"/></g></svg>