<svg width="32" height="32" xmlns="http://www.w3.org/2000/svg"><g fill="none" fill-rule="nonzero"><path d="M8.564 7.54a4.83 4.83 0 0 1 .564 9.625 8.77 8.77 0 0 1 2.147.384c1.87-1.908 4.637-3.013 7.83-3.013 3.287 0 6.123 1.171 7.993 3.184h-5.034v.268c-.887-.295-1.882-.452-2.959-.452-4.352 0-7.362 2.561-7.362 6.445l.001.167.013.32c.089 1.431.61 2.235 1.972 2.668l.191.057.325.081c.254.057.532.105.835.144l.311.038.442.042.473.034.505.026.54.018.407.009v.469h4.306l-.001 2.482-.542.025-.624.018-.675.011-1.118.006-1.01-.004-.696-.01-.646-.019-.599-.027-.557-.036-.518-.047c-1.169-.122-2.06-.34-2.915-.706a5.87 5.87 0 0 1-1.424-.855l-.438.023-.562.017-.65.008h-.858l-.618-.005-.562-.012-.51-.02-.467-.03c-.966-.076-1.661-.226-2.36-.507C1.95 27.654 1 26.168 1 23.996c0-3.92 2.989-6.6 6.992-6.833a4.83 4.83 0 0 1 .572-9.623zm0 12.606c-2.736 0-4.564 1.53-4.564 3.85 0 1.113.335 1.61 1.73 1.815l.328.041.364.032.403.025.443.016.744.014.945.002a8.435 8.435 0 0 1-.214-1.96c0-1.377.263-2.643.747-3.77a6.629 6.629 0 0 0-.926-.065zm20.716 1.88h-1.188v-3.012a8.875 8.875 0 0 1 1.188 3.012zM8.564 10.54a1.83 1.83 0 1 0 0 3.658 1.83 1.83 0 0 0 0-3.658zm10.075-9.064a6.164 6.164 0 1 1 0 12.329 6.164 6.164 0 0 1 0-12.33zm0 3a3.164 3.164 0 1 0 0 6.329 3.164 3.164 0 0 0 0-6.33z" fill="#6288B8"/><path fill="#62B880" d="M26.37 19.615v4.305h4.305v2.584h-4.306v4.305h-2.583v-4.305h-4.305V23.92h4.305v-4.305z"/></g></svg>