<svg width="32" height="32" xmlns="http://www.w3.org/2000/svg"><g fill-rule="nonzero" fill="none"><path d="M15.636 14.683c2.377 0 4.514.618 6.206 1.726h-.297v3.732c-1.235-1.548-3.326-2.458-5.909-2.458-4.225 0-7.136 2.437-7.136 6.12 0 1.78.542 2.666 2.326 3.08l.203.045.358.064c.124.02.253.038.387.055l.205.024.432.041.229.018.48.03.514.021.834.021.915.007 1.176-.005.44-.008.001.122h4.545l.002 2.384a9.69 9.69 0 0 1-1.395.3l-.359.046-.468.048-.247.02-.522.034-.277.014-.585.021-.633.014-.684.008-.742.002-1.016-.004-.87-.015-.789-.028-.578-.033-.537-.044c-1.208-.115-2.114-.326-2.983-.693-2.201-.93-3.362-2.797-3.362-5.589 0-5.469 4.36-9.12 10.136-9.12zm0-13.683a6.242 6.242 0 1 1 0 12.483 6.242 6.242 0 0 1 0-12.483zm0 3a3.242 3.242 0 1 0 0 6.483 3.242 3.242 0 0 0 0-6.483z" fill="#6288B8"/><path fill="#62B880" d="M26.09 18.41v4.545h4.546v2.727h-4.545v4.545h-2.727v-4.545h-4.546v-2.727h4.546v-4.546z"/></g></svg>