<svg xmlns="http://www.w3.org/2000/svg" width="375.936" height="384"><path style="fill:#6288b8" d="M18.816 0c-4.992 0-9.6 1.92-13.056 5.376C1.92 9.216 0 13.824 0 18.816v81.408c0 4.992 1.92 9.6 5.76 13.44 3.456 3.456 8.064 5.376 13.056 5.376h39.168v216.576c0 2.304.768 4.608 2.304 6.144 1.92 1.536 3.84 2.688 6.528 2.688h204.672v34.944c0 1.536.384 2.304 1.152 3.456.768.768 1.92 1.152 3.072 1.152h95.616c1.152 0 2.304-.384 3.072-1.152 1.152-1.152 1.536-1.92 1.536-3.456V291.84c0-1.536-.384-2.688-1.152-4.224-.384-1.536-1.152-2.688-1.92-3.84l-14.976-14.592c-.768-.768-1.92-1.536-3.456-2.304-1.536-.384-3.072-.768-4.224-.768h-74.496c-1.152 0-2.304.384-3.072 1.152-.768.768-1.152 1.92-1.152 3.456v46.464l-185.856-.768v-94.848l67.584.384v40.32c0 .768.384 1.536.768 2.304.384 0 .384.384.768.768.768 1.152 1.92 1.536 3.072 1.536h95.616c1.152 0 2.304-.384 3.072-1.536 1.152-.768 1.536-1.92 1.536-3.072v-87.936c0-1.152-.384-2.688-1.152-3.84-.384-1.536-1.152-3.072-2.304-3.84L240 152.064c-.768-.768-1.92-1.536-3.456-2.304-1.536-.768-3.072-.768-4.224-.768h-74.496c-1.152 0-2.304.384-3.072 1.152-.768.768-1.536 1.92-1.536 3.072v41.088H85.632V119.04h36.096c5.376 0 9.6-1.92 13.44-5.376 3.84-3.84 5.76-8.448 5.76-13.44v-59.52c0-5.376-1.92-9.6-5.76-13.44s-8.064-5.76-13.44-5.76H64.896v-2.688c0-4.992-1.92-9.6-5.376-13.44C55.68 1.92 51.072 0 46.08 0zm162.432 176.64h32.64l16.128 16.128v46.08h-48.768V176.64zm117.888 117.12h32.64l16.128 16.128v46.08h-48.768z"/></svg>