<svg width="12" height="12" xmlns="http://www.w3.org/2000/svg"><path d="M6.026 0C9.326 0 12 2.686 12 6s-2.675 6-5.974 6A5.978 5.978 0 0 1 .36 7.904a.777.777 0 1 1 1.475-.495 4.423 4.423 0 0 0 4.192 3.03c2.44 0 4.42-1.988 4.42-4.439s-1.98-4.438-4.42-4.438a4.404 4.404 0 0 0-3.29 1.474l.277.015.114.014a.78.78 0 0 1-.09 1.544l-.105.001-2.196-.115L.62 4.48a.78.78 0 0 1-.619-.69L0 3.674.115 1.47l.015-.115A.78.78 0 0 1 .817.732L.932.73l.114.014a.78.78 0 0 1 .62.69l.002.116-.02.366A5.954 5.954 0 0 1 6.027 0zM6.02 2.603c.393 0 .718.293.77.675l.007.106v2.799l1.416 1.423c.304.305.304.799 0 1.104a.775.775 0 0 1-1.012.075l-.087-.075-1.644-1.651-.048-.052-.063-.088-.051-.098-.021-.053-.028-.1-.015-.106-.002-.055V3.384a.78.78 0 0 1 .778-.781z" fill="#6288B8" fill-rule="nonzero"/></svg>