<svg width="32" height="32" xmlns="http://www.w3.org/2000/svg"><path d="M15.583.5a1.5 1.5 0 0 1 1.493 1.356l.007.144v1.883h11.55a1.5 1.5 0 0 1 1.493 1.356l.007.144v17.4a1.5 1.5 0 0 1-1.355 1.493l-.145.007H21.3l1.526 5.338.033.141a1.5 1.5 0 0 1-2.872.82l-.046-.137-1.761-6.162h-4.228l-1.76 6.162a1.5 1.5 0 0 1-2.917-.683l.033-.14 1.525-5.339H3.5a1.5 1.5 0 0 1-1.493-1.355L2 22.783v-17.4A1.5 1.5 0 0 1 3.356 3.89l.144-.007h10.583V2a1.5 1.5 0 0 1 1.5-1.5zm11.55 6.383H5v14.4h22.133v-14.4z" fill="#B89A62" fill-rule="nonzero"/></svg>