<svg width="32" height="32" xmlns="http://www.w3.org/2000/svg"><path d="M16.231 14.226c5.024 0 8.829 3.238 8.829 8.07 0 2.526-1.067 4.221-3.078 5.045a7.667 7.667 0 0 1-1.727.48l-.33.048-.447.05-.236.021-.503.034-.268.014-.571.02-.624.012-1.046.006-.939-.004-.648-.012-.304-.009-.571-.025-.527-.035c-1.18-.096-2.036-.286-2.862-.642-1.948-.84-2.976-2.524-2.976-5.003 0-4.832 3.805-8.07 8.828-8.07zM7.514 8.441c.52 0 1.016.093 1.476.263l-.001.08c0 1.993.85 3.788 2.209 5.04-2.401 1.156-4.169 3.161-4.91 5.707C4.869 19.894 4 20.912 4 22.31c0 .886.288 1.207 1.753 1.308l.244.015c.17 1.164.57 2.181 1.191 3.024h-.22l-.621-.01-.557-.023c-1.054-.057-1.776-.197-2.482-.502C1.807 25.475 1 24.163 1 22.31c0-2.964 1.977-5.109 4.772-5.736A4.253 4.253 0 0 1 7.514 8.44zm16.817 0a4.253 4.253 0 0 1 1.742 8.134c2.796.625 4.773 2.77 4.773 5.734 0 1.9-.848 3.225-2.408 3.854a6.055 6.055 0 0 1-1.674.405l-.287.027-.454.03-.245.011-.5.015c.627-.854 1.03-1.887 1.196-3.071l.255-.036c.738-.123 1.01-.369 1.09-.839l.013-.104.012-.19.002-.102c0-1.155-.595-2.052-1.604-2.533l-.037-.141c-.775-2.78-2.765-4.926-5.468-6.046a6.834 6.834 0 0 0 1.959-4.495l.007-.329a4.208 4.208 0 0 1 1.628-.324zm-8.1 8.785c-3.38 0-5.712 1.915-5.824 4.848l-.004.222.006.287.008.135.026.257c.16 1.186.833 1.715 2.627 1.927l.23.025.41.034.218.014.463.023.498.015.536.01.575.003 1.104-.005.532-.01.495-.018.459-.024.423-.031.39-.04c1.916-.227 2.541-.81 2.642-2.159l.01-.159.005-.284c0-3.058-2.364-5.07-5.829-5.07zm-.385-13.8a5.357 5.357 0 1 1 0 10.715 5.357 5.357 0 0 1 0-10.715zm-8.332 8.015a1.253 1.253 0 1 0 0 2.505 1.253 1.253 0 0 0 0-2.505zm16.817 0a1.253 1.253 0 1 0 0 2.505 1.253 1.253 0 0 0 0-2.505zm-8.485-5.015a2.357 2.357 0 1 0 0 4.715 2.357 2.357 0 0 0 0-4.715z" fill="#8B62B8" fill-rule="nonzero"/></svg>