<svg xmlns="http://www.w3.org/2000/svg" viewBox="0 0 320 512"><path d="M167.727 288.957 268.672 389.9c6.977 6.978 21.875 10.232 25.162 0 3.286-10.231 1.422-36.016-4.009-41.936l-71.552-71.552 71.552-71.552c13.292-13.292 5.41-32.137 4.083-42.085-1.327-9.949-18.26-6.977-25.162 0L167.8 263.72a17.763 17.763 0 0 0-.074 25.237zM25.217 263.72 126.16 162.776c3.489-3.489 21.275-11.884 25.162 0 3.887 11.883 5.554 32.355-4.008 41.936L75.837 276.34l71.552 71.552c9.552 9.552 7.502 35.142 4.008 42.01-3.493 6.87-18.259 6.978-25.161 0L25.29 288.957a17.763 17.763 0 0 1-.075-25.237z" style="fill:#fdfefd;stroke-width:1"/></svg>