<svg xmlns="http://www.w3.org/2000/svg" width="144.847" height="145.177"><path style="fill:#b86262" d="M70 .017C58.325.267 46.6 3.343 35.886 9.509c-34.288 19.733-46.24 64.215-26.04 99.093 20.2 34.877 64.82 46.8 99.108 27.067 34.287-19.733 46.247-64.22 26.047-99.097C121.114 12.593 95.681-.533 69.999.017zm3.628 22.105c17.09.396 33.47 9.469 42.61 25.25 9.45 16.315 8.788 35.72-.24 50.91L48.811 28.009c7.934-4.187 16.458-6.081 24.816-5.887zM38.23 35.414a51.036 51.036 0 0 0-6.212 6.77l68.744 72.155a51.885 51.885 0 0 1-3.05 1.918c-24.44 14.066-55.173 5.594-69.1-18.453-12.065-20.83-7.661-46.698 9.618-62.39z"/></svg>