<svg xmlns="http://www.w3.org/2000/svg" height="147.052" viewBox="0 0 155.701 147.052" width="155.702"><path style="fill:#b89a62" d="M8.65 147.052H129.75a8.648 8.648 0 0 0 8.65-8.65V86.103a5075.901 5075.901 0 0 0-17.3 17.707v25.942H17.3V25.95h60.55V8.65H8.65A8.648 8.648 0 0 0 0 17.3v121.102a8.648 8.648 0 0 0 8.65 8.65zm25.95-38.926v4.325c14.627-22.3 31.14-34.193 51.9-34.6v25.95c0 4.767 4.42 8.65 9.888 8.65 3.148 0 5.838-1.366 7.638-3.382 16.72-17.55 51.675-52.843 51.675-52.843s-34.955-35.31-51.684-53.086c-1.8-1.773-4.48-3.14-7.63-3.14-5.466 0-9.886 3.867-9.886 8.65V34.6C46.19 34.6 34.6 76.735 34.6 108.126z"/></svg>