<svg xmlns="http://www.w3.org/2000/svg" width="256" height="256"><path style="fill:#6288b8" d="M144.64.003c-21.97-.25-34.413 14.765-33.157 29.828 1.3 15.592 17.019 17.032 14.066 30.424-3.014 13.671-74.353-3.58-74.353-3.58s11.555 58.91 7.033 69.201c-4.521 10.29-23.363-15.461-32.154-16.107-10.792-.794-19.945 8.252-23.11 23.465-3.165 15.212-7.033 30.673 7.436 37.384 14.469 6.712 15.523-12.976 30.344-4.574 16.357 9.272-1.206 80.934-1.206 80.934s75.207 13.75 79.98 0c4.523-13.025-16.527-18.793-10.65-32.215 5.878-13.421 16.43-14.765 33.159-12.528 16.73 2.238 32.855 8.054 33.76 21.477.904 13.423-15.323 7.954-12.057 23.266 2.86 13.414 67.67 11.08 78.37-1.79 11.657-14.018 11.054-67.81 5.427-81.132-5.627-13.323-13.01 15.163-27.932 12.926-12.26-1.838-15.698-7.478-17.037-17.618-.339 24.1-16.108 42.987-41.096 43.27-10.24.116-28.36-7.109-29.48-8.734-1.12-1.626-5.295-37.508-5.295-37.508l-8.395-.313c-1.493-.055-2.815-1.394-3-2.963l-1.402-12.002c-.176-1.514.823-2.688 2.287-2.61l8.225.452-2.344-17.847-13.29-.979c-1.972-.145-3.71-1.818-3.927-3.771l-1.625-14.977c-.205-1.866 1.166-3.193 3.086-3.01l12.936 1.237s-.597-4.57-.182-5.729c.417-1.16 14.687-4.914 23.691-3.941h.002c26.399 2.855 51.698 26.548 58.221 54.884.29 1.26.526 2.51.736 3.756-.736-12.93-.418-22.402 13.266-25.685 14.921-3.58 22.608 18.642 32.555 2.982s11.706-47.228 2.21-58.662c-8.547-10.293-74.452 5.37-80.38-6.959-5.498-11.433 11.652-11.399 10.45-31.418C178.902 13.774 166.492.252 144.638.003zm-58.608 120.64h.002l12.236.874c1.543.11 2.876 1.457 3.041 2.986l1.254 12.186c.163 1.587-.946 2.776-2.524 2.69l-12.511-.67c-1.624-.087-3.088-1.43-3.198-3.046l-.978-12.39c-.123-1.556 1.09-2.742 2.678-2.63zm26.338 5.456 4.417.299c.559.038 1.027.523 1.137 1.09l.557 4.484c.071.576-.32 1.015-.887.976l-4.451-.271c-.571-.035-1.114-.525-1.15-1.108l-.526-4.511c-.066-.573.333-.998.903-.96zM97.686 149.53h.002l8.182.352c1.034.045 1.9.96 2.029 2.03l.914 8.495c.119 1.097-.592 1.908-1.639 1.88l-8.3-.253c-1.07-.032-2.06-.908-2.133-2.02l-.793-8.595c-.101-1.083.686-1.937 1.738-1.889zm10.021 18.426h.002l13.182.324c1.66.041 3.173 1.509 3.398 3.3l1.795 14.288c.235 1.864-.938 3.362-2.638 3.362l-13.504-.04c-1.754-.004-3.327-1.547-3.518-3.449l-1.474-14.572c-.185-1.825 1.047-3.25 2.757-3.213z"/></svg>