<svg width="32" height="32" xmlns="http://www.w3.org/2000/svg"><path d="m8.777 0 .153.008c.703.074 1.263.653 1.334 1.382l.008.158-.008.159c-.071.728-.63 1.308-1.334 1.382l-.153.008H5.103l4.004 4.146h13.597l4.004-4.147h-3.673l-.153-.007c-.753-.08-1.342-.739-1.342-1.54 0-.802.589-1.462 1.342-1.541L23.035 0l7.348.002.117.01.141.024c.27.062.524.201.733.418.105.108.19.228.257.355l.044.09.053.137.014.043c.022.07.038.142.05.216l.01.072.008.09.002.091v7.543l-.008.158c-.071.729-.63 1.308-1.334 1.382l-.153.008-.153-.008c-.703-.074-1.263-.653-1.334-1.382l-.008-.158V5.286l-4.27 4.421v12.39l4.459 4.616V22.91l.007-.158c.076-.781.713-1.39 1.487-1.39.774 0 1.41.609 1.487 1.39l.008.158v7.564l-.01.165-.023.139-.039.15a1.554 1.554 0 0 1-.71.886 1.46 1.46 0 0 1-.334.137l-.119.027-.088.013-.085.007-.087.003h-7.282l-.153-.008c-.703-.074-1.263-.653-1.334-1.382l-.008-.158.008-.159c.071-.728.63-1.308 1.334-1.382l.153-.008h3.674l-4.967-5.144H10.257l-4.965 5.145h3.673l.153.007c.753.08 1.342.739 1.342 1.54 0 .802-.589 1.462-1.342 1.541L8.965 32l-7.348-.002-.117-.01-.141-.024a1.476 1.476 0 0 1-.733-.418 1.546 1.546 0 0 1-.257-.355l-.044-.09-.053-.137-.014-.043a1.567 1.567 0 0 1-.05-.216l-.01-.072-.008-.09-.002-.091v-7.543l.008-.158c.071-.729.63-1.308 1.334-1.382l.153-.008.153.008c.703.074 1.263.653 1.334 1.382l.008.158v3.805l4.432-4.593v-12.05L2.99 5.288V9.09l-.008.158c-.076.781-.713 1.39-1.487 1.39-.774 0-1.41-.609-1.487-1.39L0 9.091V1.527l.01-.165.023-.139.039-.15a1.554 1.554 0 0 1 .71-.886A1.46 1.46 0 0 1 1.115.05l.119-.027.088-.013.085-.007L1.495 0h7.282zm12.562 10.341H10.6v10.323h10.963V10.632l-.008-.008a1.546 1.546 0 0 1-.216-.283z" fill="#6288b8" fill-rule="nonzero"/></svg>