<svg width="32" height="32" xmlns="http://www.w3.org/2000/svg"><path d="M16 0c8.837 0 16 7.163 16 16 0 4.681-2.01 8.893-5.215 11.819l-.393.346-.272.228c-.187.154-.378.303-.572.447l-.432.31-.284.193-.551.35-.286.17-.261.147-.32.173-.464.233-.615.28-.068.03c-.299.127-.602.246-.91.355l-.568.19-.354.106-.407.111-.352.088-.435.095-.38.074-.564.091-.463.06-.376.038-.423.033-.416.021-.234.007c-.128.003-.256.005-.385.005l-.473-.007-.42-.018-.371-.024-.415-.038-.4-.047-.4-.057-.388-.065-.441-.087-.386-.086-.375-.093-.43-.12-.38-.116c-.24-.077-.48-.16-.717-.248l-.451-.176-.334-.141-.425-.193-.467-.229-.309-.162-.214-.117-.45-.262-.46-.288-.305-.203-.46-.326-.368-.279-.354-.284-.302-.256-.269-.24-.3-.28A15.953 15.953 0 0 1 0 16C0 7.163 7.163 0 16 0zm0 23.329c-2.724 0-5.29.955-7.314 2.638l-.273.234-.144.13.277.203.347.237.354.226.368.218.374.206.316.16c.234.116.472.224.714.326l.365.146.316.116.225.078.227.073.37.11.322.084.369.087.338.07.467.08.339.049.52.055c.13.011.262.02.394.028l.356.015.373.005.2-.001.232-.006.317-.014.31-.022.392-.037.423-.055.474-.078.442-.09.442-.105.202-.054.2-.056.196-.06.194-.062.416-.144.354-.136.348-.145.247-.11.344-.164.126-.065c.252-.128.498-.264.74-.409l.22-.133.35-.226.413-.29.149-.111-.144-.13a11.41 11.41 0 0 0-6.863-2.848l-.369-.018L16 23.33zm0-20.232C8.874 3.097 3.097 8.874 3.097 16c0 3.109 1.099 5.96 2.93 8.188A14.504 14.504 0 0 1 16 20.232c3.771 0 7.31 1.445 9.974 3.954A12.846 12.846 0 0 0 28.904 16c0-7.126-5.778-12.903-12.904-12.903zm0 3.647a6.366 6.366 0 1 1 0 12.731 6.366 6.366 0 0 1 0-12.73zm0 3.097a3.269 3.269 0 1 0 0 6.537 3.269 3.269 0 0 0 0-6.537z" fill="#6288b8" fill-rule="nonzero"/></svg>