<svg xmlns="http://www.w3.org/2000/svg" height="64" width="64" xml:space="preserve"><path d="M51.031 28.66c0-.16.027-.32.027-.481 0-8.706-6.937-15.75-15.495-15.75-6.175 0-11.478 3.67-13.97 8.973a7.934 7.934 0 0 0-3.589-.87c-3.95 0-7.245 2.932-7.875 6.763C5.39 28.929 2 33.469 2 38.812 2 45.537 7.37 51 13.987 51h13.727V40.286H21.26L32 29.076l10.741 11.196h-6.455v10.715h14.772c6.054 0 10.942-5.023 10.942-11.17s-4.915-11.143-10.969-11.156z" style="fill:#6194cb;fill-opacity:1;stroke-width:.13392857"/></svg>