<svg width="32" height="32" xmlns="http://www.w3.org/2000/svg"><path d="M29.5 10.395a1.5 1.5 0 0 1 1.493 1.355l.007.145v17a1.5 1.5 0 0 1-1.356 1.493l-.144.007h-27a1.5 1.5 0 0 1-1.493-1.356L1 28.895v-17a1.5 1.5 0 0 1 1.356-1.493l.144-.007h27zm-1.5 3H4v14h24v-14zm-8.4 4.267a1.5 1.5 0 0 1 1.493 1.355l.007.145v2.673a1.5 1.5 0 0 1-1.356 1.493l-.144.007h-7.2a1.5 1.5 0 0 1-1.493-1.356l-.007-.144v-2.6a1.5 1.5 0 0 1 2.993-.145l.007.144v1.1h4.2v-1.172a1.5 1.5 0 0 1 1.356-1.493l.144-.007zM27 5.928a1.5 1.5 0 0 1 .144 2.993L27 8.928H5a1.5 1.5 0 0 1-.144-2.993L5 5.928h22zm-4.435-4.323a1.5 1.5 0 0 1 .144 2.993l-.144.007H9a1.5 1.5 0 0 1-.144-2.993L9 1.605h13.565z" fill="#6288B8" fill-rule="nonzero"/></svg>