<svg xmlns="http://www.w3.org/2000/svg" width="799.186" height="554.136"><path d="M578.983 0c76.01 0 137.627 61.617 137.627 137.627 0 76.01-61.617 137.627-137.627 137.627-76.01 0-137.627-61.617-137.627-137.627C441.356 61.617 502.973 0 578.983 0zm157.655 287.143-61.342-15.335c-64.446 46.354-142.563 36.01-192.626 0l-61.341 15.335c-36.76 9.19-62.55 42.218-62.55 80.11v31.866c0 22.803 18.486 41.288 41.289 41.288h357.83c22.803 0 41.288-18.485 41.288-41.288v-31.865c0-37.893-25.788-70.921-62.548-80.111z" style="fill:#6288b8;fill-opacity:1;stroke-width:.86016947"/><path d="M220.203 0c76.01 0 137.628 61.617 137.628 137.627 0 76.01-61.618 137.627-137.628 137.627-76.01 0-137.627-61.617-137.627-137.627C82.576 61.617 144.194 0 220.203 0zm157.655 287.143-61.341-15.335c-64.447 46.354-142.563 36.01-192.627 0L62.55 287.143C25.789 296.333 0 329.36 0 367.253v31.866c0 22.803 18.485 41.288 41.288 41.288h357.83c22.804 0 41.289-18.485 41.289-41.288v-31.865c0-37.893-25.789-70.921-62.55-80.111z" style="fill:#6288b8;fill-opacity:1;stroke-width:.86016947"/><path d="M412.068 32.136c88.366 0 160 71.634 160 160s-71.634 160-160 160-160-71.634-160-160 71.634-160 160-160zm183.283 333.82-71.313-17.827c-74.923 53.89-165.738 41.864-223.94 0l-71.313 17.828c-42.736 10.684-72.717 49.082-72.717 93.134v37.045c0 26.51 21.49 48 48 48h416c26.51 0 48-21.49 48-48V459.09c0-44.052-29.981-82.45-72.717-93.134z" style="fill:#6288b8;fill-opacity:1;stroke:#fff;stroke-width:20;stroke-miterlimit:4;stroke-dasharray:none;stroke-opacity:1"/></svg>