<svg xmlns="http://www.w3.org/2000/svg" viewBox="0 0 512 512"><path d="M256 0c88.366 0 160 71.634 160 160s-71.634 160-160 160S96 248.366 96 160 167.634 0 256 0zm183.283 333.821-71.313-17.828c-74.923 53.89-165.738 41.864-223.94 0l-71.313 17.828C29.981 344.505 0 382.903 0 426.955V464c0 26.51 21.49 48 48 48h416c26.51 0 48-21.49 48-48v-37.045c0-44.052-29.981-82.45-72.717-93.134z" style="fill:#6288b8"/><path d="M480.88 346.898c-4.887-.703-10.083-5.101-11.597-9.773l-7.258-17.65c-2.277-4.351-1.74-11.144 1.192-15.066l11.799-15.708c2.931-3.933 2.705-10.178-.56-13.848l-12.92-12.944c-3.683-3.241-9.916-3.492-13.873-.536l-15.684 11.775c-3.933 2.956-10.702 3.492-15.064 1.204l-17.64-7.258c-4.707-1.502-9.105-6.698-9.772-11.573l-2.79-19.414c-.678-4.875-5.255-9.273-10.13-9.797 0 0-3.039-.31-9.177-.31-6.125 0-9.165.31-9.165.31-4.886.524-9.463 4.922-10.154 9.797l-2.777 19.414c-.691 4.875-5.089 10.071-9.773 11.573l-17.639 7.258c-4.362 2.276-11.131 1.752-15.064-1.204l-15.708-11.787c-3.933-2.955-10.178-2.717-13.861.537l-12.92 12.943c-3.241 3.682-3.503 9.916-.548 13.849l11.776 15.708c2.967 3.933 3.492 10.714 1.215 15.064l-7.282 17.663c-1.49 4.684-6.698 9.082-11.572 9.773l-19.415 2.753c-4.863.703-9.26 5.268-9.773 10.166 0 0-.322 3.04-.322 9.177 0 6.138.322 9.177.322 9.177.513 4.898 4.91 9.451 9.773 10.154l19.415 2.765c4.862.704 10.082 5.101 11.572 9.773l7.282 17.64c2.277 4.35 1.74 11.154-1.215 15.064l-11.776 15.708c-2.955 3.933-3.67 9.284-1.573 11.846 2.086 2.587 8.069 8.963 8.08 8.987.013.024 2.039 1.859 4.47 4.1 2.431 2.24 12.419 5.35 16.352 2.419l15.696-11.799c3.933-2.932 10.703-3.492 15.065-1.192l17.638 7.258c4.696 1.49 9.094 6.698 9.773 11.573l2.777 19.414c.691 4.863 5.256 9.285 10.155 9.797 0 0 3.039.322 9.165.322 6.137 0 9.177-.322 9.177-.322 4.874-.512 9.45-4.934 10.13-9.797l2.789-19.414c.68-4.863 5.077-10.083 9.773-11.573l17.639-7.282c4.35-2.276 11.131-1.74 15.064 1.216l15.708 11.799c3.957 2.932 10.178 2.705 13.873-.56l12.895-12.92c3.254-3.706 3.493-9.94.56-13.872l-11.798-15.708c-2.932-3.91-3.469-10.703-1.192-15.065l7.258-17.639c1.514-4.684 6.698-9.081 11.596-9.773l19.391-2.765c4.887-.703 9.284-5.256 9.797-10.154 0 0 .322-3.04.322-9.177 0-6.138-.322-9.177-.322-9.177-.513-4.886-4.91-9.463-9.797-10.166zm-113.474 57.85c-19.748 0-35.754-16.017-35.754-35.754 0-19.748 16.006-35.754 35.755-35.754 19.748 0 35.754 16.018 35.754 35.754 0 19.737-16.018 35.755-35.755 35.755z" style="fill:#8b62b8"/></svg>