<svg xmlns="http://www.w3.org/2000/svg" viewBox="0 0 512 512"><path d="M256 0c88.366 0 160 71.634 160 160s-71.634 160-160 160S96 248.366 96 160 167.634 0 256 0zm183.283 333.821-71.313-17.828c-74.923 53.89-165.738 41.864-223.94 0l-71.313 17.828C29.981 344.505 0 382.903 0 426.955V464c0 26.51 21.49 48 48 48h416c26.51 0 48-21.49 48-48v-37.045c0-44.052-29.981-82.45-72.717-93.134z" style="fill:#6288b8"/><path d="M477.35 326.941h-16.824v-33.647c0-37.096-30.182-67.294-67.294-67.294-37.113 0-67.294 30.198-67.294 67.294v33.647h-16.824c-18.556 0-33.647 15.074-33.647 33.647v117.765c0 18.573 15.09 33.647 33.647 33.647h168.235c18.557 0 33.647-15.074 33.647-33.647V360.588c0-18.573-15.09-33.647-33.647-33.647zM393.231 466.56c-12.096 0-21.87-9.758-21.87-21.854s9.774-21.888 21.87-21.888c12.096 0 21.87 9.792 21.87 21.888 0 12.096-9.774 21.854-21.87 21.854zm33.647-122.795h-67.294v-50.47c0-18.574 15.09-33.648 33.647-33.648 18.556 0 33.647 15.074 33.647 33.647z" style="fill:#8b62b8"/></svg>