<svg xmlns="http://www.w3.org/2000/svg" viewBox="0 0 512 512"><path style="fill:#6288b8" d="M256 0C167.634 0 96 71.634 96 160c0 57.174 29.994 107.334 75.1 135.629a150.338 146.503 0 0 1 148.752-126.492 150.338 146.503 0 0 1 91.246 30.299A160.303 160.303 0 0 0 416 160C416 71.634 344.366 0 256 0zM144.03 315.992 72.716 333.82C29.98 344.504 0 382.903 0 426.955V464c0 26.51 21.49 48 48 48h416c26.51 0 48-21.49 48-48v-37.045c0-33.74-17.6-64.145-45.035-81.34a150.338 146.503 0 0 1-147.113 116.528 150.338 146.503 0 0 1-149.227-130.245c-9.428-4.634-18.341-9.969-26.596-15.906z"/><path d="M316.813 128.63c-30.83.661-61.794 8.785-90.092 25.071-90.553 52.115-122.12 169.591-68.771 261.704 53.35 92.112 171.191 123.6 261.745 71.485 90.552-52.116 122.14-169.605 68.79-261.717-36.678-63.328-103.847-97.994-171.672-96.542zm9.584 58.38c45.132 1.048 88.394 25.01 112.532 66.686 24.956 43.09 23.21 94.34-.636 134.454L260.858 202.56c20.952-11.058 43.464-16.062 65.539-15.55zm-93.49 35.106a134.782 134.782 0 0 0-16.406 17.88l181.555 190.561c-2.615 1.757-5.278 3.467-8.054 5.064-64.55 37.15-145.714 14.775-182.496-48.733-31.862-55.014-20.233-123.33 25.401-164.772z" style="fill:#b86262"/></svg>