<svg width="32" height="32" xmlns="http://www.w3.org/2000/svg"><g fill="#6288B8" fill-rule="nonzero"><path d="M8.756 6.316c.18 1.005.564 1.853 1.163 2.533.227.257.476.482.745.674l.792 2.587a1 1 0 0 1-.685 1.255C2.271 15.761.016 21.55 3.345 26.047l.124.162c-1.01-3.835 1.594-7.268 8.07-9.203l.357-.104a1 1 0 0 1 1.23.67l.965 3.157 5.137-7.948-5.654-2.414c.832-.009 1.595-.172 2.278-.495l.24-.122.23-.133c.079-.05.155-.1.23-.154l4.553 1.944a1 1 0 0 1 .447 1.463L14.603 23.62a1 1 0 0 1-1.796-.25l-1.303-4.26-.353.116c-5.58 1.9-6.923 4.719-5.16 7.896l.098.174.153.25c.05.077.1.155.144.22l.163.23.182.24.17.214.189.222.205.227.305.317.31.296.218.197.242.207c.888.758-.022 2.164-1.077 1.664C-2.945 26.735-2.81 15.793 9.09 11.791l.16-.053-1.267-4.146a1.002 1.002 0 0 1 .75-1.273z"/><path d="M13.482.096c1.092 0 1.982.291 2.66.878.426.37.737.827.932 1.368l.076.236.02-.192c.055-.382.201-.73.438-1.04.304-.4.73-.708 1.275-.925.534-.213 1.132-.32 1.792-.32.647 0 1.232.117 1.752.35.528.238.943.58 1.239 1.025.052.078.1.16.143.242l-.391-1.17a.25.25 0 0 1 .175-.322l.062-.007h2.279a.25.25 0 0 1 .216.123l.025.061 1.452 5.327L29.085.403a.25.25 0 0 1 .117-.15l.06-.026.065-.008h2.296c.15 0 .261.128.25.269l-.013.06-2.87 8.532a.25.25 0 0 1-.175.162l-.063.008h-2.25a.25.25 0 0 1-.21-.114l-.027-.057-2.193-6.577c.027.16.04.327.04.498a.25.25 0 0 1-.193.243l-.057.007h-2.05a.25.25 0 0 1-.24-.175l-.01-.064-.006-.132c-.02-.218-.097-.381-.231-.502-.164-.147-.392-.223-.697-.223-.317 0-.554.067-.719.192a.497.497 0 0 0-.22.42c0 .133.075.261.252.395.18.137.502.287.958.444l.498.167c.475.166.877.344 1.207.535.997.574 1.508 1.387 1.508 2.414 0 .823-.317 1.483-.943 1.957-.61.462-1.434.69-2.465.69-.725 0-1.386-.132-1.98-.394-.602-.267-1.062-.637-1.373-1.111a2.769 2.769 0 0 1-.301-.612 3.023 3.023 0 0 1-.288.569 3.15 3.15 0 0 1-1.337 1.148c-.564.267-1.205.4-1.92.4-1.19 0-2.142-.395-2.836-1.181-.64-.725-.979-1.716-1.024-2.966l-.005-.293V4.5l.007-.314c.033-.74.184-1.4.453-1.98.31-.67.762-1.192 1.35-1.56.589-.367 1.267-.55 2.032-.55zm0 2.111c-.429 0-.722.15-.913.456-.189.303-.302.796-.33 1.47l-.007.232v.6l.003.262c.02.734.125 1.259.305 1.567.18.308.49.462.965.462.416 0 .719-.093.918-.27.193-.172.301-.461.315-.883a.25.25 0 0 1 .184-.233l.066-.009h2.044a.25.25 0 0 1 .215.123h1.951a.25.25 0 0 1 .24.177l.01.065.005.157c.022.314.113.535.269.678.182.167.507.26.982.26.29 0 .507-.06.657-.171.132-.098.194-.23.194-.418 0-.226-.073-.387-.224-.506-.162-.128-.451-.27-.863-.417l-.184-.064c-.545-.183-.992-.361-1.343-.534-.873-.43-1.436-.992-1.671-1.68a.242.242 0 0 1-.164.129l-.056.006H15a.25.25 0 0 1-.238-.172l-.012-.063-.011-.18c-.034-.366-.137-.619-.302-.77-.194-.179-.509-.274-.955-.274z"/></g></svg>