<svg width="32" height="32" xmlns="http://www.w3.org/2000/svg"><g fill="#6288B8" fill-rule="nonzero"><path d="m10.132 9.021.188.182c.106.097.216.187.329.271l.807 2.636a1 1 0 0 1-.685 1.255C2.271 15.761.016 21.55 3.345 26.047l.124.162c-1.01-3.835 1.594-7.268 8.07-9.203l.357-.104a1 1 0 0 1 1.23.67l.965 3.157 5.137-7.948-5.652-2.414c.85-.002 1.629-.165 2.324-.494.225.231.54.377.894.377h1.6l2.711 1.157a1 1 0 0 1 .507 1.357l-.06.106-6.949 10.751a1 1 0 0 1-1.796-.25l-1.303-4.26-.353.116c-5.58 1.9-6.923 4.719-5.16 7.896l.098.174.153.25c.05.077.1.155.144.22l.163.23.182.24.17.214.189.222.205.227.305.317.31.296.218.197.242.207c.888.758-.022 2.164-1.077 1.664C-2.945 26.735-2.81 15.793 9.09 11.791l.16-.053-.532-1.745c.334-.135.64-.307.92-.518l.172-.139.16-.146c.052-.05.102-.102.15-.155l.012-.014z"/><path d="M13.533.096c1.092 0 1.982.291 2.66.878.68.59 1.066 1.4 1.157 2.42a.25.25 0 0 1-.188.265l-.06.007H15.05a.25.25 0 0 1-.237-.172l-.012-.063-.01-.18c-.034-.366-.138-.619-.303-.77-.193-.179-.509-.274-.955-.274-.429 0-.722.15-.913.456-.189.303-.302.796-.33 1.47l-.007.232v.6l.003.262c.02.734.125 1.259.305 1.567.18.308.49.462.965.462.416 0 .719-.093.918-.27.193-.172.301-.461.315-.883a.25.25 0 0 1 .185-.233l.065-.009h2.045a.25.25 0 0 1 .246.21l.003.06-.02.259a3.293 3.293 0 0 1-.5 1.43 3.15 3.15 0 0 1-1.337 1.148c-.564.267-1.204.4-1.92.4-1.19 0-2.142-.395-2.836-1.181a3.797 3.797 0 0 1-.75-1.33c-.03.76-.345 1.373-.936 1.82-.61.463-1.435.69-2.466.69-.725 0-1.385-.13-1.979-.393-.602-.267-1.062-.637-1.373-1.111a2.906 2.906 0 0 1-.466-1.629.25.25 0 0 1 .193-.243L3 5.984h2.063a.25.25 0 0 1 .239.177l.01.065.005.157c.022.314.114.535.269.678.183.167.508.26.982.26.29 0 .507-.06.657-.171.132-.098.195-.23.195-.418 0-.226-.073-.387-.224-.506-.162-.128-.452-.27-.863-.417l-.184-.064c-.545-.183-.993-.361-1.343-.534C3.62 4.629 3.008 3.8 3.008 2.748c0-.527.155-.997.464-1.402.304-.4.731-.708 1.275-.925C5.282.208 5.88.101 6.54.101c.648 0 1.232.117 1.752.35.528.238.943.58 1.24 1.025.242.364.386.77.43 1.217l.082-.233.108-.254c.31-.67.762-1.192 1.35-1.56.589-.367 1.267-.55 2.032-.55zm8.324.123a.25.25 0 0 1 .206.108l.028.055L24.78 7.66V.469a.25.25 0 0 1 .193-.244L25.03.22h3.363l.275.006c.933.039 1.684.277 2.247.721.633.499.951 1.207.951 2.1 0 .638-.131 1.175-.397 1.608-.167.272-.391.51-.671.714l-.175.118-.159.093 1.667 3.218.028.115V9a.25.25 0 0 1-.193.243l-.057.007h-2.203a.25.25 0 0 1-.193-.091l-.03-.047-1.438-2.874h-.709V9a.25.25 0 0 1-.13.22l-.062.023-.057.007H22.8a.25.25 0 0 1-.212-.117l-.027-.058-.443-1.419h-2.45l-.438 1.418a.25.25 0 0 1-.116.144l-.059.024-.064.008h-2.197a.25.25 0 0 1-.249-.275l.014-.061L19.69.383a.25.25 0 0 1 .173-.157l.061-.007h1.934zm-.967 3.484-.576 1.865h1.156l-.58-1.865zM6.492 2.154c-.316 0-.553.067-.718.192a.497.497 0 0 0-.221.42c0 .133.076.261.252.395.181.137.502.287.958.444l.498.167c.476.166.878.344 1.208.535.586.338 1.004.758 1.25 1.256a6.441 6.441 0 0 1-.025-.418L9.69 4.5l.007-.314c.015-.335.054-.653.117-.955l-.031.012-.057.007H7.676a.25.25 0 0 1-.239-.175l-.011-.064-.006-.132c-.02-.218-.097-.381-.23-.502-.164-.147-.393-.223-.698-.223zm21.895.153-1.051-.001V4.15h1.052c.327 0 .556-.08.701-.23.15-.155.226-.38.226-.686 0-.306-.078-.532-.23-.691-.126-.133-.311-.212-.565-.231l-.133-.005z"/></g></svg>