<svg width="32" height="32" xmlns="http://www.w3.org/2000/svg"><path d="M18.455 1.356 30.468 11.48a1.5 1.5 0 0 1 0 2.294L18.455 23.9l-.103.08c-.973.693-2.364.005-2.364-1.227v-5.19l-.067.003c-4.906.143-7.623 1.508-8.536 3.66-.83 1.956-.206 4.79 1.54 7.455.965 1.475-.963 3.118-2.266 1.93C1.9 26.277-.099 20.467 1.594 15.644l.099-.27c1.802-4.715 6.809-7.58 14.131-7.813l.165-.004V2.503c0-1.276 1.49-1.97 2.466-1.147zm8.72 11.272L18.99 5.727v3.325a1.5 1.5 0 0 1-1.533 1.5c-7.206-.159-11.676 2.225-13.031 6.085l-.083.251c-.42 1.35-.447 2.834-.105 4.353l.01-.05c.095-.39.22-.768.376-1.136 1.57-3.703 5.917-5.633 12.895-5.494l.143.01a1.5 1.5 0 0 1 1.327 1.49v3.467l8.188-6.9z" fill="#6288B8" fill-rule="nonzero"/></svg>