<svg xmlns="http://www.w3.org/2000/svg" viewBox="0 0 155 155"><path d="M152.477 93.646q0 .504-.1.706-6.459 27.045-27.045 43.846Q104.746 155 77.096 155q-14.733 0-28.507-5.55-13.775-5.55-24.572-15.843l-13.018 13.017q-1.917 1.918-4.54 1.918-2.624 0-4.542-1.918Q0 144.707 0 142.084V96.874q0-2.624 1.917-4.541 1.918-1.917 4.541-1.917h45.209q2.623 0 4.54 1.917 1.918 1.917 1.918 4.541 0 2.624-1.917 4.541l-13.825 13.825q7.164 6.66 16.247 10.293 9.082 3.633 18.87 3.633 13.522 0 25.228-6.56 11.706-6.559 18.77-18.063 1.11-1.715 5.348-11.806.807-2.321 3.027-2.321h19.375q1.312 0 2.27.958.96.959.96 2.27zM155 12.916v45.209q0 2.624-1.917 4.541-1.918 1.917-4.541 1.917h-45.209q-2.623 0-4.54-1.917-1.918-1.917-1.918-4.541 0-2.624 1.917-4.541l13.926-13.926Q97.783 25.833 77.5 25.833q-13.522 0-25.228 6.56-11.706 6.559-18.77 18.063-1.11 1.715-5.348 11.806-.807 2.321-3.027 2.321H5.046q-1.312 0-2.271-.958-.959-.959-.959-2.27v-.707q6.56-27.044 27.246-43.846Q49.75 0 77.5 0q14.733 0 28.659 5.6 13.926 5.601 24.723 15.793l13.119-13.017q1.917-1.918 4.54-1.918 2.624 0 4.542 1.918Q155 10.293 155 12.916z" style="fill:#62b880"/></svg>