<svg width="32" height="32" xmlns="http://www.w3.org/2000/svg"><path d="M16.23.5c8.686 0 15.728 7.042 15.728 15.73 0 8.686-7.042 15.728-15.729 15.728S.5 24.916.5 16.23 7.542.5 16.23.5zm9.89 7.716-.045.13a1.49 1.49 0 0 1-.225.384l-.103.114L8.428 26.29a12.674 12.674 0 0 0 7.801 2.67c7.03 0 12.73-5.7 12.73-12.73 0-3.036-1.064-5.825-2.838-8.013zM16.23 3.5C9.2 3.5 3.5 9.2 3.5 16.23c0 3.009 1.045 5.775 2.79 7.954L23.619 6.73c.184-.185.404-.312.637-.38A12.674 12.674 0 0 0 16.23 3.5z" fill="#B86262" fill-rule="nonzero"/></svg>