<svg width="32" height="32" xmlns="http://www.w3.org/2000/svg"><path d="M15.741.11c8.633 0 15.632 6.998 15.632 15.631s-6.999 15.632-15.632 15.632S.11 24.374.11 15.741 7.108.11 15.74.11zm0 3C8.765 3.11 3.11 8.765 3.11 15.74c0 6.977 5.655 12.632 12.631 12.632 6.977 0 12.632-5.655 12.632-12.632 0-6.976-5.655-12.631-12.632-12.631zm7.556 4.513a4.465 4.465 0 0 1 .158 6.148l-.158.166-3.067 3.067a1.5 1.5 0 0 1-1.6.34 4.435 4.435 0 0 1-1.104 2.356l-.158.167-3.43 3.43a4.465 4.465 0 0 1-6.473-6.147l.158-.167 3.082-3.081a1.5 1.5 0 0 1 1.589-.344 4.43 4.43 0 0 1 1.1-2.338l.159-.166 3.43-3.43a4.465 4.465 0 0 1 6.314 0zM12.69 16.158l-2.946 2.946a1.465 1.465 0 0 0 1.96 2.172l.111-.1 3.43-3.43c.047-.047.09-.096.129-.147a1.5 1.5 0 0 1-1.822-.231 4.458 4.458 0 0 1-.862-1.21zm6.525-6.514-.112.1-2.996 2.996c.175.036.347.104.506.206a4.475 4.475 0 0 1 1.616 1.817l2.946-2.947a1.465 1.465 0 0 0-1.96-2.172z" fill="#B89A62" fill-rule="nonzero"/></svg>