<svg xmlns="http://www.w3.org/2000/svg" viewBox="0 0 285.35 286"><path d="M137.9.033c-22.997.492-46.095 6.552-67.203 18.7C3.151 57.608-20.397 145.237 19.398 213.946c39.796 68.71 127.698 92.198 195.244 53.324 67.546-38.875 91.108-126.514 51.314-195.223C238.596 24.809 188.492-1.051 137.899.033zm7.148 43.547c33.666.781 65.936 18.655 83.942 49.743 18.616 32.141 17.313 70.37-.474 100.293L96.16 55.178c15.629-8.248 32.421-11.98 48.888-11.598zM75.312 69.766a100.536 100.536 0 0 0-12.238 13.337L198.5 225.25c-1.95 1.31-3.937 2.586-6.008 3.778-48.149 27.711-108.692 11.02-136.129-36.352-23.767-41.037-15.092-91.995 18.948-122.909z" style="fill:#62b880"/></svg>