<svg xmlns="http://www.w3.org/2000/svg" viewBox="0 0 235.529 286"><path d="M201.882 100.941H185.06V67.294C185.059 30.198 154.877 0 117.765 0 80.652 0 50.47 30.198 50.47 67.294v33.647H33.647C15.091 100.941 0 116.015 0 134.588v117.765C0 270.926 15.09 286 33.647 286h168.235c18.557 0 33.647-15.074 33.647-33.647V134.588c0-18.573-15.09-33.647-33.647-33.647zM117.765 240.56c-12.096 0-21.87-9.758-21.87-21.854s9.774-21.888 21.87-21.888c12.096 0 21.87 9.792 21.87 21.888 0 12.096-9.774 21.854-21.87 21.854zm33.647-122.795H84.118v-50.47c0-18.574 15.09-33.648 33.647-33.648 18.556 0 33.647 15.074 33.647 33.647z" style="fill:#8b62b8"/></svg>