<svg xmlns="http://www.w3.org/2000/svg" viewBox="0 0 285.952 286"><path d="M256.455 120.898c-4.887-.703-10.083-5.101-11.596-9.773l-7.259-17.65c-2.276-4.351-1.74-11.144 1.192-15.066l11.8-15.708c2.931-3.933 2.705-10.178-.561-13.849l-12.92-12.943c-3.682-3.241-9.915-3.492-13.872-.536l-15.684 11.775c-3.933 2.956-10.703 3.492-15.065 1.204l-17.639-7.258c-4.707-1.502-9.105-6.698-9.773-11.573l-2.789-19.414C161.61 5.232 157.034.834 152.16.31c0 0-3.039-.31-9.177-.31-6.126 0-9.165.31-9.165.31-4.886.524-9.463 4.922-10.154 9.797l-2.777 19.414c-.691 4.875-5.09 10.071-9.773 11.573l-17.639 7.258c-4.362 2.276-11.131 1.752-15.064-1.204L62.7 35.361c-3.933-2.955-10.178-2.717-13.86.537L35.92 48.84c-3.241 3.682-3.504 9.916-.548 13.849l11.775 15.708c2.968 3.933 3.492 10.714 1.216 15.064l-7.282 17.663c-1.49 4.684-6.698 9.081-11.573 9.773l-19.414 2.753c-4.863.703-9.26 5.268-9.773 10.166 0 0-.322 3.04-.322 9.177 0 6.138.322 9.177.322 9.177.512 4.898 4.91 9.451 9.773 10.154l19.414 2.765c4.863.703 10.083 5.101 11.573 9.773l7.282 17.64c2.276 4.35 1.74 11.154-1.216 15.064l-11.775 15.708c-2.956 3.933-3.67 9.284-1.573 11.846 2.086 2.587 8.069 8.963 8.08 8.987.012.024 2.038 1.859 4.47 4.1 2.431 2.24 12.418 5.35 16.351 2.419l15.697-11.799c3.933-2.932 10.702-3.492 15.064-1.192l17.64 7.258c4.695 1.49 9.093 6.698 9.772 11.573l2.777 19.414c.691 4.863 5.256 9.285 10.154 9.797 0 0 3.04.322 9.165.322 6.138 0 9.177-.322 9.177-.322 4.875-.512 9.451-4.934 10.13-9.797l2.79-19.414c.679-4.863 5.077-10.083 9.772-11.573l17.64-7.282c4.35-2.276 11.13-1.74 15.064 1.216l15.708 11.799c3.957 2.932 10.178 2.705 13.873-.56l12.895-12.92c3.254-3.706 3.492-9.94.56-13.872l-11.799-15.708c-2.932-3.91-3.468-10.703-1.191-15.065l7.258-17.639c1.513-4.684 6.698-9.082 11.596-9.773l19.39-2.765c4.887-.703 9.285-5.256 9.798-10.154 0 0 .321-3.04.321-9.177 0-6.138-.321-9.177-.321-9.177-.513-4.886-4.91-9.463-9.797-10.166zm-113.473 57.85c-19.748 0-35.754-16.017-35.754-35.754 0-19.748 16.006-35.754 35.754-35.754 19.749 0 35.755 16.018 35.755 35.754 0 19.737-16.018 35.755-35.755 35.755z" style="fill:#8b62b8"/></svg>