<svg width="12" height="12" xmlns="http://www.w3.org/2000/svg"><g fill-rule="nonzero" fill="none"><path d="M11 10.25a.75.75 0 0 1 .102 1.493L11 11.75H1a.75.75 0 0 1-.102-1.493L1 10.25h10zM3.446.397 3.53.47l2 2a.75.75 0 0 1-.976 1.133L4.47 3.53l-.72-.719V8.4a.75.75 0 0 1-1.493.102L2.25 8.4V2.81l-.72.72a.75.75 0 0 1-.976.073L.47 3.53a.75.75 0 0 1-.073-.976L.47 2.47l2-2a.75.75 0 0 1 .976-.073z" fill="#62B880"/><path d="M11 6.983a.75.75 0 0 1 .102 1.493L11 8.483H6a.75.75 0 0 1-.102-1.493L6 6.983h5zm0-3.266a.75.75 0 0 1 .102 1.493L11 5.217H9a.75.75 0 0 1-.102-1.493L9 3.717h2z" fill="#B4B4B4"/></g></svg>