<svg xmlns="http://www.w3.org/2000/svg" width="350" height="256"><path d="M218.354 206.975c7.666 0 13.88 6.215 13.88 13.88 0 7.028-5.221 12.836-11.996 13.755l-1.884.127H33.274c-7.666 0-13.88-6.215-13.88-13.881 0-7.028 5.222-12.835 11.997-13.754l1.884-.127zM78.549 24.617l1.557 1.344 37.016 37.016c5.42 5.42 5.42 14.21 0 19.63-4.928 4.929-12.64 5.377-18.074 1.345l-1.557-1.344-13.32-13.314v103.441c0 7.666-6.214 13.881-13.88 13.881-7.028 0-12.836-5.222-13.755-11.997l-.127-1.884V69.275L43.09 82.609c-4.927 4.928-12.639 5.376-18.073 1.344l-1.557-1.344c-4.928-4.929-5.376-12.64-1.344-18.074l1.344-1.557L60.475 25.96c4.928-4.928 12.64-5.376 18.074-1.344z" fill="#62b880" style="fill-rule:nonzero;stroke:none;stroke-width:18.5079"/><path d="M231.245 55.12c49.492 0 89.613 40.121 89.613 89.613s-40.121 89.613-89.613 89.613-89.613-40.121-89.613-89.613 40.121-89.613 89.613-89.613zm0 26.884c-34.644 0-62.73 28.085-62.73 62.729s28.086 62.73 62.73 62.73 62.73-28.086 62.73-62.73-28.086-62.73-62.73-62.73zm0 13.442c6.805 0 12.43 5.057 13.32 11.618l.122 1.824v22.385l22.403.018c7.424 0 13.442 6.018 13.442 13.442 0 6.805-5.057 12.43-11.618 13.32l-1.824.122-22.403-.018v22.421c0 7.424-6.018 13.442-13.442 13.442-6.805 0-12.43-5.057-13.32-11.618l-.122-1.824v-22.403H195.4c-7.424 0-13.442-6.018-13.442-13.442 0-6.805 5.057-12.43 11.618-13.32l1.824-.122h22.403v-22.403c0-7.424 6.018-13.442 13.442-13.442z" fill="#b89a62" fill-rule="nonzero"/></svg>