<svg xmlns="http://www.w3.org/2000/svg" width="350" height="256"><path fill-rule="nonzero" fill="#b89a62" d="M241.245 55.12c49.491 0 89.612 40.121 89.612 89.613s-40.12 89.613-89.612 89.613-89.613-40.121-89.613-89.613 40.12-89.613 89.613-89.613zm0 26.884c-34.645 0-62.73 28.085-62.73 62.729s28.085 62.729 62.73 62.729c34.644 0 62.729-28.085 62.729-62.729s-28.085-62.729-62.73-62.729zm35.845 49.287c7.423 0 13.442 6.018 13.442 13.442 0 6.805-5.057 12.43-11.618 13.32l-1.824.122H205.4c-7.424 0-13.442-6.018-13.442-13.442 0-6.805 5.056-12.43 11.618-13.32l1.823-.122z"/><path style="stroke:none;stroke-width:.0703653" d="M209.333 43.685c7.355 0 13.317-5.962 13.317-13.317 0-6.742-5.01-12.314-11.51-13.195l-1.807-.122H31.773c-7.355 0-13.318 5.962-13.318 13.317 0 6.742 5.01 12.314 11.51 13.196l1.808.121zM75.208 218.635l1.493-1.29 35.512-35.512c5.201-5.2 5.201-13.632 0-18.833-4.727-4.728-12.126-5.158-17.34-1.29L93.38 163l-12.778 12.773v-99.24c0-7.354-5.963-13.316-13.317-13.316-6.742 0-12.314 5.01-13.196 11.51l-.121 1.807v99.256L41.189 163c-4.728-4.728-12.126-5.158-17.34-1.29L22.357 163c-4.728 4.728-5.158 12.126-1.29 17.34l1.29 1.493 35.512 35.512c4.728 4.728 12.126 5.158 17.34 1.29z" fill="#8b62b8"/></svg>