<svg width="12" height="12" xmlns="http://www.w3.org/2000/svg"><g fill="none" fill-rule="nonzero"><path d="M10.95 1.7a.75.75 0 0 0 .102-1.493L10.95.2h-10a.75.75 0 0 0-.102 1.493L.95 1.7h10zm-7.554 9.853.084-.073 2-2a.75.75 0 0 0-.976-1.133l-.084.073-.72.719V3.55a.75.75 0 0 0-1.493-.102L2.2 3.55v5.59l-.72-.72a.75.75 0 0 0-.976-.073L.42 8.42a.75.75 0 0 0-.073.976l.073.084 2 2a.75.75 0 0 0 .976.073z" fill="#8B62B8"/><path d="M10.95 4.967a.75.75 0 0 0 .102-1.493l-.102-.007h-5a.75.75 0 0 0-.102 1.493l.102.007h5zm0 3.266a.75.75 0 0 0 .102-1.493l-.102-.007h-2a.75.75 0 0 0-.102 1.493l.102.007h2z" fill="#B4B4B4"/></g></svg>