<svg xmlns="http://www.w3.org/2000/svg" height="256" width="350"><path fill="#8b62b8" d="M209.333 43.685c7.355 0 13.317-5.962 13.317-13.317 0-6.742-5.01-12.314-11.51-13.195l-1.807-.122H31.773c-7.355 0-13.318 5.962-13.318 13.317 0 6.742 5.01 12.314 11.51 13.196l1.808.121zM75.208 218.635l1.493-1.29 35.512-35.512c5.201-5.2 5.201-13.632 0-18.833-4.727-4.728-12.126-5.158-17.34-1.29L93.38 163l-12.778 12.773v-99.24c0-7.354-5.963-13.316-13.317-13.316-6.742 0-12.314 5.01-13.196 11.51l-.121 1.807v99.256L41.189 163c-4.728-4.728-12.126-5.158-17.34-1.29L22.357 163c-4.728 4.728-5.158 12.126-1.29 17.34l1.29 1.493 35.512 35.512c4.728 4.728 12.126 5.158 17.34 1.29z" style="stroke:none;stroke-width:.0703653"/><path fill-rule="nonzero" fill="#b89a62" d="M231.245 55.12c49.492 0 89.613 40.121 89.613 89.613s-40.121 89.613-89.613 89.613-89.613-40.121-89.613-89.613 40.121-89.613 89.613-89.613zm0 26.884c-34.644 0-62.73 28.085-62.73 62.729s28.086 62.73 62.73 62.73 62.73-28.086 62.73-62.73-28.086-62.73-62.73-62.73zm0 13.442c6.805 0 12.43 5.057 13.32 11.618l.122 1.824v22.385l22.403.018c7.424 0 13.442 6.018 13.442 13.442 0 6.805-5.057 12.43-11.618 13.32l-1.824.122-22.403-.018v22.421c0 7.424-6.018 13.442-13.442 13.442-6.805 0-12.43-5.057-13.32-11.618l-.122-1.824v-22.403H195.4c-7.424 0-13.442-6.018-13.442-13.442 0-6.805 5.057-12.43 11.618-13.32l1.824-.122h22.403v-22.403c0-7.424 6.018-13.442 13.442-13.442z"/></svg>