<svg width="12" height="12" xmlns="http://www.w3.org/2000/svg"><path d="M2.047 7.598c.38 0 .695.28.744.642l.007.101v1.12l.098-.084a.757.757 0 0 1 .978.072c.267.264.291.677.073.968l-.073.083-1.296 1.282-.084.072a.758.758 0 0 1-.884.007l-.094-.079L.22 10.5l-.073-.083a.737.737 0 0 1-.007-.875l.08-.093.084-.072a.758.758 0 0 1 .884-.007l.108.093V8.34c0-.41.336-.743.751-.743zm9.202 2.788c.415 0 .751.332.751.743a.746.746 0 0 1-.65.736l-.101.007H6.065a.747.747 0 0 1-.751-.743c0-.376.282-.687.649-.737l.102-.006h5.184zm0-2.565c.415 0 .751.333.751.743a.746.746 0 0 1-.65.737l-.101.006H5.093a.747.747 0 0 1-.751-.743c0-.376.282-.687.649-.736l.102-.007h6.156zm0-2.564c.415 0 .751.333.751.743a.746.746 0 0 1-.65.736l-.101.007H.88A.747.747 0 0 1 .13 6c0-.376.282-.687.649-.736l.102-.007h10.368zM2.494.146l.084.072L3.874 1.5c.294.29.294.76 0 1.05a.757.757 0 0 1-.978.073l-.098-.086V3.66l-.007.1a.749.749 0 0 1-.744.643.749.749 0 0 1-.744-.642l-.007-.101V2.536l-.014.015a.757.757 0 0 1-.978.072L.22 2.55a.737.737 0 0 1-.073-.968L.22 1.5 1.516.218a.757.757 0 0 1 .978-.072zm8.755 2.547c.415 0 .751.332.751.743a.746.746 0 0 1-.65.736l-.101.007H5.093a.747.747 0 0 1-.751-.743c0-.377.282-.687.649-.737l.102-.006h6.156zm0-2.565c.415 0 .751.333.751.743a.746.746 0 0 1-.65.737l-.101.006H6.065a.747.747 0 0 1-.751-.743c0-.376.282-.687.649-.736l.102-.007h5.184z" fill="#6288b8" fill-rule="nonzero"/></svg>