<svg xmlns="http://www.w3.org/2000/svg" width="350" height="256"><path fill-rule="nonzero" fill="#b89a62" d="M241.245 55.12c49.492 0 89.613 40.121 89.613 89.613s-40.121 89.613-89.613 89.613-89.613-40.121-89.613-89.613 40.121-89.613 89.613-89.613zm0 26.884c-34.644 0-62.73 28.085-62.73 62.729s28.086 62.73 62.73 62.73 62.73-28.086 62.73-62.73-28.086-62.73-62.73-62.73zm0 13.442c6.805 0 12.43 5.057 13.32 11.618l.122 1.824v22.385l22.403.018c7.424 0 13.442 6.018 13.442 13.442 0 6.805-5.057 12.43-11.618 13.32l-1.824.122-22.403-.018v22.421c0 7.424-6.018 13.442-13.442 13.442-6.805 0-12.43-5.057-13.32-11.618l-.122-1.824v-22.403H205.4c-7.424 0-13.442-6.018-13.442-13.442 0-6.805 5.057-12.43 11.618-13.32l1.824-.122h22.403v-22.403c0-7.424 6.018-13.442 13.442-13.442z"/></svg>