<svg xmlns="http://www.w3.org/2000/svg" width="350" height="256"><path fill-rule="nonzero" fill="#b89a62" d="M241.245 55.12c49.491 0 89.612 40.121 89.612 89.613s-40.12 89.613-89.612 89.613-89.613-40.121-89.613-89.613 40.12-89.613 89.613-89.613zm0 26.884c-34.645 0-62.73 28.085-62.73 62.729s28.085 62.729 62.73 62.729c34.644 0 62.729-28.085 62.729-62.729s-28.085-62.729-62.73-62.729zm35.845 49.287c7.423 0 13.442 6.018 13.442 13.442 0 6.805-5.057 12.43-11.618 13.32l-1.824.122H205.4c-7.424 0-13.442-6.018-13.442-13.442 0-6.805 5.056-12.43 11.618-13.32l1.823-.122z"/></svg>