<svg xmlns="http://www.w3.org/2000/svg" xml:space="preserve" width="16" version="1.2" height="13.5"><g style="font-style:normal;font-weight:400;font-size:20.5167px;line-height:1.25;font-family:sans-serif;letter-spacing:0;word-spacing:0;fill:#6288b8;fill-opacity:1;stroke:none;stroke-width:.999995" aria-label="?"><path style="font-style:normal;font-variant:normal;font-weight:700;font-stretch:normal;font-family:'Frank Ruehl CLM';-inkscape-font-specification:'Frank Ruehl CLM Bold';fill:#6288b8;fill-opacity:1;stroke-width:.999995" d="M6.024 11.23 7.17 9.535c.102-.148.182-.222.239-.222.057 0 .137.074.24.222l1.145 1.693a.53.53 0 0 1 0 .65L7.648 13.57c-.102.149-.182.223-.239.223-.057 0-.137-.074-.24-.223L6.025 11.88c-.08-.137-.12-.245-.12-.325 0-.091.04-.2.12-.325zm1.59-5.806c.342-.388.587-.758.735-1.111.16-.354.24-.758.24-1.214 0-.593-.149-1.06-.445-1.402-.285-.354-.615-.485-.991-.394a.603.603 0 0 0-.257.137c-.046.057-.068.143-.068.257 0 .114.005.228.017.342.023.114.045.279.068.495.023.206.034.405.034.599 0 .399-.136.73-.41.992-.274.25-.627.376-1.06.376-.467 0-.855-.148-1.163-.445a1.555 1.555 0 0 1-.461-1.145c0-.787.359-1.425 1.077-1.915C5.648.494 6.57.243 7.7.243c1.196 0 2.142.274 2.838.821.706.547 1.06 1.288 1.06 2.223 0 .798-.308 1.487-.923 2.069-.263.239-.605.49-1.026.752-.41.262-.792.524-1.146.786a3.498 3.498 0 0 0-.855.89c-.09.113-.16.176-.205.187-.045 0-.102-.057-.17-.17l-.394-.65a.5.5 0 0 1-.068-.393c.08-.377.347-.821.803-1.334z" transform="scale(1.03083 .9701)"/></g></svg>