<svg xmlns="http://www.w3.org/2000/svg" viewBox="0 0 448 512"><path d="M108.615 5.932 92.521 65.996H6.176v61.76h69.797l-15.606 58.24H6.176v61.76h37.642L27.092 310.18l59.658 15.986 21.01-78.41h51.97l-16.726 62.424 59.656 15.986 21.01-78.41h97.488v-61.76h-80.94l15.606-58.24h65.334v-61.76h-48.785l11.81-44.08-59.656-15.984-16.093 60.064h-51.971l11.81-44.08-59.658-15.984zm31.3 121.824h51.97l-15.606 58.24h-51.97l15.605-58.24z" style="fill:#b86262"/><path d="m221.639 179.568-16.094 60.065h-86.346v61.762h69.797l-15.605 58.238h-54.192v61.762h37.643l-16.727 62.423 59.656 15.985 21.01-78.408h51.973l-16.727 62.423 59.657 15.985 21.01-78.408h97.488v-61.762h-80.94l15.606-58.238h65.334v-61.762h-48.786l11.811-44.078-59.656-15.987-16.094 60.065h-51.973l11.81-44.078-59.655-15.987zm31.297 121.827h51.972l-15.605 58.238H237.33l15.606-58.238z" style="fill:#62b880"/></svg>