<svg xmlns="http://www.w3.org/2000/svg" viewBox="0 0 448 512"><path style="fill:#6288b8;fill-opacity:1" d="m107.32 139.775-16.094 60.064H4.88v61.76h69.797l-15.605 58.24H4.88v61.76h37.643l-16.727 62.424 59.658 15.986 21.01-78.41h51.97l-16.726 62.424 59.657 15.986 21.01-78.41h97.488v-61.76h-80.94l15.606-58.24h65.334v-61.76h-48.785l11.81-44.08-59.656-15.984-16.094 60.064h-51.97l11.81-44.08zm31.299 121.824h51.97l-15.605 58.24h-51.971z"/><path style="fill:#8b62b8;fill-opacity:1;stroke-width:.614003" d="m307.905 60.758 78.604 78.604L215.823 310.05l-70.082 7.736c-9.382 1.038-17.31-6.895-16.265-16.277l7.797-70.131zm127.221-11.703-36.908-36.908c-11.512-11.512-30.184-11.512-41.696 0L321.8 46.87l78.604 78.605 34.722-34.722c11.513-11.519 11.513-30.185 0-41.697z"/></svg>