<svg xmlns="http://www.w3.org/2000/svg" width="32" height="32"><g fill="#6288b8" fill-rule="nonzero"><path d="M11.032 13H3v16h16v-8.23c0-1.132.727-1.767 1.5-1.77.765-.003 1.5.526 1.5 1.738V30.5a1.5 1.5 0 0 1-1.356 1.493L20.5 32h-19a1.5 1.5 0 0 1-1.493-1.356L0 30.5v-19a1.5 1.5 0 0 1 1.356-1.493L1.5 10h9.682c1.217 0 1.727.976 1.692 1.554-.035.578-.474 1.446-1.842 1.446zM13 17.252l5.26-5.259c-.791.004-1.583 0-2.373-.007a1.5 1.5 0 0 1 0-2.985l.154-.007h5.684l.153.007a1.5 1.5 0 0 1 1.34 1.34l.007.152c-.006 1.99.013 3.98-.008 5.97a1.5 1.5 0 0 1-1.339 1.339l-.153.008-.153-.008a1.5 1.5 0 0 1-1.34-1.339c-.019-.73-.008-1.461-.008-2.192l-5.125 5.086"/><path d="M30.432.063a1.5 1.5 0 0 1 1.493 1.356l.007.144v11a1.5 1.5 0 0 1-1.356 1.493l-.144.007h-5.276v-3h3.776v-8h-8l-.001 3.993h-3V1.563A1.5 1.5 0 0 1 19.288.07l.145-.007z" style="fill:#b86262;fill-opacity:1"/></g></svg>