<svg xmlns="http://www.w3.org/2000/svg" height="32" width="32"><g fill-rule="nonzero" fill="#6288b8"><path d="M10.382 9.999a3.493 3.493 0 0 0-1.105 2.214l-.008.101-.01.254-.001.432H3v16h16v-6.194h.496l.255-.01.1-.008a3.489 3.489 0 0 0 2.15-1.037L22 30.5a1.5 1.5 0 0 1-1.356 1.493L20.5 32h-19a1.5 1.5 0 0 1-1.493-1.355L0 30.5v-19a1.5 1.5 0 0 1 1.356-1.493L1.5 10z"/><path style="fill:#62b880;fill-opacity:1" d="M30.5 0a1.5 1.5 0 0 1 1.493 1.356L32 1.5v11a1.5 1.5 0 0 1-1.356 1.493L30.5 14H20.028l-3.804 3.806h3.272l.154.008a1.5 1.5 0 0 1 0 2.984l-.154.008H12.76l-.154-.008a1.5 1.5 0 0 1-1.339-1.338l-.007-.154v-6.738l.007-.153a1.5 1.5 0 0 1 1.34-1.339l.153-.008.153.008a1.5 1.5 0 0 1 1.339 1.339l.008.153v2.96L18 11.786V1.5A1.5 1.5 0 0 1 19.356.007L19.5 0zM29 3h-8v8h8z"/></g></svg>