<svg xmlns="http://www.w3.org/2000/svg" viewBox="0 0 512 512"><path d="M193.172 415.684c0 2.476.73 4.889 2.106 6.948l19.263 28.954a12.582 12.582 0 0 0 10.47 5.612h61.97a12.56 12.56 0 0 0 10.47-5.612l19.263-28.954a12.64 12.64 0 0 0 2.107-6.948l.039-33.937H193.14zM256 54.802c-80.386 0-138.326 65.21-138.326 138.326 0 34.873 12.929 66.688 34.236 90.997 13.078 14.925 33.59 46.214 41.199 72.433v.047h37.725v-.094a37.19 37.19 0 0 0-1.69-11.059c-4.393-13.997-17.935-50.905-48.862-86.194-16.143-18.415-24.773-41.773-24.844-66.13-.157-57.877 46.898-100.6 100.562-100.6 55.472 0 100.6 45.128 100.6 100.6 0 24.341-8.833 47.825-24.874 66.13-30.739 35.06-44.343 71.89-48.807 86.03a37.338 37.338 0 0 0-1.745 11.238v.079h37.725v-.04c7.608-26.226 28.121-57.515 41.2-72.432 21.298-24.317 34.227-56.132 34.227-91.005 0-76.393-61.932-138.326-138.326-138.326z" style="fill:#b89a62;stroke-width:.999996"/></svg>