<svg xmlns="http://www.w3.org/2000/svg" viewBox="0 0 512 512"><path d="M274.936 63.295c-19.906.085-39.812.02-59.718.04-34.961.005-69.923-.014-104.884.017-3.409.263-6.465 2.23-8.636 4.792-4.211 4.263-8.547 8.408-12.634 12.79-1.993 2.639-2.472 6.08-2.242 9.3.002 105.138-.005 210.277.01 315.415.212 3.573 2.37 6.72 5.029 8.981 4.186 4.135 8.256 8.394 12.56 12.405 2.64 1.993 6.08 2.473 9.301 2.242 83.344-.002 166.687.005 250.03-.01 3.573-.213 6.72-2.368 8.981-5.028 4.135-4.187 8.394-8.256 12.406-12.561 1.994-2.64 2.472-6.08 2.242-9.3-.002-76.104.005-152.208-.01-228.312-.213-3.575-2.371-6.725-5.034-8.985C349.3 132.05 316.278 99.005 283.216 66c-2.282-1.923-5.326-2.788-8.28-2.706zm-13.385 46.039 79.838 79.85-.008 194.093H132.822V109.334h128.729z" style="color:#000;font-style:normal;font-variant:normal;font-weight:400;font-stretch:normal;font-size:medium;line-height:normal;font-family:sans-serif;font-variant-ligatures:normal;font-variant-position:normal;font-variant-caps:normal;font-variant-numeric:normal;font-variant-alternates:normal;font-variant-east-asian:normal;font-feature-settings:normal;font-variation-settings:normal;text-indent:0;text-align:start;text-decoration:none;text-decoration-line:none;text-decoration-style:solid;text-decoration-color:#000;letter-spacing:normal;word-spacing:normal;text-transform:none;writing-mode:lr-tb;direction:ltr;text-orientation:mixed;dominant-baseline:auto;baseline-shift:baseline;text-anchor:start;white-space:normal;shape-padding:0;shape-margin:0;inline-size:0;clip-rule:nonzero;display:inline;overflow:visible;visibility:visible;opacity:1;isolation:auto;mix-blend-mode:normal;color-interpolation:sRGB;color-interpolation-filters:linearRGB;solid-color:#000;solid-opacity:1;vector-effect:none;fill:#b89a62;fill-opacity:1;fill-rule:nonzero;stroke:none;stroke-width:30;stroke-linecap:round;stroke-linejoin:bevel;stroke-miterlimit:4;stroke-dasharray:none;stroke-dashoffset:0;stroke-opacity:1;color-rendering:auto;image-rendering:auto;shape-rendering:auto;text-rendering:auto;enable-background:accumulate;stop-color:#000;stop-opacity:1"/></svg>