<svg xmlns="http://www.w3.org/2000/svg" height="13.5" version="1.2" width="16" xml:space="preserve"><g aria-label="?" style="font-style:normal;font-weight:400;font-size:20.5167px;line-height:1.25;font-family:sans-serif;letter-spacing:0;word-spacing:0;fill:#6288b8;fill-opacity:1;stroke:none;stroke-width:.999995"><path d="m11.136 10.486.784-1.332c.07-.117.124-.175.163-.175.04 0 .094.058.164.175l.784 1.332a.468.468 0 0 1 0 .512l-.784 1.333c-.07.117-.125.175-.164.175-.039 0-.093-.058-.163-.175l-.784-1.333a.618.618 0 0 1-.082-.256.55.55 0 0 1 .082-.255zm1.088-4.57a3.35 3.35 0 0 0 .503-.876c.109-.278.164-.596.164-.955 0-.467-.102-.835-.305-1.104-.195-.278-.42-.382-.678-.31a.4.4 0 0 0-.175.108.355.355 0 0 0-.047.202c0 .09.004.18.011.269.016.09.032.22.047.39.016.162.024.319.024.472 0 .314-.094.574-.281.78a.954.954 0 0 1-.725.297c-.32 0-.585-.117-.796-.35-.21-.243-.315-.543-.315-.902 0-.62.245-1.122.736-1.508.492-.395 1.123-.593 1.895-.593.82 0 1.466.216 1.942.647.483.43.725 1.014.725 1.75 0 .628-.21 1.171-.631 1.629a4.94 4.94 0 0 1-.702.592c-.281.206-.542.413-.784.62-.242.206-.437.44-.585.7-.062.09-.109.138-.14.147-.031 0-.07-.044-.117-.134l-.27-.512a.445.445 0 0 1-.046-.31c.055-.296.238-.646.55-1.05z" style="font-style:normal;font-variant:normal;font-weight:700;font-stretch:normal;font-family:'Frank Ruehl CLM';-inkscape-font-specification:'Frank Ruehl CLM Bold';fill:#6288b8;fill-opacity:1;stroke-width:.999995" transform="scale(1.03083 .9701)"/><path style="fill:#8b62b8;fill-opacity:1;stroke:none;stroke-width:1px;stroke-linecap:butt;stroke-linejoin:miter;stroke-opacity:1" d="m6.31 8.441 3.43 2.702-3.43 2.702v-1.997H1.48v-1.41h4.83z" transform="scale(1.03083 .9701)"/><path d="M5.296.332a2.86 2.86 0 0 0-1.41.37 2.713 2.713 0 0 0-1.393 2.357l.003 1.914v4.423h5.606V4.973c-.003-.59 0-1.52-.002-1.914 0-.966-.522-1.865-1.39-2.358A2.866 2.866 0 0 0 5.295.332zm.002 1.404a1.522 1.522 0 0 1 1.518 1.515l.001 1.531H3.782c-.003-.445-.002-1.255-.003-1.531a1.522 1.522 0 0 1 1.52-1.515zm-.029 4.04a.768.754 0 0 1 .027 0 .768.754 0 0 1 .769.755.768.754 0 0 1-.398.663v1.083c0 .189-.166.342-.37.342-.205 0-.37-.153-.37-.342V7.192a.768.754 0 0 1-.397-.66.768.754 0 0 1 .739-.755z" style="fill:#b86262;fill-opacity:1;stroke:none;stroke-width:20;stroke-linecap:round;stroke-linejoin:round;stop-color:#000" transform="scale(1.03083 .9701)"/></g></svg>