<svg xmlns="http://www.w3.org/2000/svg" viewBox="0 0 16 13.5"><path d="m11.48 10.173.807-1.293c.072-.113.129-.17.169-.17.04 0 .096.057.169.17l.808 1.293a.432.432 0 0 1 0 .496l-.808 1.293c-.073.113-.129.17-.17.17-.04 0-.096-.057-.168-.17l-.808-1.293a.574.574 0 0 1-.084-.248c0-.07.028-.152.084-.248zm1.12-4.434c.242-.296.415-.58.52-.85.112-.27.168-.578.168-.927 0-.452-.105-.81-.314-1.07-.2-.27-.434-.37-.699-.3a.416.416 0 0 0-.18.104.329.329 0 0 0-.049.196c0 .087.004.174.012.26.016.088.032.214.048.38.016.156.024.309.024.457 0 .304-.096.557-.289.757-.193.192-.442.287-.748.287-.33 0-.602-.113-.82-.34a1.241 1.241 0 0 1-.325-.874c0-.6.253-1.088.76-1.463.506-.383 1.157-.574 1.953-.574.844 0 1.511.208 2.001.626.499.418.748.984.748 1.698 0 .61-.217 1.136-.651 1.58a5.026 5.026 0 0 1-.724.575c-.289.2-.558.4-.807.6-.25.201-.45.427-.603.68-.065.087-.113.135-.145.144-.032 0-.072-.044-.12-.131l-.278-.496a.41.41 0 0 1-.048-.3c.056-.288.245-.628.567-1.02z" style="fill:#6288b8"/><path d="M1.61 3.109v1.185h6.26V3.11zM2.65 5.325V6.51h6.259V5.325zM2.65 9.757v1.185h6.259V9.757zM3.676 7.54v1.186h6.26V7.541z" style="color:#000;font-style:normal;font-variant:normal;font-weight:400;font-stretch:normal;font-size:medium;line-height:normal;font-family:sans-serif;font-variant-ligatures:normal;font-variant-position:normal;font-variant-caps:normal;font-variant-numeric:normal;font-variant-alternates:normal;font-variant-east-asian:normal;font-feature-settings:normal;font-variation-settings:normal;text-indent:0;text-align:start;text-decoration:none;text-decoration-line:none;text-decoration-style:solid;text-decoration-color:#000;letter-spacing:normal;word-spacing:normal;text-transform:none;writing-mode:lr-tb;direction:ltr;text-orientation:mixed;dominant-baseline:auto;baseline-shift:baseline;text-anchor:start;white-space:normal;shape-padding:0;shape-margin:0;inline-size:0;clip-rule:nonzero;display:inline;overflow:visible;visibility:visible;isolation:auto;mix-blend-mode:normal;color-interpolation:sRGB;color-interpolation-filters:linearRGB;solid-color:#000;solid-opacity:1;vector-effect:none;fill:#8b62b8;fill-opacity:1;fill-rule:nonzero;stroke:none;stroke-width:60.0001;stroke-linecap:butt;stroke-linejoin:miter;stroke-miterlimit:4;stroke-dasharray:none;stroke-dashoffset:0;stroke-opacity:1;color-rendering:auto;image-rendering:auto;shape-rendering:auto;text-rendering:auto;enable-background:accumulate;stop-color:#000"/></svg>