<svg xmlns="http://www.w3.org/2000/svg" height="13.5" version="1.2" width="16" xml:space="preserve"><g aria-label="?" style="font-style:normal;font-weight:400;font-size:20.5167px;line-height:1.25;font-family:sans-serif;letter-spacing:0;word-spacing:0;fill:#6288b8;fill-opacity:1;stroke:none;stroke-width:.999995"><path d="m11.136 10.486.784-1.332c.07-.117.124-.175.163-.175.04 0 .094.058.164.175l.784 1.332a.468.468 0 0 1 0 .512l-.784 1.333c-.07.117-.125.175-.164.175-.039 0-.093-.058-.163-.175l-.784-1.333a.618.618 0 0 1-.082-.256.55.55 0 0 1 .082-.255zm1.088-4.57a3.35 3.35 0 0 0 .503-.876c.109-.278.164-.596.164-.955 0-.467-.102-.835-.305-1.104-.195-.278-.42-.382-.678-.31a.4.4 0 0 0-.175.108.355.355 0 0 0-.047.202c0 .09.004.18.011.269.016.09.032.22.047.39.016.162.024.319.024.472 0 .314-.094.574-.281.78a.954.954 0 0 1-.725.297c-.32 0-.585-.117-.796-.35-.21-.243-.315-.543-.315-.902 0-.62.245-1.122.736-1.508.492-.395 1.123-.593 1.895-.593.82 0 1.466.216 1.942.647.483.43.725 1.014.725 1.75 0 .628-.21 1.171-.631 1.629a4.94 4.94 0 0 1-.702.592c-.281.206-.542.413-.784.62-.242.206-.437.44-.585.7-.062.09-.109.138-.14.147-.031 0-.07-.044-.117-.134l-.27-.512a.445.445 0 0 1-.046-.31c.055-.296.238-.646.55-1.05z" style="font-style:normal;font-variant:normal;font-weight:700;font-stretch:normal;font-family:'Frank Ruehl CLM';-inkscape-font-specification:'Frank Ruehl CLM Bold';fill:#6288b8;fill-opacity:1;stroke-width:.999995" transform="scale(1.03083 .9701)"/><path d="M8.932.31c-2.12 0-3.81 1.718-3.81 3.768 0 .785.25 1.518.675 2.127l-3.961 4.207a.722.68 0 0 0 .062.96.722.68 0 0 0 1.02-.061l3.877-4.118c.607.41 1.342.65 2.137.65 2.119 0 3.806-1.715 3.806-3.765S11.051.311 8.932.311zm0 1.36c1.29 0 2.363 1.049 2.363 2.408 0 1.36-1.073 2.408-2.363 2.408S6.566 5.438 6.566 4.078c0-1.36 1.075-2.408 2.366-2.408z" style="color:#000;font-style:normal;font-variant:normal;font-weight:400;font-stretch:normal;font-size:medium;line-height:1.25;font-family:sans-serif;font-variant-ligatures:normal;font-variant-position:normal;font-variant-caps:normal;font-variant-numeric:normal;font-variant-alternates:normal;font-variant-east-asian:normal;font-feature-settings:normal;font-variation-settings:normal;text-indent:0;text-align:start;text-decoration:none;text-decoration-line:none;text-decoration-style:solid;text-decoration-color:#000;letter-spacing:0;word-spacing:0;text-transform:none;writing-mode:lr-tb;direction:ltr;text-orientation:mixed;dominant-baseline:auto;baseline-shift:baseline;text-anchor:start;white-space:normal;shape-padding:0;shape-margin:0;inline-size:0;clip-rule:nonzero;display:inline;overflow:visible;visibility:visible;isolation:auto;mix-blend-mode:normal;color-interpolation:sRGB;color-interpolation-filters:linearRGB;solid-color:#000;solid-opacity:1;vector-effect:none;fill:#8b62b8;fill-opacity:1;fill-rule:nonzero;stroke:none;stroke-width:1.4;stroke-linecap:round;stroke-linejoin:round;stroke-miterlimit:4;stroke-dasharray:none;stroke-dashoffset:0;stroke-opacity:1;color-rendering:auto;image-rendering:auto;shape-rendering:auto;text-rendering:auto;enable-background:accumulate;stop-color:#000;stop-opacity:1;opacity:1"/></g></svg>