<svg xmlns="http://www.w3.org/2000/svg" xml:space="preserve" viewBox="0 0 469.9 420.3" id="Calque_1" version="1.1"><style id="style2" type="text/css"></style><g style="stroke-width:1.12006;fill:#b89a62;fill-opacity:1" transform="matrix(.89307 0 0 .89254 24.495 23.038)" id="g854"><path transform="matrix(1.11973 0 0 1.1204 -27.428 -25.812)" d="M295.818 26.883c-69.29 0-125.996 56.673-125.996 125.922 0 17.666 3.697 34.511 10.346 49.808-44.472 43.977-89.11 88.36-133.602 132.514-15.68 15.56-15.77 40.88-.2 56.55 15.57 15.671 40.903 15.76 56.583.2l130.676-129.678c18.379 10.508 39.617 16.528 62.193 16.528 68.44 0 124.5-55.314 125.87-123.4a24.98 24.98 0 0 0 0-5.045c-1.372-68.086-57.431-123.4-125.87-123.4zm0 49.984c42.26 0 75.983 33.703 75.983 75.938s-33.722 75.937-75.983 75.937c-42.26 0-75.982-33.702-75.982-75.937s33.722-75.938 75.982-75.938z" style="color:#000;font-style:normal;font-variant:normal;font-weight:400;font-stretch:normal;font-size:medium;line-height:normal;font-family:sans-serif;font-variant-ligatures:normal;font-variant-position:normal;font-variant-caps:normal;font-variant-numeric:normal;font-variant-alternates:normal;font-variant-east-asian:normal;font-feature-settings:normal;font-variation-settings:normal;text-indent:0;text-align:start;text-decoration:none;text-decoration-line:none;text-decoration-style:solid;text-decoration-color:#000;letter-spacing:normal;word-spacing:normal;text-transform:none;writing-mode:lr-tb;direction:ltr;text-orientation:mixed;dominant-baseline:auto;baseline-shift:baseline;text-anchor:start;white-space:normal;shape-padding:0;shape-margin:0;inline-size:0;clip-rule:nonzero;display:inline;overflow:visible;visibility:visible;opacity:.5;isolation:auto;mix-blend-mode:normal;color-interpolation:sRGB;color-interpolation-filters:linearRGB;solid-color:#000;solid-opacity:1;vector-effect:none;fill:#b89a62;fill-opacity:1;fill-rule:nonzero;stroke:none;stroke-width:50;stroke-linecap:round;stroke-linejoin:round;stroke-miterlimit:4;stroke-dasharray:none;stroke-dashoffset:0;stroke-opacity:1;color-rendering:auto;image-rendering:auto;shape-rendering:auto;text-rendering:auto;enable-background:accumulate;stop-color:#000;stop-opacity:1" id="path859"/></g></svg>