<svg xmlns="http://www.w3.org/2000/svg" width="441.601" height="495"><path style="fill:#8b62b8" d="m185.9 500.2-55.1-2 48.9-125.3 44.3 17.3zM365.4 501.1l-53.2 2.4-32.8-116.2 45.3-14.4z" transform="translate(-35.2 -8.5)"/><path d="M447.7 394.1H64.3c-16.1 0-29.1-13-29.1-29.1V85c0-16.1 13-29.1 29.1-29.1h383.4c16.1 0 29.1 13 29.1 29.1v280c.1 16.1-13 29.1-29.1 29.1z" style="fill:#8b62b8" transform="translate(-35.2 -8.5)"/><path d="M65.7 355.6V94.4c0-4.4 3.5-7.9 7.9-7.9h364.7c4.4 0 7.9 3.5 7.9 7.9v261.3c0 4.4-3.5 7.9-7.9 7.9H73.6c-4.3 0-7.9-3.6-7.9-8z" style="fill:#6288b8;fill-opacity:1" transform="translate(-35.2 -8.5)"/><path d="M277.1 8.5h-32.7c-9.1 0-16.5 7.4-16.5 16.5v30.9h65.7V25c0-9.1-7.4-16.5-16.5-16.5z" style="fill:#8b62b8" transform="translate(-35.2 -8.5)"/><path d="M460.598 264.388h-40.902v-37.754c0-13.905-11.263-25.168-25.169-25.168H293.849c-13.906 0-25.17 11.264-25.17 25.168v37.755h-40.9c-8.683 0-15.731 7.048-15.731 15.732 0 8.682 7.048 15.73 15.73 15.73h9.44v182.48c0 13.906 11.262 25.169 25.169 25.169H425.99c13.906 0 25.17-11.263 25.17-25.168v-182.48h9.438c8.682 0 15.732-7.05 15.732-15.731 0-8.685-7.051-15.733-15.732-15.733zm-72.363 0H300.14v-17.616c0-7.675 6.17-13.845 13.846-13.845h60.404c7.676 0 13.844 6.17 13.844 13.845v17.616zm-88.095 44.047v151.018c0 6.92-5.666 12.585-12.584 12.585-6.918 0-12.584-5.665-12.584-12.585V308.435c0-6.918 5.665-12.584 12.584-12.584 6.92 0 12.584 5.666 12.584 12.584zm56.634 0v151.018c0 6.92-5.666 12.585-12.586 12.585-6.919 0-12.584-5.665-12.584-12.585V308.435c0-6.918 5.666-12.584 12.584-12.584 6.92 0 12.586 5.666 12.586 12.584zm56.63 0v151.018c0 6.92-5.667 12.585-12.584 12.585-6.92 0-12.586-5.665-12.586-12.585V308.435c0-6.918 5.667-12.584 12.586-12.584 6.918 0 12.583 5.666 12.583 12.584z" style="fill:#b86262" transform="translate(-35.2 -8.5)"/></svg>