<svg xmlns="http://www.w3.org/2000/svg" width="441.601" height="495"><path style="fill:#8b62b8" d="m224 390.2-38.1 110-55.1-2 48.9-125.3zM324.7 372.9l40.7 128.2-53.2 2.4-32.8-116.2z" transform="translate(-35.2 -8.5)"/><path d="M447.7 394.1H64.3c-16.1 0-29.1-13-29.1-29.1V85c0-16.1 13-29.1 29.1-29.1h383.4c16.1 0 29.1 13 29.1 29.1v280c.1 16.1-13 29.1-29.1 29.1z" style="fill:#8b62b8" transform="translate(-35.2 -8.5)"/><path d="M65.7 355.6V94.4c0-4.4 3.5-7.9 7.9-7.9h364.7c4.4 0 7.9 3.5 7.9 7.9v261.3c0 4.4-3.5 7.9-7.9 7.9H73.6c-4.3 0-7.9-3.6-7.9-8z" style="fill:#6288b8" transform="translate(-35.2 -8.5)"/><path d="M277.1 8.5h-32.7c-9.1 0-16.5 7.4-16.5 16.5v30.9h65.7V25c0-9.1-7.4-16.5-16.5-16.5z" style="fill:#8b62b8" transform="translate(-35.2 -8.5)"/></svg>