<svg width="32" height="32" xmlns="http://www.w3.org/2000/svg"><g fill="#6288B8" fill-rule="nonzero"><path d="M25.6 0A6.4 6.4 0 0 1 32 6.4v19.2a6.4 6.4 0 0 1-6.4 6.4H6.4A6.4 6.4 0 0 1 0 25.6V6.4A6.4 6.4 0 0 1 6.4 0h19.2zm0 3.2H6.4a3.2 3.2 0 0 0-3.178 2.827L3.2 6.4v19.2a3.2 3.2 0 0 0 2.827 3.178l.373.022h19.2a3.2 3.2 0 0 0 3.178-2.827l.022-.373V6.4a3.2 3.2 0 0 0-2.827-3.178L25.6 3.2z"/><path d="M23.602 8.21a2.299 2.299 0 0 1 3.474 2.994l-.222.258L14.63 23.684a2.3 2.3 0 0 1-2.993.223l-.258-.223-5.942-5.942a2.299 2.299 0 0 1 2.993-3.474l.258.223 4.315 4.316L23.602 8.21z"/></g></svg>