<svg xmlns="http://www.w3.org/2000/svg" viewBox="0 0 512 448"><path style="fill:#6288b8" d="M464 64H272L208 0H48C21.49 0 0 21.49 0 48v288c0 26.51 21.49 48 48 48h416c26.51 0 48-21.49 48-48V112c0-26.51-21.49-48-48-48zm-6 272H54c-3.314 0-6-2.678-6-5.992V53.992A5.993 5.993 0 0 1 54 48h134.118l64 64H458a6 6 0 0 1 6 6v212a6 6 0 0 1-6 6z"/><path d="m505.719 412.406-65.011-65.01c18.383-24.518 29.417-54.836 29.417-87.833 0-80.945-65.618-146.563-146.563-146.563C242.618 113 177 178.618 177 259.563c0 80.944 65.618 146.562 146.563 146.562 32.997 0 63.315-11.034 87.811-29.417l65.032 65.01c3.853 3.853 7.957 6.282 14.656 6.282 11.579 0 20.938-9.36 20.938-20.938 0-4.585-1.13-9.505-6.281-14.656zM218.875 259.563c0-57.83 46.858-104.688 104.688-104.688 57.829 0 104.687 46.858 104.687 104.688 0 57.829-46.858 104.687-104.688 104.687-57.829 0-104.687-46.858-104.687-104.687z" style="fill:#8b62b8"/></svg>