<svg xmlns="http://www.w3.org/2000/svg" viewBox="0 0 455.922 470.93"><path style="color:#000;font-style:normal;font-variant:normal;font-weight:400;font-stretch:normal;font-size:medium;line-height:normal;font-family:sans-serif;font-variant-ligatures:normal;font-variant-position:normal;font-variant-caps:normal;font-variant-numeric:normal;font-variant-alternates:normal;font-feature-settings:normal;text-indent:0;text-align:start;text-decoration:none;text-decoration-line:none;text-decoration-style:solid;text-decoration-color:#000;letter-spacing:normal;word-spacing:normal;text-transform:none;writing-mode:lr-tb;direction:ltr;text-orientation:mixed;dominant-baseline:auto;baseline-shift:baseline;text-anchor:start;white-space:normal;shape-padding:0;clip-rule:nonzero;display:inline;overflow:visible;visibility:visible;opacity:1;isolation:auto;mix-blend-mode:normal;color-interpolation:sRGB;color-interpolation-filters:linearRGB;solid-color:#000;solid-opacity:1;vector-effect:none;fill:#6288b8;fill-opacity:1;fill-rule:nonzero;stroke:none;stroke-width:42.70602036;stroke-linecap:round;stroke-linejoin:round;stroke-miterlimit:4;stroke-dasharray:none;stroke-dashoffset:0;stroke-opacity:1;color-rendering:auto;image-rendering:auto;shape-rendering:auto;text-rendering:auto;enable-background:accumulate" d="M234.549.003a21.355 21.355 0 0 0-21.02 21.645v128.118a21.355 21.355 0 0 0 21.354 21.353H363a21.355 21.355 0 1 0 0-42.706H256.236V21.648A21.355 21.355 0 0 0 234.549.003zm-170.49.29C28.933.294 0 29.229 0 64.355v341.649c0 35.126 28.933 64.058 64.059 64.058h256.236c35.126 0 64.059-28.932 64.059-64.058V149.766a21.355 21.355 0 0 0-6.254-15.1L249.982 6.55a21.355 21.355 0 0 0-15.1-6.256zm0 42.708h161.978l115.611 115.61v247.392c0 12.046-9.307 21.351-21.353 21.351H64.059c-12.046 0-21.354-9.305-21.354-21.351V64.354c0-12.046 9.308-21.353 21.354-21.353z"/><path d="m449.64 435.336-65.01-65.01c18.383-24.519 29.417-54.836 29.417-87.834 0-80.944-65.618-146.562-146.563-146.562-80.944 0-146.562 65.618-146.562 146.562 0 80.945 65.618 146.563 146.562 146.563 32.998 0 63.315-11.034 87.812-29.417l65.032 65.01c3.853 3.853 7.956 6.282 14.656 6.282 11.579 0 20.938-9.36 20.938-20.938 0-4.585-1.13-9.505-6.281-14.656zM162.798 282.492c0-57.83 46.858-104.687 104.687-104.687 57.83 0 104.688 46.858 104.688 104.687 0 57.83-46.858 104.688-104.688 104.688-57.829 0-104.687-46.858-104.687-104.688z" style="fill:#8b62b8"/></svg>