<svg xmlns="http://www.w3.org/2000/svg" viewBox="0 0 60 47.93"><path style="fill:#b89a62" d="m28.271 14.277-9.61-9.61a2.271 2.271 0 0 1 0-3.204l.802-.803c.88-.88 2.322-.88 3.203 0L30 7.995 37.334.66c.88-.88 2.324-.88 3.203 0l.802.803c.881.88.881 2.323 0 3.204l-9.612 9.61a2.247 2.247 0 0 1-1.728.649 2.253 2.253 0 0 1-1.728-.649zM1.225 20.93h57.55c.679 0 1.225.546 1.225 1.225v4.55c0 .678-.546 1.225-1.225 1.225H1.225A1.222 1.222 0 0 1 0 26.705v-4.55c0-.679.546-1.225 1.225-1.225zm30.504 12.722 9.61 9.61a2.271 2.271 0 0 1 0 3.204l-.802.803c-.88.88-2.322.88-3.203 0L30 39.935l-7.334 7.334c-.88.88-2.324.88-3.203 0l-.802-.803a2.271 2.271 0 0 1 0-3.203l9.612-9.61a2.247 2.247 0 0 1 1.728-.65 2.253 2.253 0 0 1 1.728.65z"/></svg>