<svg width="32" height="32" xmlns="http://www.w3.org/2000/svg"><path d="M32 23.371c0 .841-.682 1.523-1.524 1.523H24.91l.001 5.583c0 .792-.604 1.442-1.377 1.516l-.147.007H1.524a1.524 1.524 0 0 1-1.517-1.376L0 30.477V8.632C0 7.84.604 7.19 1.377 7.116l.147-.007h5.565V1.526c0-.841.682-1.523 1.524-1.523H23.05a1.48 1.48 0 0 1 1 .304c.06.043.114.09.166.142l7.338 7.333c.056.055.107.115.153.178l.05.073.069.118c.111.208.167.43.173.651L32 23.372zM3.048 10.153v18.8h18.815v-4.059H8.613a1.523 1.523 0 0 1-1.524-1.523V10.154H3.048zM21.61 3.047H10.138v18.8h18.815V10.382h-5.818a1.523 1.523 0 0 1-1.524-1.523v-5.81z" fill="#6288B8" fill-rule="nonzero"/></svg>