<svg xmlns="http://www.w3.org/2000/svg" viewBox="0 0 60 62.93"><path style="fill:#b89a62" d="m31.729 13.652 9.61 9.61a2.271 2.271 0 0 1 0 3.204l-.802.803c-.88.88-2.322.88-3.203 0L30 19.935l-7.334 7.334c-.88.88-2.324.88-3.203 0l-.802-.803a2.271 2.271 0 0 1 0-3.203l9.612-9.61a2.247 2.247 0 0 1 1.728-.65 2.253 2.253 0 0 1 1.728.65zM58.775 7H1.225A1.222 1.222 0 0 1 0 5.775v-4.55C0 .546.546 0 1.225 0h57.55C59.454 0 60 .546 60 1.225v4.55C60 6.454 59.454 7 58.775 7zM28.271 49.277l-9.61-9.61a2.271 2.271 0 0 1 0-3.204l.802-.803c.88-.88 2.322-.88 3.203 0L30 42.995l7.334-7.335c.88-.88 2.324-.88 3.203 0l.802.803c.881.88.881 2.323 0 3.204l-9.612 9.61a2.247 2.247 0 0 1-1.728.649 2.253 2.253 0 0 1-1.728-.649zM1.225 55.93h57.55c.679 0 1.225.546 1.225 1.225v4.55c0 .678-.546 1.225-1.225 1.225H1.225A1.222 1.222 0 0 1 0 61.705v-4.55c0-.679.546-1.225 1.225-1.225z"/><path style="fill:#8b62b8" d="M58.492 47.03H49.77l.01-8.881c-.035-.613-.298-1.829-1.797-1.832l-2.133-.002c-1.595-.002-1.731 1.573-1.74 1.985l-.01 8.729h-8.923c-1.648 0-1.787 1.27-1.794 1.634v2.443c.008.334.144 1.591 1.794 1.591h8.916l-.01 8.917c-.003 1.646 1.267 1.788 1.632 1.796l2.443.003c.334-.008 1.591-.145 1.594-1.79l.01-8.924h8.89c.612-.037 1.828-.301 1.828-1.8v-2.132c-.002-1.595-1.576-1.729-1.988-1.737z"/></svg>