<svg xmlns="http://www.w3.org/2000/svg" viewBox="0 0 60 62.93"><path style="fill:#b89a62" d="m15.729 13.652 9.61 9.61a2.271 2.271 0 0 1 0 3.204l-.802.803c-.88.88-2.47 1.007-3.203 0L14 19.935 6.666 27.27c-.88.88-2.324.88-3.203 0l-.802-.803a2.271 2.271 0 0 1 0-3.203l9.612-9.61a2.247 2.247 0 0 1 1.728-.65 2.253 2.253 0 0 1 1.728.65zM32.775 7H1.225A1.222 1.222 0 0 1 0 5.775v-4.55C0 .546.546 0 1.225 0h31.55C33.454 0 34 .546 34 1.225v4.55C34 6.454 33.454 7 32.775 7zM12.271 49.277l-9.61-9.61a2.271 2.271 0 0 1 0-3.204l.802-.803c.88-.88 2.322-.88 3.203 0L14 42.995l7.334-7.335c.88-.88 2.324-.88 3.203 0l.802.803c.881.88.881 2.323 0 3.204l-9.612 9.61a2.247 2.247 0 0 1-1.728.649 2.253 2.253 0 0 1-1.728-.649zM1.225 55.93h57.55c.679 0 1.225.546 1.225 1.225v4.55c0 .678-.546 1.225-1.225 1.225H1.225A1.222 1.222 0 0 1 0 61.705v-4.55c0-.679.546-1.225 1.225-1.225z"/><path style="fill:#8b62b8;stroke-width:1.2656852" d="M57.964 13.613h-11.04l.014-11.241c-.045-.777-.378-2.315-2.275-2.318l-2.7-.004c-2.018-.001-2.191 1.992-2.201 2.513l-.014 11.048H28.454c-2.086 0-2.262 1.609-2.27 2.068v3.093c.01.422.183 2.013 2.27 2.013h11.285l-.013 11.286c-.004 2.084 1.605 2.263 2.066 2.274l3.093.003c.422-.01 2.013-.183 2.017-2.267l.014-11.294h11.25c.775-.046 2.314-.381 2.314-2.279v-2.697c-.002-2.019-1.995-2.188-2.516-2.198z"/></svg>