<svg xmlns="http://www.w3.org/2000/svg" xml:space="preserve" viewBox="0 0 469.9 420.3" id="Calque_1" version="1.1"><style id="style2" type="text/css">.st0{fill:#b89a62;opacity:.5}</style><path style="stroke-width:1" id="path4" d="M456.15 83.8H153.264c-5.198 0-9.45-4.5-9.45-10v-61c0-5.5 4.252-10 9.45-10H456.15c5.197 0 9.45 4.5 9.45 10v61c0 5.5-4.253 10-9.45 10z" class="st0"/><path style="stroke-width:1" id="path6" d="M384.988 194.8H153.264c-5.198 0-9.45-4.5-9.45-10v-61c0-5.5 4.252-10 9.45-10h231.724c5.198 0 9.45 4.5 9.45 10v61c0 5.5-4.252 10-9.45 10z" class="st0"/><path style="stroke-width:1" id="path8" d="M319.78 305.8H153.264c-5.198 0-9.45-4.5-9.45-10v-61c0-5.5 4.252-10 9.45-10H319.78c5.198 0 9.45 4.5 9.45 10v61c0 5.5-4.252 10-9.45 10z" class="st0"/><path style="stroke-width:1" id="path10" d="M247.673 416.8h-94.41c-5.197 0-9.45-4.5-9.45-10v-61c0-5.5 4.253-10 9.45-10h94.41c5.198 0 9.45 4.5 9.45 10v61c0 5.5-4.252 10-9.45 10z" class="st0"/><path d="M49.535 50.031c-3.386 0-6.271 1.777-6.271 4.038v263.554H6.199l65.098 65.486 65.223-65.486H99.455V54.069c0-2.18-2.76-4.038-6.271-4.038z" style="opacity:.5;fill:#b89a62;fill-opacity:1;stroke-width:.999996" id="path12"/></svg>