<svg xmlns="http://www.w3.org/2000/svg" viewBox="0 0 399.055 366.34"><path style="fill:#6288b8" d="M179.003 48.819a16.273 16.273 0 0 1-16.273 16.273 16.273 16.273 0 0 1-16.273-16.273 16.273 16.273 0 0 1 16.273-16.273 16.273 16.273 0 0 1 16.273 16.273zm-48.82 0a16.273 16.273 0 0 1-16.272 16.273 16.273 16.273 0 0 1-16.273-16.273 16.273 16.273 0 0 1 16.273-16.273 16.273 16.273 0 0 1 16.273 16.273zm-48.818 0a16.273 16.273 0 0 1-16.273 16.273 16.273 16.273 0 0 1-16.273-16.273 16.273 16.273 0 0 1 16.273-16.273 16.273 16.273 0 0 1 16.273 16.273zm301.05 48.819H8.136A8.134 8.134 0 0 1 0 89.5a8.134 8.134 0 0 1 8.136-8.136h374.279c4.5 0 8.136 3.645 8.136 8.136a8.134 8.134 0 0 1-8.136 8.137zm-32.546 211.548H40.682C18.25 309.186 0 290.936 0 268.504V40.682C0 18.25 18.25 0 40.682 0H349.87C372.3 0 390.55 18.25 390.55 40.682v227.822c0 22.432-18.25 40.682-40.682 40.682zM40.682 16.273c-13.457 0-24.409 10.952-24.409 24.41v227.821c0 13.458 10.952 24.41 24.41 24.41h309.186c13.458 0 24.41-10.952 24.41-24.41V40.682c0-13.457-10.952-24.409-24.41-24.409z"/><path d="m392.744 292.754-70.692 67.527c-3.905 4.04-9.223 6.059-15.08 6.059-5.858 0-11.11-2.02-15.081-6.06l-70.961-67.526c-8.416-8.012-8.416-21.073 0-29.085s22.015-8.012 30.43 0l33.933 32.45V150.025c0-11.378 9.627-20.601 21.544-20.601 11.916 0 21.544 9.223 21.544 20.601V296.12l33.932-32.45c8.415-8.013 22.015-8.013 30.43 0 8.416 8.01 8.416 21.005 0 29.084z" style="fill:#8b62b8"/></svg>