<svg width="32" height="32" xmlns="http://www.w3.org/2000/svg"><path d="M11.5 0c2.21 0 4 1.794 4 4.008 0 .615-.138 1.197-.385 1.718H17.6a.9.9 0 0 1 .898.838h1.94c1.326 0 2.467.977 2.556 2.288l.006.165V13.5h2.312c.258-.016.522.034.767.16l.156.095.054.038c.06.044.117.093.17.146l5.254 5.254c.08.08.151.17.21.265l.058.099c.092.171.145.353.164.536l.007.16v10.398a1.5 1.5 0 0 1-1.5 1.5H15a1.5 1.5 0 0 1-1.5-1.5v-1.087H2.561c-1.325 0-2.466-.976-2.555-2.286L0 27.112V9.017C0 7.68 1.088 6.65 2.396 6.57l.165-.005 1.943-.001.003-.052a.9.9 0 0 1 .893-.787h2.485A3.999 3.999 0 0 1 7.5 4.009 4.004 4.004 0 0 1 11.5 0zm12.395 16.5H16.5v12.65h12.652v-7.397h-3.756a1.5 1.5 0 0 1-1.5-1.5l-.001-3.753zM4.515 9.565 3 9.564v17h10.5V15a1.5 1.5 0 0 1 1.5-1.5h5V9.564l-1.514.001a.9.9 0 0 1-.886.74H5.4a.9.9 0 0 1-.886-.74zM11.5 3c-.551 0-1 .45-1 1.008s.449 1.007 1 1.007c.551 0 1-.45 1-1.007 0-.558-.449-1.008-1-1.008z" fill="#6288B8" fill-rule="nonzero"/></svg>