<svg width="32" height="32" xmlns="http://www.w3.org/2000/svg"><path d="M14.333.633c.6-.6 1.6-.6 2.2 0 .6.6.6 1.6 0 2.2L14.967 4.4H16c7.567 0 13.733 6.133 13.733 13.7 0 7.567-6.166 13.733-13.733 13.733S2.267 25.667 2.267 18.1c0-3.3 1.233-6.533 3.433-9.033.567-.634 1.567-.7 2.2-.134.633.567.7 1.567.133 2.2a10.618 10.618 0 0 0-2.633 7c0 5.834 4.733 10.6 10.6 10.6 5.833 0 10.6-4.766 10.6-10.6 0-5.833-4.767-10.6-10.6-10.6h-1L16.567 9.1c.6.6.6 1.6 0 2.2-.3.3-.7.467-1.1.467-.4 0-.8-.167-1.1-.467l-4.234-4.233c-.3-.3-.466-.7-.466-1.1 0-.4.166-.8.466-1.1zM16 14.667a3.433 3.433 0 1 1 0 6.866 3.433 3.433 0 0 1 0-6.866z" fill="#b89a62" fill-rule="nonzero"/></svg>