<svg xmlns="http://www.w3.org/2000/svg" xml:space="preserve" width="471.642" height="448.67"><path d="M431.666 49.412c-51.692-50.578-134.33-50.567-186.009.025L28.911 266.184C-10.281 306.3-9.532 370.591 30.584 409.783c39.456 38.548 102.47 38.548 141.926 0l196.267-196.267c25.515-25.515 25.515-66.884 0-92.399s-66.884-25.515-92.399 0L88.644 308.85c-6.548 6.78-6.36 17.584.42 24.132 6.614 6.388 17.099 6.388 23.713 0L300.51 145.249c12.449-11.926 32.209-11.501 44.134.948 11.565 12.073 11.565 31.114 0 43.187L148.378 385.65c-26.514 26.137-69.197 25.831-95.334-.683-25.873-26.246-25.873-68.405 0-94.651L269.79 73.569c38.608-38.622 101.214-38.633 139.836-.026 38.622 38.607 38.633 101.214.026 139.836L192.905 430.126c-7.159 6.131-7.993 16.905-1.862 24.064 6.131 7.159 16.905 7.993 24.064 1.862a17.05 17.05 0 0 0 1.862-1.862l216.747-216.747c51.357-52.489 50.44-136.674-2.05-188.031z" style="fill:#6288b8;fill-opacity:1" transform="translate(0 -11.486)"/></svg>