<svg xmlns="http://www.w3.org/2000/svg" height="19" version="1.2" width="18.5" xml:space="preserve"><path d="M16.5 14.5h-7c-1.103 0-2 .897-2 2s.897 2 2 2h7c1.103 0 2-.897 2-2s-.897-2-2-2zM16.5 7.5h-7c-1.103 0-2 .897-2 2s.897 2 2 2h7c1.103 0 2-.897 2-2s-.897-2-2-2zM16.5.5h-7c-1.103 0-2 .897-2 2s.897 2 2 2h7c1.103 0 2-.897 2-2s-.897-2-2-2z" style="fill:#62b880;fill-opacity:1"/><circle cx="2.5" cy="16.5" r="2.5" style="fill:#6288b8;fill-opacity:1"/><circle cx="2.5" cy="9.5" r="2.5" style="fill:#6288b8;fill-opacity:1"/><circle cx="2.5" cy="2.5" r="2.5" style="fill:#6288b8;fill-opacity:1"/></svg>