<svg xmlns="http://www.w3.org/2000/svg" height="19" width="15.662"><path d="M3.9 17.167c0 .568-.193 1.016-.58 1.343-.388.327-.87.49-1.445.49-.753 0-1.364-.234-1.832-.703l.607-.938c.348.32.725.48 1.13.48a.94.94 0 0 0 .538-.155.512.512 0 0 0 .229-.453c0-.455-.373-.654-1.12-.597l-.276-.596c.057-.071.172-.226.346-.464a8.49 8.49 0 0 1 .453-.575c.128-.146.26-.283.394-.41v-.011c-.113 0-.286.004-.516.01-.231.007-.404.011-.517.011v.565H.18v-1.62H3.73v.938l-1.013 1.225c.363.086.65.26.863.522.214.263.32.576.32.938zm.021-6.681v1.694H.064A3.846 3.846 0 0 1 0 11.605c0-.363.083-.693.25-.991.167-.299.368-.54.602-.725.235-.185.47-.353.704-.506.234-.153.435-.307.602-.464.167-.156.25-.316.25-.48 0-.177-.051-.314-.154-.41a.593.593 0 0 0-.421-.143c-.327 0-.615.206-.863.618l-.906-.63c.17-.361.424-.644.762-.846a2.143 2.143 0 0 1 1.124-.304c.519 0 .956.147 1.31.442.356.295.534.695.534 1.2 0 .354-.121.68-.363.974a2.826 2.826 0 0 1-.799.687c-.291.164-.56.343-.804.539-.246.195-.372.381-.379.56h1.354v-.64zm.011-6.18V5.36H.362V4.305h1.14c0-.291.002-.725.006-1.3.003-.575.005-1.005.005-1.29v-.127h-.021c-.057.12-.235.312-.533.575l-.757-.81L1.652 0h1.13v4.305z" style="fill:#6288b8;fill-opacity:1"/><path d="M13.673 14.556H6.708c-1.098 0-1.99.893-1.99 1.99 0 1.098.892 1.99 1.99 1.99h6.965c1.097 0 1.99-.892 1.99-1.99 0-1.097-.893-1.99-1.99-1.99zM13.673 7.592H6.708c-1.098 0-1.99.892-1.99 1.99 0 1.097.892 1.99 1.99 1.99h6.965c1.097 0 1.99-.893 1.99-1.99 0-1.098-.893-1.99-1.99-1.99zM13.673.627H6.708c-1.098 0-1.99.892-1.99 1.99 0 1.097.892 1.99 1.99 1.99h6.965c1.097 0 1.99-.893 1.99-1.99 0-1.098-.893-1.99-1.99-1.99z" style="fill:#62b880;fill-opacity:1"/></svg>