<svg xmlns="http://www.w3.org/2000/svg" width="93.888" height="96.639" xml:space="preserve"><path d="M95.263 12.29V2.277A2.276 2.276 0 0 0 92.987 0H36.921C25.539 0 17.05 2.442 10.969 7.47c-6.364 5.265-9.594 12.724-9.594 22.167 0 10.367 3.124 18.054 9.547 23.499 6.399 5.423 15.696 8.175 27.63 8.175h10.38v33.051a2.277 2.277 0 0 0 2.278 2.277h7.096a2.277 2.277 0 0 0 2.276-2.277V14.566h9.146v79.795a2.277 2.277 0 0 0 2.277 2.276h6.873a2.278 2.278 0 0 0 2.277-2.276V14.566h11.83a2.275 2.275 0 0 0 2.278-2.276z" style="fill:#6288b8;fill-opacity:1" transform="translate(-1.375)"/></svg>