<svg xmlns="http://www.w3.org/2000/svg" height="19" version="1.2" width="18.5" xml:space="preserve"><path d="M16.5 14.5h-7c-1.103 0-2 .897-2 2s.897 2 2 2h7c1.103 0 2-.897 2-2s-.897-2-2-2zM16.5 7.5h-7c-1.103 0-2 .897-2 2s.897 2 2 2h7c1.103 0 2-.897 2-2s-.897-2-2-2zM16.5.5h-7c-1.103 0-2 .897-2 2s.897 2 2 2h7c1.103 0 2-.897 2-2s-.897-2-2-2z" style="fill:#62b880;fill-opacity:1"/><path style="opacity:1;fill:#8b62b8;fill-opacity:1;stroke:none;stroke-width:2;stroke-miterlimit:10;stroke-dasharray:none;stroke-opacity:1" d="M0 0h5v5H0zM0 14h5v5H0zM0 7h5v5H0z"/></svg>