<svg xmlns="http://www.w3.org/2000/svg" width="38.4" height="38.4" viewBox="0 0 36 36"><path d="M483.714 620.648v-28c0-2.2-1.8-4-4-4h-28c-2.2 0-4 1.8-4 4v28c0 2.2 1.8 4 4 4h28c2.2 0 4-1.8 4-4zm-25.565-10.273a.742.742 0 0 1 1.154-.018l3.822 4.602a.74.74 0 0 0 1.155-.02l5.84-7.524a.74.74 0 0 1 1.177.009l7.53 10.04a.741.741 0 0 1-.593 1.184h-25.006a.74.74 0 0 1-.584-1.195l5.505-7.078z" style="clip-rule:evenodd;fill:#6288b8;fill-rule:nonzero;stroke-linejoin:round;stroke-miterlimit:1.41420996;fill-opacity:.94117647" transform="translate(-447.714 -588.648)"/></svg>