<svg xmlns="http://www.w3.org/2000/svg" width="46.492" height="50" viewBox="0 0 43.586 46.875"><path d="M41.63 28.137q1.403.794 1.815 2.365.412 1.572-.381 2.976l-1.953 3.357q-.794 1.404-2.365 1.816-1.572.411-2.976-.382l-8.118-4.67v9.37q0 1.587-1.16 2.746-1.159 1.16-2.746 1.16H19.84q-1.587 0-2.747-1.16t-1.16-2.746v-9.37l-8.117 4.67q-1.404.793-2.975.382-1.572-.412-2.366-1.816L.522 33.478q-.793-1.404-.381-2.976.412-1.571 1.816-2.365l8.117-4.7-8.117-4.7Q.553 17.945.14 16.374q-.412-1.572.381-2.976l1.953-3.357q.794-1.404 2.366-1.816 1.571-.412 2.975.382l8.118 4.67v-9.37q0-1.587 1.16-2.746Q18.252 0 19.84 0h3.906q1.587 0 2.747 1.16t1.16 2.746v9.37l8.117-4.67q1.404-.794 2.976-.382 1.571.412 2.365 1.816l1.953 3.357q.793 1.404.381 2.976-.412 1.571-1.816 2.365l-8.117 4.7z" style="fill:#6288b8"/></svg>