<svg xmlns="http://www.w3.org/2000/svg" height="418.91" width="512.001" xml:space="preserve"><path d="M14.367 324.047a23.265 23.265 0 0 0 25.361-5.045l93.091-93.091c9.089-9.089 9.089-23.824 0-32.912L39.728 99.908A23.272 23.272 0 0 0 0 116.364v186.182a23.27 23.27 0 0 0 14.367 21.501z" style="fill:#62b880;fill-opacity:1"/><path style="fill:#6288b8;fill-opacity:1" d="M23.273 418.91h465.455c12.853 0 23.273-10.42 23.273-23.273s-10.42-23.273-23.273-23.273H23.273C10.42 372.364 0 382.784 0 395.637s10.42 23.273 23.273 23.273zM23.273 46.546h465.455c12.853 0 23.273-10.42 23.273-23.273S501.581 0 488.728 0H23.273C10.42 0 0 10.42 0 23.273s10.42 23.273 23.273 23.273z"/><path style="fill:none;stroke:#6288b8;stroke-width:47;stroke-linecap:round;stroke-linejoin:round;stroke-miterlimit:4;stroke-dasharray:none;stroke-opacity:1;stop-color:#000" d="M257.554 116.512h230.795v190.833H257.554z"/></svg>