<svg xmlns="http://www.w3.org/2000/svg" xml:space="preserve" width="512.001" height="418.91"><path style="fill:#62b880;fill-opacity:1" d="M14.367 324.047a23.265 23.265 0 0 0 25.361-5.045l93.091-93.091c9.089-9.089 9.089-23.824 0-32.912L39.728 99.908A23.272 23.272 0 0 0 0 116.364v186.182a23.27 23.27 0 0 0 14.367 21.501z"/><g style="fill:#6288b8;fill-opacity:1"><path style="fill:#6288b8;fill-opacity:1" d="M23.273 465.455h465.455c12.853 0 23.273-10.42 23.273-23.273s-10.42-23.273-23.273-23.273H23.273C10.42 418.909 0 429.329 0 442.182s10.42 23.273 23.273 23.273zM488.727 325.818H256c-12.853 0-23.273 10.42-23.273 23.273s10.42 23.273 23.273 23.273h232.727c12.853 0 23.273-10.42 23.273-23.273s-10.42-23.273-23.273-23.273zM488.727 232.727H256c-12.853 0-23.273 10.42-23.273 23.273s10.42 23.273 23.273 23.273h232.727C501.58 279.273 512 268.853 512 256s-10.42-23.273-23.273-23.273zM23.273 93.091h465.455c12.853 0 23.273-10.42 23.273-23.273s-10.42-23.273-23.273-23.273H23.273C10.42 46.545 0 56.965 0 69.818s10.42 23.273 23.273 23.273zM488.727 139.636H256c-12.853 0-23.273 10.42-23.273 23.273s10.42 23.273 23.273 23.273h232.727c12.853 0 23.273-10.42 23.273-23.273s-10.42-23.273-23.273-23.273z" transform="translate(0 -46.545)"/></g></svg>