<svg xmlns="http://www.w3.org/2000/svg" width="466.181" height="434.488" xml:space="preserve"><path d="M467.186 438.527H-.157l.002 36.553h467.34z" style="fill:#62b880;fill-opacity:1" transform="translate(0 -40.592)"/><path d="M155.55 351.218c3.617 3.617 7.905 5.424 12.85 5.424h146.178c4.948 0 9.233-1.807 12.847-5.424 3.617-3.615 5.428-7.898 5.428-12.847s-1.81-9.233-5.428-12.85l-50.247-50.248 186.147-186.15c1.906-1.904 2.856-4.094 2.856-6.564 0-2.479-.953-4.668-2.856-6.57l-32.548-32.545c-1.903-1.903-4.093-2.852-6.567-2.852s-4.665.948-6.567 2.852L231.495 229.592l-50.25-50.248c-3.615-3.617-7.899-5.426-12.848-5.426-4.949 0-9.233 1.81-12.85 5.426-3.618 3.616-5.425 7.898-5.425 12.847v146.18c.001 4.952 1.814 9.232 5.428 12.847z" style="fill:#6288b8;fill-opacity:1" transform="translate(0 -40.592)"/></svg>