<svg xmlns="http://www.w3.org/2000/svg" viewBox="0 0 344.001 337.323"><path style="fill:#6288b8" d="M196.03 0c-6.295 0-9.672.334-9.672.334l-.014.002-.011.002a16.461 16.461 0 0 0-14.573 14.067l-2.775 19.412-.002.002c-.347 2.444-3.99 6.758-6.348 7.513l-.191.06-18.033 7.423-.202.103c-2.201 1.15-7.79.704-9.748-.767l-.002-.002-15.705-11.785-.004-.002a15.957 15.957 0 0 0-20.172.789l-.117.103-13.14 13.164-.104.12c-5 5.68-5.357 14.075-.797 20.15l.002.004.002.002L96.2 86.403l.006.005c1.473 1.953 1.917 7.556.777 9.735l-.105.203-7.45 18.064-.062.2c-.744 2.337-5.064 5.99-7.51 6.338L62.434 123.7h-.006a16.457 16.457 0 0 0-14.031 14.596c0 .005-.348 3.39-.348 9.697 0 6.31.348 9.694.348 9.698a16.449 16.449 0 0 0 14.031 14.582h.004l19.41 2.763h.002c2.442.355 6.783 4.028 7.522 6.344l.064.197 7.448 18.041.105.202c1.134 2.166.672 7.816-.775 9.73l-.006.008-11.778 15.711-.002.002-.002.004c-2.013 2.68-3.228 5.71-3.636 8.777-.409 3.069-.111 6.416 2.193 9.233l.002.002c1.25 1.547 3.229 3.729 5 5.664.89.972 1.71 1.86 2.31 2.506l.711.765.188.203a4.025 4.025 0 0 1-.063-.072l-.025-.031c.079.094.132.151.168.19a4.506 4.506 0 0 0 .24.244l.115.107.29.266.97.888c.81.741 1.92 1.753 3.127 2.865 2.877 2.652 6.03 3.54 9.973 4.368 3.943.828 8.484 1.569 12.756-1.616l.008-.006 15.687-11.793c1.974-1.47 7.566-1.925 9.744-.777l.211.11 18.051 7.427.197.065c2.352.746 5.995 5.06 6.334 7.496v.01l2.78 19.422a16.44 16.44 0 0 0 14.582 14.062c.004 0 3.388.35 9.685.35 6.313 0 9.703-.35 9.703-.35a16.41 16.41 0 0 0 14.557-14.078l2.787-19.404.002-.01c.338-2.42 3.987-6.755 6.332-7.498l.201-.065 18.043-7.449.201-.105c2.173-1.138 7.784-.69 9.743.783h.002l15.72 11.808.014.01c6.07 4.498 14.464 4.204 20.16-.83l.117-.103 13.12-13.143.105-.12a16.017 16.017 0 0 0 .812-20.161l-.006-.008-11.802-15.711-.002-.004c-1.438-1.922-1.9-7.56-.758-9.748l.105-.201 7.418-18.028.06-.185c.769-2.376 5.062-6.01 7.538-6.36l.004-.001 19.396-2.766h.004c7.478-1.076 13.267-7.056 14.057-14.576 0 0 .35-3.39.35-9.703 0-6.31-.35-9.696-.35-9.7a16.465 16.465 0 0 0-14.057-14.593h-.004l-19.384-2.754h.01c-2.472-.356-6.788-4.009-7.551-6.364l-.061-.184-7.418-18.04-.107-.206c-1.135-2.168-.683-7.808.763-9.748l.002-.004 11.8-15.707.005-.005c4.521-6.066 4.227-14.471-.834-20.16l-.096-.108-13.134-13.16-.121-.106c-5.688-5.006-14.086-5.332-20.168-.789l-.006.004-15.69 11.78c-1.962 1.474-7.545 1.923-9.738.773l-.205-.107-18.043-7.426-.195-.06c-2.386-.762-6.007-5.066-6.338-7.49l-.002-.015-2.791-19.431.002.021A16.428 16.428 0 0 0 205.743.338l-.014-.002-.014-.002S202.336 0 196.03 0zm0 10c5.953 0 8.632.282 8.646.283 2.25.245 5.397 3.274 5.71 5.514l.001.01 2.785 19.392.002.008c1.006 7.323 6.178 13.409 13.206 15.65l-.383-.14 17.638 7.258-.42-.196c6.532 3.427 14.488 2.802 20.391-1.634v.002l15.674-11.768c1.823-1.362 5.855-1.191 7.547.268l12.529 12.552c1.454 1.663 1.611 5.712.277 7.508L287.84 80.41l-.004.004c-4.415 5.905-5.034 13.847-1.617 20.377l-.195-.416 7.258 17.65-.131-.359a19.368 19.368 0 0 0 15.64 13.18h.004l.004.002 19.372 2.752c2.277.328 5.298 3.48 5.535 5.738v.002l.002.002s.293 2.69.293 8.652c0 5.964-.293 8.65-.293 8.65l-.002.003v.004c-.238 2.273-3.242 5.394-5.535 5.724l-19.377 2.764c-7.321 1.033-13.397 6.194-15.657 13.186l.135-.366-7.26 17.641.192-.412c-3.41 6.535-2.8 14.48 1.625 20.379h.002l11.79 15.701c1.333 1.794 1.185 5.833-.296 7.553l-12.494 12.515c-1.706 1.478-5.714 1.633-7.551.276l-.004-.002-15.682-11.78c-5.907-4.439-13.859-5.064-20.386-1.648l.41-.191-17.639 7.28.397-.144a19.227 19.227 0 0 0-13.21 15.63l-.001.007-2.79 19.416-.001.01c-.312 2.227-3.478 5.282-5.702 5.516h-.004s-2.687.295-8.65.295c-5.95 0-8.639-.295-8.639-.295h-.006c-2.258-.236-5.405-3.283-5.724-5.527v-.002l-2.776-19.4a19.226 19.226 0 0 0-13.213-15.65l.391.143-17.639-7.258.43.202c-6.546-3.452-14.492-2.788-20.385 1.605l-.008.006-15.687 11.793h-.002c.334-.25-2.084.4-4.723-.154-2.641-.555-5.697-2.344-5.252-1.934a995.997 995.997 0 0 0-4.117-3.773l-.18-.166-.162-.174-.707-.76c-.59-.637-1.397-1.509-2.265-2.457-1.737-1.897-3.777-4.18-4.614-5.217l-.011-.015-.012-.014c.208.254-.185-.352-.022-1.582.164-1.23.783-2.843 1.723-4.094l.002-.002 11.764-15.693c4.463-5.904 5.077-13.865 1.658-20.399l.191.41-7.281-17.638.14.389c-2.24-7.028-8.335-12.15-15.618-13.204h-.006l-19.42-2.765h.01c-2.26-.327-5.278-3.452-5.516-5.725v-.006s-.293-2.687-.293-8.65c0-5.963.293-8.65.293-8.65V139.335c.238-2.273 3.264-5.412 5.516-5.738l19.402-2.75c7.303-1.036 13.399-6.177 15.635-13.207l-.143.389 7.283-17.662-.193.412c3.412-6.52 2.808-14.48-1.652-20.393L92.42 64.688l-.002-.002c-1.34-1.783-1.174-5.815.288-7.512l12.523-12.545c1.686-1.458 5.728-1.616 7.518-.271v.002l15.71 11.787c5.909 4.438 13.859 5.04 20.38 1.636l-.413.192 17.641-7.258-.377.137c7.009-2.247 12.157-8.324 13.195-15.625l.002-.006 2.776-19.412.002-.002c.319-2.25 3.466-5.28 5.732-5.526.014-.001 2.692-.283 8.635-.283zM98.75 245.883l.026.03c.007.007.017.022.027.034l-.052-.064zm.1.125.123.16.428.703s-.474-.76-.55-.863zm-7.846 6.195.059.074c-.015-.018-.02-.022-.045-.054a.374.374 0 0 0-.014-.02z"/><path d="M256.455 172.22c-4.887-.703-10.083-5.1-11.596-9.772l-7.259-17.651c-2.276-4.35-1.74-11.144 1.192-15.065l11.8-15.708c2.931-3.933 2.705-10.178-.561-13.849l-12.92-12.943c-3.682-3.242-9.915-3.492-13.872-.536L207.555 98.47c-3.933 2.956-10.703 3.492-15.065 1.204l-17.639-7.258c-4.707-1.502-9.105-6.698-9.773-11.573l-2.788-19.415c-.68-4.874-5.256-9.272-10.13-9.796 0 0-3.04-.31-9.178-.31-6.126 0-9.165.31-9.165.31-4.886.524-9.463 4.922-10.154 9.796l-2.777 19.415c-.691 4.875-5.09 10.07-9.773 11.573l-17.639 7.258c-4.362 2.276-11.131 1.752-15.064-1.204L62.7 86.684c-3.933-2.956-10.178-2.717-13.86.536l-12.92 12.943c-3.241 3.683-3.504 9.916-.548 13.85l11.775 15.707c2.968 3.933 3.492 10.715 1.216 15.065l-7.282 17.663c-1.49 4.683-6.698 9.081-11.573 9.773l-19.414 2.753c-4.863.703-9.26 5.267-9.773 10.166 0 0-.322 3.039-.322 9.177s.322 9.177.322 9.177c.512 4.898 4.91 9.45 9.773 10.154l19.414 2.765c4.863.703 10.083 5.101 11.573 9.773l7.282 17.639c2.276 4.35 1.74 11.155-1.216 15.064l-11.775 15.708c-2.956 3.933-3.67 9.285-1.573 11.847 2.086 2.586 8.069 8.963 8.08 8.986.012.024 2.038 1.86 4.47 4.1 2.431 2.24 12.418 5.351 16.351 2.42l15.697-11.8c3.933-2.931 10.702-3.491 15.064-1.191l17.64 7.258c4.695 1.49 9.093 6.698 9.772 11.572l2.777 19.415c.691 4.863 5.256 9.284 10.154 9.797 0 0 3.04.322 9.165.322 6.138 0 9.177-.322 9.177-.322 4.875-.513 9.451-4.934 10.13-9.797l2.79-19.415c.679-4.862 5.077-10.082 9.772-11.572l17.64-7.282c4.35-2.276 11.13-1.74 15.064 1.216l15.708 11.799c3.957 2.932 10.178 2.705 13.873-.56l12.895-12.92c3.254-3.706 3.492-9.94.56-13.873L238.78 258.89c-2.932-3.909-3.468-10.702-1.191-15.064l7.258-17.64c1.513-4.683 6.698-9.08 11.596-9.772l19.39-2.765c4.887-.703 9.285-5.256 9.798-10.154 0 0 .321-3.04.321-9.177 0-6.138-.321-9.177-.321-9.177-.513-4.887-4.91-9.463-9.797-10.166zm-113.473 57.851c-19.748 0-35.754-16.018-35.754-35.754 0-19.749 16.006-35.755 35.754-35.755 19.749 0 35.755 16.018 35.755 35.755 0 19.736-16.018 35.754-35.755 35.754z" style="fill:#6288b8"/></svg>