<svg width="32" height="32" xmlns="http://www.w3.org/2000/svg"><path d="M14.408.006 14.562 0l.217.003.455.017c.308.009.623.011.946.008l.492-.008.506-.016c1.127-.042 2.034.515 2.507 1.533l1.082 2.39.043.106.038.1.018.056.88-.37.877-.359.938-.375c1.003-.399 2.017-.133 2.759.623l1.053 1.066.56.544.215.203c.823.763 1.094 1.796.694 2.85l-.75 1.963-.299.744.701.274.813.334 1.052.44c1.097.455 1.692 1.404 1.637 2.614l-.009.214-.01.446c-.002.078-.003.158-.003.24v.534l.016 1.209c.013.892-.384 1.687-1.204 2.127l-.778.41-.307.153-.436.203-.594.258-.635.26-.21.082.108.225.154.34.16.376.648 1.605c.424 1.04.22 2.07-.544 2.86l-.15.145-.333.314-.176.172-.983.986-.255.248-.127.12a2.64 2.64 0 0 1-.54.39l-.196.104-.201.1a1.548 1.548 0 0 1-1.06.174l-.154-.038-.488-.14a6.17 6.17 0 0 1-.536-.178l-.955-.374-.884-.353-.408-.167-.153.438-.124.322-.318.768-.466 1.082c-.452 1.062-1.381 1.647-2.542 1.603a35.932 35.932 0 0 0-2.512-.001c-1.1.036-2.004-.508-2.459-1.509l-.646-1.393-.25-.563-.198-.486-.09-.24-2.279.945-.383.156c-1.035.42-2.07.152-2.83-.636l-.824-.845-.258-.259a24.679 24.679 0 0 0-.686-.656c-.859-.79-1.136-1.85-.712-2.942l.558-1.5.213-.545.129-.311.125-.286-2.494-1.015c-1.151-.474-1.777-1.456-1.7-2.73l.018-.405.008-.436v-.49L.012 14.66c-.017-.941.407-1.76 1.26-2.208l.624-.325.517-.253.328-.15.591-.255.633-.259.212-.084-.168-.358-.213-.485-.243-.589-.446-1.115c-.446-1.104-.19-2.197.7-3.004l.363-.337.248-.24.412-.413.495-.51c.061-.064.125-.13.19-.2.73-.764 1.692-1.07 2.697-.761l.25.089 1.805.694.824.324.148-.409.184-.47.332-.789.39-.909C12.53.73 13.252.17 14.165.034l.243-.028zm.769 3.11-.289-.01-.52 1.216-.175.435-.096.255-.089.252c-.356 1.047-1.016 1.762-2.085 2.05-.555.149-1.037.16-1.597-.064l-1.582-.622-1.153-.444-.63.65-.494.491-.381.361.408 1.02.267.631.12.263.122.254c.481.98.509 1.95-.032 2.896-.284.503-.622.856-1.195 1.076l-.653.257-.587.24-.541.233-.169.076-.354.17-.356.18.01.553c.008.483.007.891-.004 1.273l-.013.33 2.747 1.117c.129.046.223.084.348.155.278.155.519.37.683.697l.093.212.09.192c.393.85.493 1.562.063 2.458l-.111.238-.107.244-.11.268-.122.309-.512 1.377.486.466.648.652.362.372 2.796-1.16c.126-.056.243-.098.39-.131.316-.07.649-.067 1.011.08l.198.074c.428.156.656.258.953.472.45.323.782.767.975 1.325l.092.258.102.26.117.28.22.496.487 1.044.265-.006c.38-.007.746-.01 1.103-.007l.529.007.213.006.401-.93.242-.587.137-.365.083-.237c.361-1.074 1.044-1.805 2.136-2.094.546-.145.994-.161 1.55.07l.4.165.835.338.894.353.53.206.066.021.152-.148 1.084-1.085.29-.279-.417-1.044-.2-.48-.178-.396-.12-.248c-.481-.98-.513-1.946.028-2.898.287-.508.612-.855 1.196-1.08l.336-.129.614-.245c.195-.08.38-.157.558-.235l.408-.182.294-.14.45-.233-.01-.825v-.58l.008-.52.006-.218-1.602-.662-.544-.213-.266-.1c-.807-.297-1.367-.833-1.674-1.65-.266-.712-.273-1.389.024-2.097l.325-.8.672-1.757-.411-.396-.439-.436-.64-.648-.98.396-.825.343-.786.335c-.603.261-1.171.268-1.787.086-.976-.288-1.662-.941-1.968-1.887l-.063-.219-.928-2.056-.257.01c-.365.008-.72.011-1.062.008l-.503-.008zm.828 6.168.241.005c3.594.13 6.487 3.103 6.48 6.723-.01 3.702-3.031 6.717-6.731 6.712-3.703-.005-6.72-3.025-6.718-6.725.004-3.622 2.896-6.586 6.488-6.71l.24-.005zm-.001 3.097a3.638 3.638 0 0 0-3.63 3.62c-.002 1.99 1.63 3.623 3.625 3.626a3.641 3.641 0 0 0 3.63-3.622c.004-1.986-1.632-3.622-3.625-3.624z" fill="#6288b8" fill-rule="nonzero"/></svg>