<svg xmlns="http://www.w3.org/2000/svg" viewBox="0 0 285.952 286"><path d="M256.455 120.898c-4.887-.703-10.083-5.101-11.596-9.773l-7.259-17.65c-2.276-4.351-1.74-11.144 1.192-15.066l11.8-15.708c2.931-3.933 2.705-10.178-.561-13.849l-12.92-12.943c-3.682-3.241-9.915-3.492-13.872-.536l-15.684 11.775c-3.933 2.956-10.703 3.492-15.065 1.204l-17.639-7.258c-4.707-1.502-9.105-6.698-9.773-11.573l-2.788-19.414c-.68-4.875-5.256-9.273-10.13-9.797 0 0-3.04-.31-9.178-.31-6.126 0-9.165.31-9.165.31-4.886.524-9.463 4.922-10.154 9.797l-2.777 19.414c-.691 4.875-5.09 10.071-9.773 11.573l-17.639 7.258c-4.362 2.276-11.131 1.752-15.064-1.204L62.7 35.361c-3.933-2.956-10.178-2.717-13.86.536L35.92 48.841c-3.241 3.682-3.504 9.915-.548 13.848l11.775 15.709c2.968 3.933 3.492 10.714 1.216 15.064l-7.282 17.663c-1.49 4.684-6.698 9.081-11.573 9.773l-19.414 2.753c-4.863.703-9.26 5.268-9.773 10.166 0 0-.322 3.04-.322 9.177 0 6.138.322 9.177.322 9.177.512 4.898 4.91 9.451 9.773 10.154l19.414 2.765c4.863.703 10.083 5.101 11.573 9.773l7.282 17.64c2.276 4.35 1.74 11.154-1.216 15.064l-11.775 15.708c-2.956 3.933-3.67 9.284-1.573 11.846 2.086 2.587 8.069 8.963 8.08 8.987.012.024 2.038 1.859 4.47 4.1 2.431 2.24 12.418 5.35 16.351 2.419l15.697-11.799c3.933-2.932 10.702-3.492 15.064-1.192l17.64 7.258c4.695 1.49 9.093 6.698 9.772 11.573l2.777 19.414c.691 4.863 5.256 9.285 10.154 9.797 0 0 3.04.322 9.165.322 6.138 0 9.177-.322 9.177-.322 4.875-.512-11.52-10.734-10.84-15.597 0 0-6.56-73.092 6.665-83.724 4.328-6.052 91.434-6.58 91.434-6.58l5.44-4.914c1.514-4.684 6.699-9.082 11.597-9.773l19.39-2.765c4.887-.703 9.285-5.256 9.798-10.154 0 0 .321-3.04.321-9.177 0-6.138-.321-9.177-.321-9.177-.513-4.886-4.91-9.463-9.797-10.166zm-113.473 57.85c-19.748 0-35.754-16.017-35.754-35.754 0-19.748 16.006-35.754 35.754-35.754 19.749 0 35.755 16.018 35.755 35.754 0 19.737-16.018 35.755-35.755 35.755z" style="fill:#6288b8"/><path d="M147.972 274.929h24.91v-24.911h-24.91zm30.446 0h27.679v-24.911h-27.679zm-30.446-30.447h24.91v-27.678h-24.91zm30.446 0h27.679v-27.678h-27.679zm-30.446-33.214h24.91v-24.91h-24.91zm63.66 63.66h27.679v-24.91h-27.679zm-33.214-63.66h27.679v-24.91h-27.679zm66.429 63.66h24.91v-24.91h-24.91zm-33.215-30.446h27.679v-27.678h-27.679zm-30.446-74.732v-24.91q0-1.125-.822-1.947-.821-.822-1.946-.822h-5.536q-1.124 0-1.946.822-.821.822-.821 1.946v24.911q0 1.124.821 1.946.822.822 1.946.822h5.536q1.125 0 1.946-.822.822-.822.822-1.946zm63.66 74.732h24.911v-27.678h-24.91zm-33.214-33.214h27.679v-24.91h-27.679zm33.215 0h24.91v-24.91h-24.91zm2.767-41.518v-24.91q0-1.125-.821-1.947-.822-.822-1.946-.822h-5.536q-1.125 0-1.946.822-.822.822-.822 1.946v24.911q0 1.124.822 1.946.821.822 1.946.822h5.536q1.124 0 1.946-.822.821-.822.821-1.946zm33.215-5.536V274.93q0 4.497-3.287 7.784T269.757 286H147.972q-4.498 0-7.785-3.287t-3.287-7.784V164.214q0-4.497 3.287-7.784t7.785-3.287h11.071v-8.304q0-5.708 4.065-9.774 4.066-4.065 9.774-4.065h5.536q5.709 0 9.774 4.065 4.065 4.066 4.065 9.774v8.304h33.215v-8.304q0-5.708 4.065-9.774Q233.602 131 239.31 131h5.536q5.708 0 9.774 4.065 4.065 4.066 4.065 9.774v8.304h11.071q4.498 0 7.785 3.287t3.287 7.784z" style="fill:#b89a62"/></svg>