<svg width="32" height="32" xmlns="http://www.w3.org/2000/svg"><path d="M16 1.5a6.5 6.5 0 0 1 1.5 12.826V16h10a1.5 1.5 0 0 1 1.493 1.356L29 17.5l.001 4.256A4.502 4.502 0 0 1 27.5 30.5a4.5 4.5 0 0 1-1.5-8.744V19h-8.5l.001 2.756A4.502 4.502 0 0 1 16 30.5a4.5 4.5 0 0 1-1.5-8.744V19H6l.001 2.756A4.502 4.502 0 0 1 4.5 30.5 4.5 4.5 0 0 1 3 21.756V17.5a1.5 1.5 0 0 1 1.356-1.493L4.5 16h10v-1.674A6.5 6.5 0 0 1 16 1.5zm-11.5 23a1.5 1.5 0 1 0 0 3 1.5 1.5 0 0 0 0-3zm23 0a1.5 1.5 0 1 0 0 3 1.5 1.5 0 0 0 0-3zm-11.5 0a1.5 1.5 0 1 0 0 3 1.5 1.5 0 0 0 0-3zm0-20a3.5 3.5 0 1 0 0 7 3.5 3.5 0 0 0 0-7z" fill="#FFF" fill-rule="nonzero"/></svg>