<svg xmlns="http://www.w3.org/2000/svg" viewBox="0 0 600 450"><path style="stroke:#62b880;stroke-width:50.20111465" d="M190 265.424h220m-110-110v220"/><path d="M543.75 75h-225l-75-75H56.25C25.184 0 0 25.184 0 56.25v337.5C0 424.816 25.184 450 56.25 450h487.5c31.066 0 56.25-25.184 56.25-56.25v-262.5C600 100.184 574.816 75 543.75 75zm-7.031 318.75H63.28a7.023 7.023 0 0 1-7.031-7.022V63.272a7.023 7.023 0 0 1 7.031-7.022h157.17l75 75h241.268a7.031 7.031 0 0 1 7.031 7.031V386.72a7.031 7.031 0 0 1-7.031 7.031z" style="fill:#6288b8;stroke-width:1.171875"/></svg>