<svg xmlns="http://www.w3.org/2000/svg" viewBox="0 0 234.848 180" xml:space="preserve" width="234.849" height="180"><path d="M234.848 35.152q0 6.06-4.242 10.303L120.91 155.152l-20.606 20.606Q96.061 180 90 180q-6.06 0-10.303-4.242l-20.606-20.606-54.849-54.849Q0 96.061 0 90q0-6.06 4.242-10.303l20.606-20.606q4.243-4.243 10.304-4.243 6.06 0 10.303 4.243L90 103.788l99.394-99.546Q193.636 0 199.697 0q6.06 0 10.303 4.242l20.606 20.606q4.242 4.243 4.242 10.304z" style="fill:#62b880;fill-opacity:1;stroke-width:.15151516"/></svg>