<svg xmlns="http://www.w3.org/2000/svg" version="1.1" id="Capa_1" x="0" y="0" xml:space="preserve" width="278.538" height="278.538"><defs id="defs37"><style id="style829"></style></defs><g id="g873" transform="matrix(1.13547 0 0 1.13547 0 0)" style="fill:#6288b8;fill-opacity:1"><g style="fill:#6288b8;fill-opacity:1" transform="matrix(10.5995 0 0 10.5995 -10.535 -62.079)" data-name="Layer 42" id="Layer_42"><path d="m7.497 21.246 6.93-6.93 1.26 1.259-6.93 6.93zm13.085-5.411a.89.89 0 0 1-.632-.258l-5.527-5.546a.894.894 0 0 1 1.264-1.264l5.545 5.546a.89.89 0 0 1 0 1.264.89.89 0 0 1-.65.258zM1.89 29a.89.89 0 0 1-.89-.988l.686-6.231a.89.89 0 0 1 .258-.525L16.506 6.693a2.848 2.848 0 0 1 4.032 0l2.768 2.768a2.848 2.848 0 0 1 0 4.033L8.752 28.048a.89.89 0 0 1-.525.258l-6.23.685zm6.231-1.584zm-4.69-5.137-.535 4.825 4.825-.534L22.05 12.239a1.068 1.068 0 0 0 0-1.514l-2.777-2.777a1.068 1.068 0 0 0-1.513 0z" style="fill:#6288b8;fill-opacity:1;stroke-width:.89014125" id="rect839"/></g></g><path id="path831" d="m228.99 200.1 44.153-44.16c6.476-6.476 6.476-17.074 0-23.55l-5.884-5.884c-6.476-6.483-17.074-6.483-23.55 0l-44.154 44.16-44.16-44.16c-6.47-6.476-17.067-6.476-23.543 0l-5.891 5.884c-6.469 6.476-6.469 17.074 0 23.55l44.154 44.153-44.154 44.161c-6.469 6.476-6.469 17.074 0 23.543l5.89 5.884c6.477 6.476 17.075 6.476 23.544 0l44.16-44.147 44.154 44.147c6.476 6.476 17.074 6.476 23.55 0l5.884-5.884c6.476-6.476 6.476-17.074 0-23.543z" style="fill:#b86262;fill-opacity:1;stroke-width:6.7246356"/></svg>