<svg xmlns="http://www.w3.org/2000/svg" viewBox="0 0 448 512"><path d="M194 0c-24.27 0-44.319 18.014-47.537 41.398v315.204c2.784 20.227 18.164 36.425 37.973 40.433h225.183C431.52 392.58 448 373.215 448 350V99.883a48 48 0 0 0-14.059-33.942L382.06 14.06A48 48 0 0 0 348.117 0zm6 48h88v88c0 13.255 10.745 24 24 24h88v184a6 6 0 0 1-6 6H200a6 6 0 0 1-6-6V54a6 6 0 0 1 6-6zm136 0h9.633c1.59 0 3.116.633 4.242 1.758l48.367 48.367a6 6 0 0 1 1.758 4.242V112h-64z" style="fill:#6288b8"/><path d="m56.396 485.887.617-118.582L213.27 240.077" style="fill:none;fill-opacity:1;stroke:#b89a62;stroke-width:60;stroke-linecap:butt;stroke-linejoin:miter;stroke-miterlimit:4;stroke-dasharray:none;stroke-opacity:1"/><path d="m58.23 222.896 141.102 187.76 92.558-229.051z" style="fill:#b89a62;fill-opacity:1;stroke:none;stroke-width:1px;stroke-linecap:butt;stroke-linejoin:miter;stroke-opacity:1"/></svg>