<svg xmlns="http://www.w3.org/2000/svg" viewBox="0 0 384 512"><path style="fill:#6288b8" d="M369.9 97.9 286 14C277 5 264.8-.1 252.1-.1H48C21.5 0 0 21.5 0 48v416c0 26.5 21.5 48 48 48h288c26.5 0 48-21.5 48-48V131.9c0-12.7-5.1-25-14.1-34zM332.1 128H256V51.9l76.1 76.1zM48 464V48h160v104c0 13.3 10.7 24 24 24h104v288H48z"/><path style="fill:#b89a62;stroke-width:.72881305" d="M192.542 230.78a80.854 80.854 0 0 0-22.768 3.644 40.376 40.376 0 0 1 5.277 19.678c0 22.54-18.273 40.813-40.814 40.813a40.376 40.376 0 0 1-19.678-5.276c-9.708 33.671 3.218 69.778 32.09 89.636 28.873 19.857 67.211 19.008 95.182-2.103 27.97-21.11 39.297-57.748 28.115-90.958-11.18-33.21-42.36-55.54-77.404-55.434zm207.362 70.986c-39.523-77.116-117.769-129.291-207.362-129.291-89.593 0-167.86 52.212-207.362 129.298a23.577 23.577 0 0 0 0 21.274C24.704 400.163 102.95 452.34 192.542 452.34c89.593 0 167.86-52.212 207.362-129.299a23.577 23.577 0 0 0 0-21.274zm-207.362 115.59c-71.897 0-113.946-37.915-149.542-102.78 35.596-64.864 77.638-107.118 149.542-107.118 71.905 0 111.778 42.254 147.373 107.118-35.588 64.865-75.468 102.78-147.373 102.78z"/></svg>