<svg width="32" height="32" xmlns="http://www.w3.org/2000/svg"><g fill="none" fill-rule="nonzero"><path d="M11.367 1a1.5 1.5 0 0 1 1.493 1.356l.007.144-.001.982h8.077a1.5 1.5 0 0 1 1.493 1.356l.007.145v3.002A2.975 2.975 0 0 0 19.868 6.5l-.177.005-.18.016a3 3 0 0 0-.068.009v-.048H3.999v9.768H8v8.31a1.5 1.5 0 0 1-1.656-1.76l.034-.141.973-3.409H2.5a1.5 1.5 0 0 1-1.493-1.355L1 17.751V4.983A1.5 1.5 0 0 1 2.356 3.49l.144-.007 7.366-.001V2.5a1.5 1.5 0 0 1 1.5-1.5zm11.075 13.981v2.77a1.5 1.5 0 0 1-1.355 1.493l-.144.007-4.852-.001.713 2.499h-2.805V16.25h5.443v-1.269h3zm-2.576-5.48.002.07-.002.91.007.145a1.5 1.5 0 0 0 1.493 1.356l-1.924-.001.001-.455c.23-.237.383-.55.416-.899l.007-.144v-.982z" fill="#6288B8"/><path d="M19.867 8a1.5 1.5 0 0 1 1.493 1.356l.007.144-.001.982h8.077a1.5 1.5 0 0 1 1.493 1.356l.007.145V24.75a1.5 1.5 0 0 1-1.356 1.493l-.144.007-4.852-.001.974 3.409.033.14a1.5 1.5 0 0 1-2.871.82l-.047-.136-1.21-4.233h-2.499l-1.209 4.233a1.5 1.5 0 0 1-2.917-.684l.033-.14.973-3.409H11a1.5 1.5 0 0 1-1.493-1.355l-.007-.144V11.983a1.5 1.5 0 0 1 1.356-1.493l.144-.007 7.366-.001V9.5a1.5 1.5 0 0 1 1.5-1.5zm8.075 5.482H12.499v9.768h15.443v-9.768z" fill="#8B62B8"/></g></svg>