<svg xmlns="http://www.w3.org/2000/svg" width="248.49" height="278.538"><path d="M117.717 0c-5.12 0-9.285 4.164-9.285 9.285v17.387H16.374C7.314 26.672 0 33.987 0 43.047v157.557c0 9.06 7.315 16.375 16.374 16.375h60.281l-22.86 58.577 31.004 1.126 20.678-59.703h33.015l17.377 61.559 29.935-1.35-19.114-60.209h65.425c9.06 0 16.43-7.316 16.374-16.375V43.047c0-9.06-7.314-16.375-16.374-16.375h-86.712V9.285c0-5.121-4.164-9.285-9.285-9.285zM21.608 43.89h205.217a4.42 4.42 0 0 1 4.446 4.446v147.035a4.42 4.42 0 0 1-4.446 4.446H21.608c-2.42 0-4.446-2.026-4.446-4.502V48.336a4.42 4.42 0 0 1 4.446-4.445z" style="fill:#6288b8"/><path d="m198.653 200.1 44.154-44.16c6.475-6.476 6.475-17.074 0-23.55l-5.885-5.884c-6.475-6.483-17.073-6.483-23.55 0l-44.153 44.16-44.16-44.16c-6.47-6.476-17.068-6.476-23.544 0l-5.89 5.884c-6.47 6.476-6.47 17.074 0 23.55l44.153 44.153-44.154 44.161c-6.469 6.476-6.469 17.074 0 23.543l5.891 5.884c6.476 6.476 17.074 6.476 23.543 0l44.16-44.147 44.155 44.147c6.476 6.476 17.074 6.476 23.55 0l5.884-5.884c6.475-6.476 6.475-17.074 0-23.543z" style="fill:#b86262"/></svg>