<svg xmlns="http://www.w3.org/2000/svg" width="156" height="178.284"><path d="M146.713 37.142H122.57V14.856C122.57 6.65 115.922 0 107.713 0H48.285c-8.208 0-14.857 6.649-14.857 14.856v22.286H9.285C4.16 37.142 0 41.302 0 46.428c0 5.125 4.16 9.286 9.285 9.286h5.572v107.714c0 8.208 6.648 14.856 14.857 14.856h96.571c8.209 0 14.857-6.648 14.857-14.856V55.714h5.572c5.124 0 9.286-4.161 9.286-9.286 0-5.126-4.162-9.286-9.287-9.286zm-42.714 0H52V26.743a8.15 8.15 0 0 1 8.173-8.172h35.655a8.15 8.15 0 0 1 8.172 8.172v10.399zm-52 26v89.142c0 4.085-3.344 7.429-7.428 7.429s-7.428-3.344-7.428-7.43V63.143c0-4.084 3.344-7.428 7.428-7.428s7.428 3.344 7.428 7.428zm33.43 0v89.142c0 4.085-3.345 7.429-7.43 7.429-4.083 0-7.428-3.344-7.428-7.43V63.143c0-4.084 3.345-7.428 7.429-7.428s7.429 3.344 7.429 7.428zm33.427 0v89.142c0 4.085-3.345 7.429-7.428 7.429-4.084 0-7.43-3.344-7.43-7.43V63.143c0-4.084 3.346-7.428 7.43-7.428s7.428 3.344 7.428 7.428z" style="fill:#b89a62"/><path d="m124.29 126.99 28.875-28.88c4.235-4.234 4.235-11.165 0-15.4l-3.847-3.848c-4.235-4.239-11.166-4.239-15.4 0l-28.875 28.88-28.88-28.88c-4.23-4.234-11.16-4.234-15.395 0l-3.852 3.848c-4.23 4.235-4.23 11.166 0 15.4l28.874 28.875-28.874 28.88c-4.23 4.234-4.23 11.165 0 15.395l3.852 3.848c4.235 4.235 11.165 4.235 15.396 0l28.879-28.87 28.874 28.87c4.235 4.235 11.166 4.235 15.4 0l3.848-3.848c4.235-4.235 4.235-11.165 0-15.396z" style="fill:#b86262"/></svg>