<svg xmlns="http://www.w3.org/2000/svg" width="248.49" height="278.538"><path d="M117.717 0c-5.12 0-9.285 4.164-9.285 9.285v17.387H16.374C7.314 26.672 0 33.987 0 43.047v157.557c0 9.06 7.315 16.375 16.374 16.375h60.281l-22.86 58.577 31.004 1.126 20.678-59.703h33.015l17.377 61.559 29.935-1.35-19.114-60.209h65.425c9.06 0 16.43-7.316 16.374-16.375V43.047c0-9.06-7.314-16.375-16.374-16.375h-86.712V9.285c0-5.121-4.164-9.285-9.285-9.285zM21.608 43.89h205.217a4.42 4.42 0 0 1 4.446 4.446v147.035a4.42 4.42 0 0 1-4.446 4.446H21.608c-2.42 0-4.446-2.026-4.446-4.502V48.336a4.42 4.42 0 0 1 4.446-4.445z" style="fill:#6288b8"/><path d="m103.821 234.334 43.667 44.204h-43.667zm76.417-86.797 43.667 43.667-65.733 76.9-43.434-44.15zm22.757-24.218c6.822-6.822 19.92-4.783 29.256 4.553l8.452 8.453c9.337 9.336 11.376 22.434 4.554 29.256l-13.488 13.488-42.262-42.262zm0 0" style="fill:#b89a62"/></svg>