<svg xmlns="http://www.w3.org/2000/svg" width="248.49" height="278.538"><path d="M117.717 0c-5.12 0-9.285 4.164-9.285 9.285v17.387H16.374C7.314 26.672 0 33.987 0 43.047v157.557c0 9.06 7.315 16.375 16.374 16.375h60.281l-22.86 58.577 31.004 1.126 20.678-59.703h33.015l17.377 61.559 29.935-1.35-19.114-60.209h65.425c9.06 0 16.43-7.316 16.374-16.375V43.047c0-9.06-7.314-16.375-16.374-16.375h-86.712V9.285c0-5.121-4.164-9.285-9.285-9.285zM21.608 43.89h205.217a4.42 4.42 0 0 1 4.446 4.446v147.035a4.42 4.42 0 0 1-4.446 4.446H21.608c-2.42 0-4.446-2.026-4.446-4.502V48.336a4.42 4.42 0 0 1 4.446-4.445z" style="fill:#6288b8"/><path d="m197.804 272.317 44.392-53.499c2.518-3.035 5.374-5.364 5.374-9.953 0-6.22-5.135-9.953-9.953-9.953h-29.86v-69.673c0-5.474-4.479-9.953-9.953-9.953h-19.906c-5.475 0-9.954 4.479-9.954 9.953v69.673h-29.86c-4.817 0-9.953 3.732-9.953 9.953 0 4.589 2.857 6.918 5.375 9.953l44.392 53.5c3.105 3.811 5.524 6.22 9.953 6.22 4.43 0 6.838-2.409 9.953-6.22z" style="fill:#b89a62"/></svg>