<svg xmlns="http://www.w3.org/2000/svg" width="248.49" height="278.538"><path d="M117.717 0c-5.12 0-9.285 4.164-9.285 9.285v17.387H16.374C7.314 26.672 0 33.987 0 43.047v157.557c0 9.06 7.315 16.375 16.374 16.375h60.281l-22.86 58.577 31.004 1.126 20.678-59.703h33.015l17.377 61.559 29.935-1.35-19.114-60.209h65.425c9.06 0 16.43-7.316 16.374-16.375V43.047c0-9.06-7.314-16.375-16.374-16.375h-86.712V9.285c0-5.121-4.164-9.285-9.285-9.285zM21.608 43.89h205.217a4.42 4.42 0 0 1 4.446 4.446v147.035a4.42 4.42 0 0 1-4.446 4.446H21.608c-2.42 0-4.446-2.026-4.446-4.502V48.336a4.42 4.42 0 0 1 4.446-4.445z" style="fill:#6288b8"/><path d="M247.31 215.5q0 .52-.103.726-6.635 27.787-27.786 45.05-21.15 17.262-49.559 17.262-15.137 0-29.29-5.702-14.152-5.703-25.245-16.278l-13.375 13.375q-1.97 1.97-4.666 1.97-2.695 0-4.665-1.97-1.97-1.97-1.97-4.666v-46.449q0-2.695 1.97-4.665 1.97-1.97 4.665-1.97h46.449q2.696 0 4.665 1.97 1.97 1.97 1.97 4.665 0 2.696-1.97 4.666l-14.204 14.204q7.362 6.843 16.693 10.575 9.33 3.733 19.388 3.733 13.893 0 25.92-6.74 12.027-6.738 19.284-18.558 1.14-1.762 5.495-12.13.83-2.385 3.11-2.385h19.907q1.348 0 2.333.985.985.985.985 2.333zm2.593-82.943v46.448q0 2.696-1.97 4.666-1.97 1.97-4.666 1.97H196.82q-2.696 0-4.666-1.97-1.97-1.97-1.97-4.666 0-2.695 1.97-4.665l14.308-14.308q-15.345-14.204-36.184-14.204-13.893 0-25.92 6.74-12.027 6.738-19.285 18.558-1.14 1.762-5.495 12.13-.829 2.385-3.11 2.385H95.835q-1.348 0-2.333-.985-.985-.985-.985-2.333v-.726q6.74-27.786 27.994-45.048 21.254-17.263 49.766-17.263 15.137 0 29.445 5.754t25.401 16.226l13.479-13.375q1.97-1.97 4.665-1.97 2.696 0 4.666 1.97 1.97 1.97 1.97 4.666z" style="fill:#b89a62"/></svg>