<svg xmlns="http://www.w3.org/2000/svg" viewBox="0 0 248.49 278.538"><path d="M117.717 0c-5.12 0-9.285 4.164-9.285 9.285v17.387H16.374C7.314 26.672 0 33.987 0 43.047v157.557c0 9.06 7.315 16.375 16.374 16.375h60.281l-22.86 58.577 31.004 1.126 20.678-59.703h33.015l17.377 61.559 29.935-1.35-19.114-60.209h65.425c9.06 0 16.43-7.316 16.374-16.375V43.047c0-9.06-7.314-16.375-16.374-16.375h-86.712V9.285c0-5.121-4.164-9.285-9.285-9.285zM21.608 43.89h205.217a4.42 4.42 0 0 1 4.446 4.446v147.035a4.42 4.42 0 0 1-4.446 4.446H21.608c-2.42 0-4.446-2.026-4.446-4.502V48.336a4.42 4.42 0 0 1 4.446-4.445z" style="fill:#6288b8"/><path d="M167.511 118.538c27.615 0 50 22.386 50 50s-22.385 50-50 50c-27.614 0-50-22.386-50-50s22.386-50 50-50zm57.276 104.319-22.285-5.571c-23.414 16.84-51.793 13.082-69.981 0l-22.286 5.571c-13.355 3.339-22.724 15.338-22.724 29.104v11.577c0 8.284 6.716 15 15 15h130c8.285 0 15-6.716 15-15v-11.577c0-13.766-9.369-25.765-22.724-29.104z" style="fill:#8b62b8"/></svg>