<svg xmlns="http://www.w3.org/2000/svg" width="248.49" height="278.538"><path d="M117.717 0c-5.12 0-9.285 4.164-9.285 9.285v17.387H16.374C7.314 26.672 0 33.987 0 43.047v157.557c0 9.06 7.315 16.375 16.374 16.375h60.281l-22.86 58.577 31.004 1.126 20.678-59.703h33.015l17.377 61.559 29.935-1.35-19.114-60.209h65.425c9.06 0 16.43-7.316 16.374-16.375V43.047c0-9.06-7.314-16.375-16.374-16.375h-86.712V9.285c0-5.121-4.164-9.285-9.285-9.285zM21.608 43.89h205.217a4.42 4.42 0 0 1 4.446 4.446v147.035a4.42 4.42 0 0 1-4.446 4.446H21.608c-2.42 0-4.446-2.026-4.446-4.502V48.336a4.42 4.42 0 0 1 4.446-4.445z" style="fill:#6288b8"/><path style="fill:#8b62b8" d="M227.932 207.314c0-2.4.8-4.801.8-8.002 0-3.201 0-5.602-.8-8.003l16.806-13.604c1.6-1.6 1.6-3.201.8-4.802l-16.005-28.01c-.8-.8-2.401-1.6-4.802-.8l-20.007 8.003c-4-3.2-8.803-5.602-13.604-8.002l-3.201-20.807c.8-2.401-1.6-4.002-3.201-4.002h-32.01c-1.601 0-4.002 1.601-4.002 3.202l-3.201 21.607c-4.802 1.6-8.803 4.801-13.605 8.002l-19.206-8.002c-2.4-.8-4.001 0-5.602 1.6l-16.005 28.01c-.8.8 0 3.2 1.6 4.801l16.806 12.804c0 2.401-.8 4.802-.8 8.003 0 3.2 0 5.602.8 8.002L92.687 220.92c-1.6 1.6-1.6 3.201-.8 4.802l16.005 28.009c.8.8 2.401 1.6 4.802.8l20.007-8.003c4.001 3.201 8.803 5.602 13.604 8.003l3.201 20.807c0 1.6 1.6 3.2 4.002 3.2h32.01c1.6 0 4.001-1.6 4.001-3.2l3.201-20.807c4.802-2.4 9.604-4.802 13.605-8.003l20.006 8.003c1.601.8 4.002 0 4.802-1.6l16.005-28.01c.8-1.6.8-4.001-.8-4.801zm-59.22 20.007c-15.204 0-28.009-12.804-28.009-28.01 0-15.204 12.805-28.008 28.01-28.008 15.205 0 28.009 12.804 28.009 28.009s-12.804 28.009-28.01 28.009z"/></svg>