<svg xmlns="http://www.w3.org/2000/svg" width="156" height="131.625"><path d="M78 34.7V9.75a9.762 9.762 0 0 0-2.857-6.903A9.713 9.713 0 0 0 68.25 0a9.713 9.713 0 0 0-6.893 2.847L0 63.375l61.357 60.518a9.723 9.723 0 0 0 6.893 2.857 9.723 9.723 0 0 0 6.893-2.857A9.74 9.74 0 0 0 78 117V92.732c26.813.663 56.111 5.519 78 38.893v-9.75c0-45.172-34.125-82.32-78-87.175z" style="fill:#b89a62"/><path d="M65.526 96.158v27.309q0 3.571-2.56 6.128-2.56 2.556-6.13 2.556H9.668q-3.569 0-6.13-2.556-2.56-2.557-2.56-6.128V86.228q0-3.571 2.56-6.128t6.13-2.557H22.08q3.569 0 6.13 2.557 2.56 2.557 2.56 6.128v1.243h26.067q3.569 0 6.128 2.556 2.56 2.557 2.56 6.128z" style="fill:#8b62b8"/></svg>