<svg xmlns="http://www.w3.org/2000/svg" xmlns:xlink="http://www.w3.org/1999/xlink" width="11" height="11" viewBox="-0.4 0 2.902 2.91"><defs><linearGradient id="a"><stop offset="0" style="stop-color:#fff;stop-opacity:1"/><stop offset="1" style="stop-color:#fff;stop-opacity:0"/></linearGradient><linearGradient xlink:href="#a" id="b" gradientUnits="userSpaceOnUse" gradientTransform="matrix(.3 0 0 .50843 418.757 312.79)" x1="471.322" y1="544.184" x2="471.322" y2="550.084"/><linearGradient xlink:href="#a" id="c" gradientUnits="userSpaceOnUse" gradientTransform="matrix(.3 0 0 .50843 421.757 312.79)" x1="471.322" y1="544.184" x2="471.322" y2="550.084"/><linearGradient xlink:href="#a" id="d" gradientUnits="userSpaceOnUse" gradientTransform="matrix(.3 0 0 .50843 424.757 312.79)" x1="471.322" y1="544.184" x2="471.322" y2="550.084"/></defs><g transform="matrix(.26458 0 0 .26458 -142.526 -157.815)"><rect ry="1.354" y="596.467" x="537.155" height="11" width="11" style="color:#000;display:inline;overflow:visible;visibility:visible;fill:#9c9c9c;fill-opacity:0;fill-rule:nonzero;stroke:none;stroke-width:2;marker:none;enable-background:accumulate"/><g transform="translate(-20 10.011)"><path style="color:#000;display:inline;overflow:visible;visibility:visible;fill:#000;fill-opacity:1;fill-rule:nonzero;stroke:none;stroke-width:2;marker:none;enable-background:accumulate" d="M390.347 229.574a1.783 1.904 0 0 1 1.784 1.902 1.783 1.904 0 0 1-1.78 1.906 1.783 1.904 0 0 1-1.785-1.902 1.783 1.904 0 0 1 1.78-1.906" transform="matrix(.84138 0 0 .78767 231.224 409.638)"/><path transform="matrix(.84138 0 0 .78767 234.224 409.638)" d="M390.347 229.574a1.783 1.904 0 0 1 1.784 1.902 1.783 1.904 0 0 1-1.78 1.906 1.783 1.904 0 0 1-1.785-1.902 1.783 1.904 0 0 1 1.78-1.906" style="color:#000;display:inline;overflow:visible;visibility:visible;fill:#000;fill-opacity:1;fill-rule:nonzero;stroke:none;stroke-width:2;marker:none;enable-background:accumulate"/><path style="color:#000;display:inline;overflow:visible;visibility:visible;fill:#000;fill-opacity:1;fill-rule:nonzero;stroke:none;stroke-width:2;marker:none;enable-background:accumulate" d="M390.347 229.574a1.783 1.904 0 0 1 1.784 1.902 1.783 1.904 0 0 1-1.78 1.906 1.783 1.904 0 0 1-1.785-1.902 1.783 1.904 0 0 1 1.78-1.906" transform="matrix(.84138 0 0 .78767 237.224 409.638)"/><path style="color:#000;display:inline;overflow:visible;visibility:visible;fill:#9c9c9c;fill-opacity:.44660196;fill-rule:nonzero;stroke:none;stroke-width:2;marker:none;enable-background:accumulate" d="M402.5 228.094a2.501 2.501 0 0 0 0 5c.557 0 1.085-.16 1.5-.469.416.308.943.47 1.5.469.557 0 1.085-.16 1.5-.469.416.308.943.47 1.5.469a2.5 2.5 0 1 0 0-5c-.564 0-1.082.215-1.5.531-.419-.315-.936-.532-1.5-.531-.564 0-1.082.215-1.5.531-.419-.315-.936-.532-1.5-.531z" transform="translate(157.155 361.362)"/><rect style="color:#000;display:inline;overflow:visible;visibility:visible;fill:url(#b);fill-opacity:1;fill-rule:nonzero;stroke:none;stroke-width:1;marker:none;enable-background:accumulate" width="3" height="3" x="558.155" y="590.467" ry="1.5"/><rect ry="1.5" y="590.467" x="561.155" height="3" width="3" style="color:#000;display:inline;overflow:visible;visibility:visible;fill:url(#c);fill-opacity:1;fill-rule:nonzero;stroke:none;stroke-width:1;marker:none;enable-background:accumulate"/><rect style="color:#000;display:inline;overflow:visible;visibility:visible;fill:url(#d);fill-opacity:1;fill-rule:nonzero;stroke:none;stroke-width:1;marker:none;enable-background:accumulate" width="3" height="3" x="564.155" y="590.467" ry="1.5"/></g></g></svg>