<svg xmlns="http://www.w3.org/2000/svg" viewBox="0 0 448 512"><path style="fill:#6288b8" d="M0 108V68c0-8.837 7.163-16 16-16h416c8.837 0 16 7.163 16 16v40c0 8.837-7.163 16-16 16H16c-8.837 0-16-7.163-16-16zm124 128h308c8.837 0 16-7.163 16-16v-40c0-8.837-7.163-16-16-16H124c-8.837 0-16 7.163-16 16v40c0 8.837 7.163 16 16 16zm98 224h210c8.837 0 16-7.163 16-16v-40c0-8.837-7.163-16-16-16H222c-8.837 0-16 7.163-16 16v40c0 8.837 7.163 16 16 16zm-98-112h308c8.837 0 16-7.163 16-16v-40c0-8.837-7.163-16-16-16H124c-8.837 0-16 7.163-16 16v40c0 8.837 7.163 16 16 16z"/></svg>