<svg xmlns="http://www.w3.org/2000/svg" width="16" height="16"><circle style="opacity:1;fill:none;fill-opacity:1;stroke:#6288b8;stroke-width:1.66984737;stroke-linejoin:round;stroke-miterlimit:4;stroke-dasharray:none;stroke-opacity:1" cx="8.145" cy="7.888" r="5.344"/><path d="M10.675 7.066H8.788V5.179a.378.378 0 0 0-.378-.377h-.755a.378.378 0 0 0-.377.377v1.887H5.391a.378.378 0 0 0-.377.377v.755c0 .208.17.378.377.378h1.887v1.886c0 .208.17.378.377.378h.755c.208 0 .378-.17.378-.378V8.576h1.887c.207 0 .377-.17.377-.378v-.755a.378.378 0 0 0-.377-.377z" style="fill:#6288b8;fill-opacity:1;stroke-width:.37737668"/><path style="opacity:1;fill:#6288b8;fill-opacity:1;stroke:none;stroke-width:.04382579;stroke-linecap:round;stroke-linejoin:round;stroke-miterlimit:4;stroke-dasharray:none;stroke-dashoffset:0;stroke-opacity:1" d="M0 7.066h3.011v1.51H0z"/><path style="opacity:1;fill:#6288b8;fill-opacity:1;stroke:none;stroke-width:.04736231;stroke-linecap:round;stroke-linejoin:round;stroke-miterlimit:4;stroke-dasharray:none;stroke-dashoffset:0;stroke-opacity:1" d="M12.659 7.066h3.516v1.51h-3.516z"/></svg>