<svg xmlns="http://www.w3.org/2000/svg" height="221.966" width="221.966" xml:space="preserve"><path style="fill:#62b880;fill-opacity:1;stroke:none;stroke-width:9.24858;stroke-opacity:1" d="M212.717 73.989h-64.74V9.249c0-5.55-3.7-9.249-9.248-9.249H83.237c-5.549 0-9.248 3.7-9.248 9.249v64.74H9.249c-5.55 0-9.249 3.7-9.249 9.248v55.492c0 5.549 3.7 9.248 9.249 9.248h64.74v64.74c0 5.55 3.7 9.249 9.248 9.249h55.492c5.549 0 9.248-3.7 9.248-9.249v-64.74h64.74c5.55 0 9.249-3.7 9.249-9.248V83.237c0-5.549-3.7-9.248-9.249-9.248z"/></svg>