<svg xmlns="http://www.w3.org/2000/svg" height="245.307" width="245.364" xml:space="preserve" y="0" x="0" id="Capa_1" version="1.1"><defs id="defs37"><style id="style829"></style></defs><g style="fill:#8b62b8;fill-opacity:1" transform="matrix(10.5995 0 0 10.5995 -10.535 -62.079)" data-name="Layer 42" id="Layer_42"><path id="rect839" style="fill:#6288b8;fill-opacity:1;stroke-width:.890138" d="M7.492 6.23c.52.261.942.721 1.139 1.318l.712 2.146a.801.801 0 0 1 .053.16l4.41 13.294a.71.71 0 0 1-.004.467l-1.742 4.69a.71.71 0 0 1-.988.386l-.073-.044-4.2-2.72a.71.71 0 0 1-.282-.372L2.11 12.267a.711.711 0 0 1-.052-.156l-.712-2.147a2.273 2.273 0 0 1 1.443-2.876l2.966-.983a2.266 2.266 0 0 1 1.737.125zM6.86 7.499a.85.85 0 0 0-.652-.047l-2.975.987a.852.852 0 0 0-.542 1.08l.514 1.549 4.597-1.525-.514-1.549a.85.85 0 0 0-.428-.495zm.39 5.827-1.409.485 2.82 8.19 1.408-.485z"/><g transform="rotate(-30.807 19.313 -.43) scale(.78639)" id="Layer_42-9" data-name="Layer 42" style="fill:#8b62b8;fill-opacity:1;stroke-width:1.27163"><path id="rect839-4" style="fill:#8b62b8;fill-opacity:1;stroke-width:1.13193" d="m7.497 21.246 6.93-6.93 1.26 1.259-6.93 6.93zm13.085-5.411a.89.89 0 0 1-.632-.258l-5.527-5.546a.894.894 0 0 1 1.264-1.264l5.545 5.546a.89.89 0 0 1 0 1.264.89.89 0 0 1-.65.258zM1.89 29a.89.89 0 0 1-.89-.988l.686-6.231a.89.89 0 0 1 .258-.525L16.506 6.693a2.848 2.848 0 0 1 4.032 0l2.768 2.768a2.848 2.848 0 0 1 0 4.033L8.752 28.048a.89.89 0 0 1-.525.258l-6.23.685zm6.231-1.584zm-4.69-5.137-.535 4.825 4.825-.534L22.05 12.239a1.068 1.068 0 0 0 0-1.514l-2.777-2.777a1.068 1.068 0 0 0-1.513 0z"/></g></g></svg>