<svg xmlns="http://www.w3.org/2000/svg" height="210.168" width="210.381" xml:space="preserve" y="0" x="0" id="Capa_1" version="1.1"><defs id="defs37"><style id="style827"></style></defs><path d="M121.645 1.684c-3.715.095-7.485.493-11.096.14-9.531.087-19.082-.172-28.604.125-8.87 1.06-12.397 13.625-5.341 19.123 6.264 4.772 14.716 1.78 21.95 2.617 10.469-.34 21.086.656 31.466-.49 8.837-2.226 10.47-15.558 2.388-19.84-3.39-1.563-7.049-1.77-10.763-1.675zm72.365 28.568c-4.831-.058-9.754.489-14.533.137-56.39.112-112.805-.223-169.178.168-8.816 1.257-12.076 13.787-4.994 19.177 6.275 4.63 14.644 1.689 21.84 2.524 5.578-1.274 1.84 6.77 2.918 9.998.102 46.03-.207 92.08.152 138.096 1.045 6.93 8.55 10.098 14.883 9.011 42.16-.112 84.344.223 126.488-.168 6.867-1.134 9.97-8.577 8.885-14.869V52.258c7.297-.524 14.917 1.069 22.01-.893 8.588-3.204 8.657-16.789.076-20.033-2.783-.793-5.649-1.046-8.547-1.08zM78.463 67.363a14.3 14.3 0 0 1 14.332 14.332v87.35a14.3 14.3 0 0 1-14.332 14.332 14.3 14.3 0 0 1-14.332-14.332v-87.35a14.3 14.3 0 0 1 14.332-14.332zm55.432 0a14.3 14.3 0 0 1 14.332 14.332v87.35a14.3 14.3 0 0 1-14.332 14.332 14.3 14.3 0 0 1-14.333-14.332v-87.35a14.3 14.3 0 0 1 14.333-14.332z" style="color:#000;font-style:normal;font-variant:normal;font-weight:400;font-stretch:normal;font-size:medium;line-height:normal;font-family:sans-serif;font-variant-ligatures:normal;font-variant-position:normal;font-variant-caps:normal;font-variant-numeric:normal;font-variant-alternates:normal;font-feature-settings:normal;text-indent:0;text-align:start;text-decoration:none;text-decoration-line:none;text-decoration-style:solid;text-decoration-color:#000;letter-spacing:normal;word-spacing:normal;text-transform:none;writing-mode:lr-tb;direction:ltr;text-orientation:mixed;dominant-baseline:auto;baseline-shift:baseline;text-anchor:start;white-space:normal;shape-padding:0;clip-rule:nonzero;display:inline;overflow:visible;visibility:visible;opacity:1;isolation:auto;mix-blend-mode:normal;color-interpolation:sRGB;color-interpolation-filters:linearRGB;solid-color:#000;solid-opacity:1;vector-effect:none;fill:#b86262;fill-opacity:1;fill-rule:nonzero;stroke:none;stroke-width:15.0119px;stroke-linecap:round;stroke-linejoin:round;stroke-miterlimit:4;stroke-dasharray:none;stroke-dashoffset:0;stroke-opacity:1;color-rendering:auto;image-rendering:auto;shape-rendering:auto;text-rendering:auto;enable-background:accumulate" id="line841"/></svg>