<svg xmlns="http://www.w3.org/2000/svg" version="1.1" id="Capa_1" x="0" y="0" xml:space="preserve" width="245.364" height="245.307"><defs id="defs37"><style id="style829"></style></defs><g id="Layer_42" data-name="Layer 42" transform="matrix(10.5995 0 0 10.5995 -10.535 -62.079)" style="fill:#8b62b8;fill-opacity:1"><path transform="matrix(.09434 0 0 .09434 .994 5.857)" d="M122.684 1.084C55.749 1.084 1.12 55.712 1.12 122.646c0 66.935 54.628 121.584 121.563 121.584 66.934 0 121.562-54.649 121.562-121.584 0-66.934-54.628-121.562-121.562-121.562zm0 35.008c17.637 0 33.994 5.202 47.636 14.16L50.287 170.301c-8.969-13.646-14.18-30.01-14.18-47.655a86.297 86.297 0 0 1 86.577-86.554zm72.4 38.912c8.966 13.641 14.176 30 14.176 47.642a86.315 86.315 0 0 1-86.576 86.577c-17.646 0-34.01-5.211-47.657-14.18l120.057-120.04z" style="color:#000;font-style:normal;font-variant:normal;font-weight:400;font-stretch:normal;font-size:medium;line-height:normal;font-family:sans-serif;font-variant-ligatures:normal;font-variant-position:normal;font-variant-caps:normal;font-variant-numeric:normal;font-variant-alternates:normal;font-variant-east-asian:normal;font-feature-settings:normal;font-variation-settings:normal;text-indent:0;text-align:start;text-decoration:none;text-decoration-line:none;text-decoration-style:solid;text-decoration-color:#000;letter-spacing:normal;word-spacing:normal;text-transform:none;writing-mode:lr-tb;direction:ltr;text-orientation:mixed;dominant-baseline:auto;baseline-shift:baseline;text-anchor:start;white-space:normal;shape-padding:0;shape-margin:0;inline-size:0;clip-rule:nonzero;display:inline;overflow:visible;visibility:visible;opacity:1;isolation:auto;mix-blend-mode:normal;color-interpolation:sRGB;color-interpolation-filters:linearRGB;solid-color:#000;solid-opacity:1;vector-effect:none;fill:#b89a62;fill-opacity:1;fill-rule:nonzero;stroke:none;stroke-width:35;stroke-linecap:butt;stroke-linejoin:miter;stroke-miterlimit:4;stroke-dasharray:none;stroke-dashoffset:0;stroke-opacity:1;color-rendering:auto;image-rendering:auto;shape-rendering:auto;text-rendering:auto;enable-background:accumulate;stop-color:#000;stop-opacity:1" id="path857"/></g></svg>