<svg xmlns="http://www.w3.org/2000/svg" version="1.1" id="Capa_1" x="0" y="0" xml:space="preserve" width="245.364" height="245.307"><defs id="defs37"><style id="style829"></style></defs><g id="Layer_42" data-name="Layer 42" transform="matrix(10.5995 0 0 10.5995 -10.535 -62.079)" style="fill:#8b62b8;fill-opacity:1"><path transform="matrix(.09434 0 0 .09434 .994 5.857)" d="M185.787 0c-7.736 0-15.473 2.956-21.371 8.865l-21.232 21.233a10.634 10.634 0 0 0-1.588 1.588L10.059 163.223a9.434 9.434 0 0 0-2.737 5.566L.057 234.834c-.621 5.61 3.79 10.507 9.435 10.473l1.133-.094 66.045-7.266a9.435 9.435 0 0 0 5.566-2.736l131.485-131.484a9.44 9.44 0 0 0 .795-.702c.268-.266.512-.547.742-.836L236.5 80.947c11.82-11.795 11.82-30.944 0-42.74L207.156 8.865C201.258 2.955 193.523 0 185.787 0zm-.049 18.838c2.904 0 5.81 1.11 8.022 3.33l29.435 29.437c4.44 4.425 4.44 11.615 0 16.04l-15.332 15.332L162.387 37.5l15.332-15.332a11.286 11.286 0 0 1 8.02-3.33zm-39.334 66.85 13.832 14.148-82.257 80.422-13.833-14.149 82.258-80.422z" style="fill:#8b62b8;fill-opacity:1;stroke-width:9.43505" id="rect839"/></g></svg>