<svg xmlns="http://www.w3.org/2000/svg" viewBox="0 0 1901.118 1792"><path d="M1833.118 380c18.667 18.667 34.667 44 48 76 13.333 32 20 61.333 20 88v1152c0 26.667-9.333 49.333-28 68s-41.333 28-68 28h-1344c-26.667 0-49.333-9.333-68-28s-28-41.333-28-68V96c0-26.667 9.333-49.333 28-68s41.333-28 68-28h896c26.667 0 56 6.667 88 20s57.333 29.333 76 48zm-444-244v376h376c-6.667-19.333-14-33-22-41l-313-313c-8-8-21.667-15.333-41-22zm384 1528V640h-416c-26.667 0-49.333-9.333-68-28s-28-41.333-28-68V128h-768v1536z" style="fill:#6288b8"/><path style="fill:#8b62b8" d="M42.42 1711.223c.44 0 .92 0 1.36-.04 20.226-.68 32.978-16.35 34.697-36.497 1.36-14.83 41.174-373.642 601.177-373.242l1.24 229.413a39.935 39.935 0 0 0 22.905 36.137c13.871 6.636 30.54 4.598 42.413-5.276l518.39-429.447a39.861 39.861 0 0 0 14.59-30.94c-.04-11.992-5.436-23.345-14.71-30.9l-518.35-425.45c-11.952-9.753-28.462-11.632-42.373-5.116-13.951 6.636-22.826 20.707-22.826 36.097l-1.239 224.377c-232.332 7.395-412.217 82.108-528.863 218.58-189.8 222.1-147.426 544.854-145.467 558.285 2.958 19.588 17.309 34.019 37.056 34.019z"/></svg>