<svg xmlns="http://www.w3.org/2000/svg" width="36" height="36"><path d="M16.5 1.166v3.605C10.358 5.465 5.465 10.358 4.771 16.5H1.166v3h3.605c.694 6.142 5.587 11.035 11.729 11.729v3.605h3v-3.605c6.136-.695 11.005-5.59 11.7-11.729h3.634v-3h-3.63C30.508 10.36 25.636 5.466 19.5 4.771V1.166h-3zm0 6.635v2.324a7.805 7.805 0 0 1 3-.002V7.801a10.277 10.277 0 0 1 8.7 8.699h-2.444c.046.238.082.48.107.725a2 2 0 0 1 .158.775 2 2 0 0 1-.158.777 8.257 8.257 0 0 1-.107.723h2.443a10.277 10.277 0 0 1-8.699 8.7v-2.323a7.808 7.808 0 0 1-3-.002v2.324A10.277 10.277 0 0 1 7.8 19.5h2.325a7.942 7.942 0 0 1-.146-1.5c0-.513.053-1.013.146-1.5H7.801A10.277 10.277 0 0 1 16.5 7.8zm1.5 6.178c-.533 0-1.037.106-1.5.289V16.5h-2.232c-.183.463-.29.967-.29 1.5s.107 1.037.29 1.5H16.5v2.232c.463.183.967.29 1.5.29s1.037-.107 1.5-.29V19.5h2.232c.183-.463.29-.967.29-1.5s-.107-1.037-.29-1.5H19.5v-2.232a4.068 4.068 0 0 0-1.5-.29z" style="color:#000;font-style:normal;font-variant:normal;font-weight:400;font-stretch:normal;font-size:medium;line-height:normal;font-family:sans-serif;font-variant-ligatures:normal;font-variant-position:normal;font-variant-caps:normal;font-variant-numeric:normal;font-variant-alternates:normal;font-variant-east-asian:normal;font-feature-settings:normal;font-variation-settings:normal;text-indent:0;text-align:start;text-decoration:none;text-decoration-line:none;text-decoration-style:solid;text-decoration-color:#000;letter-spacing:normal;word-spacing:normal;text-transform:none;writing-mode:lr-tb;direction:ltr;text-orientation:mixed;dominant-baseline:auto;baseline-shift:baseline;text-anchor:start;white-space:normal;shape-padding:0;shape-margin:0;inline-size:0;clip-rule:nonzero;display:inline;overflow:visible;visibility:visible;isolation:auto;mix-blend-mode:normal;color-interpolation:sRGB;color-interpolation-filters:linearRGB;solid-color:#000;solid-opacity:1;vector-effect:none;fill:#6288b8;fill-opacity:1;fill-rule:nonzero;stroke:none;stroke-width:3;stroke-linecap:round;stroke-linejoin:miter;stroke-miterlimit:4;stroke-dasharray:none;stroke-dashoffset:0;stroke-opacity:1;color-rendering:auto;image-rendering:auto;shape-rendering:auto;text-rendering:auto;enable-background:accumulate;stop-color:#000;stop-opacity:1;opacity:.997"/></svg>