<svg xmlns="http://www.w3.org/2000/svg" viewBox="0 0 725.7 725.7" style="fill:#6288b8"><path d="M363.8 619.7c-192.9 0-341.3-225.2-347.5-234.8L2.2 363.2l14.1-21.8c6.2-9.6 154.6-234.8 347.5-234.8s341.3 225.2 347.5 234.8l14.1 21.8-14.1 21.8c-1 1.6-23.2 36.7-64.4 81.3L577.2 423c18.2-19.7 41.4-46.4 51.4-59.8-38.9-51.5-145.6-176.6-264.8-176.6-76.3 0-147.8 52.9-194.4 97.2-31.4 29.9-55.8 59.8-70.4 79.3 38.9 51.5 145.6 176.6 264.8 176.6 31.7 0 76.7-14.8 110.9-33 24.7 16.6 47.4 32.1 73.4 49.3-9.3 6.3-23.6 13.8-23.6 13.8-53.9 33.1-108 49.9-160.7 49.9z"/><path d="M363.8 304.3c32.4 0 58.8 26.4 58.8 58.8S396.3 422 363.8 422 305 395.6 305 363.2s26.4-58.9 58.8-58.9m0-60c-65.6 0-118.8 53.2-118.8 118.8S298.2 482 363.8 482s118.8-53.2 118.8-118.8-53.1-118.9-118.8-118.9z"/><path d="M417.3 410.7c-4.1-16.8 15-21.4 20.5-21.7 26.6 2.8 269.4 101.7 221.1 158.3-54.4 63.6-236.1-114.2-241.6-136.6z"/></svg>