<svg xmlns="http://www.w3.org/2000/svg" height="384" width="375.936"><path d="m39.655 95.152 198.092 198.093" style="stroke:#6288b8;stroke-width:60;stroke-linecap:round;stroke-linejoin:miter;stroke-miterlimit:4"/><path style="stroke:#6288b8;stroke-width:60;stroke-linecap:round;stroke-linejoin:miter;stroke-miterlimit:4;stroke-dasharray:none;stroke-opacity:1" d="M237.747 95.152 39.655 293.245"/><path style="fill:#6288b8" d="M272.056 349.455c-4.868-5.016-7.302-10.842-7.302-17.48 0-6.639 2.434-12.244 7.302-16.817 5.016-4.72 10.843-7.08 17.48-7.08 6.639 0 12.244 2.36 16.817 7.08 4.72 4.573 7.081 10.178 7.081 16.816 0 6.639-2.36 12.465-7.08 17.481-4.574 4.868-10.18 7.302-16.817 7.302-6.638 0-12.465-2.434-17.48-7.302zm3.32-224.175c4.13-5.31 9.44-7.966 15.93-7.966 6.492 0 11.36 2.655 14.605 7.966 3.245 5.31 4.868 11.21 4.868 17.701 0 31.569-11.401 135.076-15.49 139.163-4.087 4.088-8.396 4.004-12.833-.433-4.437-4.437-13.276-106.571-13.276-138.73 0-6.49 2.065-12.39 6.195-17.701z" transform="matrix(1.41935 0 0 1.41935 -84.023 -139.742)"/></svg>