<svg xmlns="http://www.w3.org/2000/svg" viewBox="0 0 130 130"><path style="fill:#6288b8" d="m49.242 6.2 13.166 13.165-44.082 44.203.02.02c-6.88 6.81-11.129 16.265-11.035 26.644.183 20.319 16.913 36.824 37.232 36.733 20.32-.092 36.9-16.747 36.9-37.067a7.458 7.458 0 1 0-14.914 0c0 12.283-9.77 22.1-22.052 22.155-12.283.055-22.142-9.673-22.252-21.955-.057-6.31 2.475-11.99 6.613-16.045l.049.049c4.18-3.962 10.538-6.228 15.181-6.354l54.397.182v17.808l25.472-25.601-25.472-25.604v18.483l-48.389-.162 22.88-22.942 12.493 12.494-.092-36.115z"/></svg>