<svg xmlns="http://www.w3.org/2000/svg" viewBox="0 0 130 130"><path style="fill:#6288b8" d="m67.242 6.2 13.166 13.165-44.082 44.203.02.02c-6.88 6.81-11.129 16.265-11.035 26.644.183 20.319 16.913 36.824 37.232 36.733 20.32-.092 36.9-16.747 36.9-37.067a7.458 7.458 0 1 0-14.914 0c0 12.283-9.77 22.1-22.052 22.155-12.283.055-22.142-9.673-22.252-21.955-.057-6.31 2.475-11.99 6.613-16.045l.049.049c44.068-44.19-.05-.05 44.068-44.19l12.494 12.494-.092-36.115z"/><path style="fill:#b89a62;fill-opacity:1;stroke-width:.61730999" d="M121.64 81.16h.01c-.005-.008-.007-.015-.01-.023-.006-.062-.017-.12-.025-.181l-.001-.027-2.425-15.75a3.502 3.502 0 0 0-6.924 1.066l.378 2.449a31.52 31.52 0 0 0-1.344-1.059 30.215 30.215 0 0 0-22.522-5.51 30.212 30.212 0 0 0-24.711 22.397l9.555 2.63a20.396 20.396 0 0 1 3.335-7.131c3.094-4.213 7.76-7.23 13.331-8.09 5.572-.856 10.928.618 15.146 3.705.52.381 1.016.793 1.496 1.22l-2.77-.268c-1.773-.172-3.361 1.25-3.547 3.175-.188 1.926 1.1 3.626 2.872 3.797l14.605 1.414c1.585.153 3.015-.97 3.435-2.585.03-.114.046-.231.066-.349.013-.082.039-.157.046-.241.004-.024-.002-.047 0-.07.009-.108.004-.217.002-.327 0-.08.007-.162.002-.241zm-56.504 21.812-.01.002.01.022c.004.062.016.12.024.18l.001.029 2.426 15.75a3.502 3.502 0 0 0 6.924-1.067l-.378-2.448c.44.363.883.722 1.343 1.058a30.219 30.219 0 0 0 22.523 5.51 30.216 30.216 0 0 0 24.712-22.396l-9.556-2.63a20.396 20.396 0 0 1-3.336 7.13c-3.094 4.213-7.757 7.231-13.33 8.09-5.572.857-10.93-.618-15.146-3.706-.52-.38-1.016-.791-1.496-1.22l2.77.269c1.773.17 3.361-1.25 3.548-3.176.186-1.926-1.1-3.625-2.873-3.796l-14.605-1.414c-1.585-.154-3.015.97-3.435 2.585-.03.114-.047.23-.067.349-.013.081-.038.157-.046.24-.002.026.001.048 0 .07-.008.108-.003.217-.002.327 0 .081-.007.163-.002.242z"/></svg>