<svg xmlns="http://www.w3.org/2000/svg" viewBox="0 0 551.947 408.542"><path style="fill:#6288b8" d="M464 64H272L208 0H48C21.49 0 0 21.49 0 48v288c0 26.51 21.49 48 48 48h416c26.51 0 48-21.49 48-48V112c0-26.51-21.49-48-48-48zm-6 272H54c-3.314 0-6-2.678-6-5.992V53.992A5.993 5.993 0 0 1 54 48h134.118l64 64H458a6 6 0 0 1 6 6v212a6 6 0 0 1-6 6z"/><path style="fill:#8b62b8" d="M547.781 277.939c-35.342-59.973-101.254-100.056-176.35-100.056-75.127 0-141.026 40.111-176.35 100.056a30.085 30.085 0 0 0 0 30.549c35.341 59.972 101.254 100.054 176.35 100.054 75.127 0 141.025-40.11 176.35-100.055a30.084 30.084 0 0 0 0-30.548zm-176.35 100.517c-47.111 0-85.244-38.125-85.244-85.243 0-47.111 38.125-85.244 85.244-85.244 47.11 0 85.243 38.125 85.243 85.244 0 47.11-38.125 85.243-85.243 85.243zm65.186-85.243c0 36.001-29.184 65.186-65.186 65.186-36.002 0-65.186-29.185-65.186-65.186 0-11.1 2.777-21.549 7.669-30.696v.02c0 14.824 12.017 26.841 26.841 26.841 14.824 0 26.842-12.017 26.842-26.84 0-14.825-12.018-26.843-26.842-26.843l-.02.001c9.147-4.892 19.597-7.67 30.696-7.67 36.001 0 65.186 29.185 65.186 65.187z"/></svg>