<svg xmlns="http://www.w3.org/2000/svg" xml:space="preserve" width="590.309" height="576.449"><g style="fill:#6288b8;fill-opacity:1;fill-rule:evenodd;stroke:none;stroke-width:1"><path style="fill:#6288b8;fill-opacity:1" d="M61.673-3.094v2.632h2.633l7.621-7.69-2.632-2.633-7.622 7.69zm12.264-7.067a.67.67 0 0 0 0-.97l-1.594-1.594a.67.67 0 0 0-.97 0l-1.247 1.247 2.633 2.633 1.178-1.316z" transform="matrix(46.2223 0 0 46.2223 -2836.818 597.783)"/></g><g transform="matrix(1.16976 0 0 1.16976 -102.515 -98.469)"><circle r="115.998" cy="351.483" cx="333.495" style="opacity:1;fill:#fff;fill-opacity:1;stroke:none;stroke-width:2;stroke-miterlimit:10;stroke-dasharray:none;stroke-opacity:1"/><path style="fill:#b89a62;fill-opacity:1" d="M244.425 98.725c-93.4 0-178.1 51.1-240.6 134.1-5.1 6.8-5.1 16.3 0 23.1 62.5 83.1 147.2 134.2 240.6 134.2s178.1-51.1 240.6-134.1c5.1-6.8 5.1-16.3 0-23.1-62.5-83.1-147.2-134.2-240.6-134.2zm6.7 248.3c-62 3.9-113.2-47.2-109.3-109.3 3.2-51.2 44.7-92.7 95.9-95.9 62-3.9 113.2 47.2 109.3 109.3-3.3 51.1-44.8 92.6-95.9 95.9zm-3.1-47.4c-33.4 2.1-61-25.4-58.8-58.8 1.7-27.6 24.1-49.9 51.7-51.7 33.4-2.1 61 25.4 58.8 58.8-1.8 27.7-24.2 50-51.7 51.7z" transform="matrix(1.02339 0 0 1.02339 87.638 107.59)"/></g></svg>