<svg xmlns="http://www.w3.org/2000/svg" viewBox="0 0 270.044 270.044" style="enable-background:new 0 0 270.044 270.044" xml:space="preserve"><path d="M248.015 230.044h-51.058v-11.305a118.381 118.381 0 0 0 37.355-36.586c12.326-19.081 18.842-41.22 18.842-64.023C253.154 52.993 200.16 0 135.022 0S16.891 52.993 16.891 118.131c0 22.803 6.516 44.941 18.843 64.023a118.389 118.389 0 0 0 37.355 36.585v11.305h-51.06c-11.046 0-20 8.954-20 20s8.954 20 20 20h71.06c11.046 0 20-8.954 20-20V206.87c0-7.732-4.456-14.77-11.444-18.077-27.187-12.868-44.754-40.604-44.754-70.662C56.891 75.05 91.94 40 135.022 40s78.132 35.05 78.132 78.131c0 30.057-17.567 57.794-44.754 70.662a20.001 20.001 0 0 0-11.443 18.077v43.174c0 11.046 8.954 20 20 20h71.058c11.046 0 20-8.954 20-20s-8.954-20-20-20z" style="fill:#6288b8;fill-opacity:1"/></svg>