<svg xmlns="http://www.w3.org/2000/svg" height="1099.599" width="1617.162"><path d="M716.638 974.644V824.7q0-10.934-7.029-17.962-7.029-7.03-17.962-7.03H441.738q-10.933 0-17.962 7.03-7.029 7.028-7.029 17.962v149.945q0 10.934 7.029 17.962 7.029 7.029 17.962 7.029h249.909q10.933 0 17.962-7.029 7.029-7.028 7.029-17.962zm0-299.89V524.808q0-10.933-7.029-17.962-7.029-7.028-17.962-7.028H441.738q-10.933 0-17.962 7.028-7.029 7.029-7.029 17.962v149.946q0 10.933 7.029 17.962 7.029 7.028 17.962 7.028h249.909q10.933 0 17.962-7.028 7.029-7.029 7.029-17.962zm399.854 299.89V824.7q0-10.934-7.029-17.962-7.029-7.03-17.962-7.03H841.592q-10.933 0-17.962 7.03-7.029 7.028-7.029 17.962v149.945q0 10.934 7.029 17.962 7.029 7.029 17.962 7.029h249.909q10.933 0 17.962-7.029 7.029-7.028 7.029-17.962zm-399.854-599.78V224.917q0-10.934-7.029-17.962-7.029-7.029-17.962-7.029H441.738q-10.933 0-17.962 7.029-7.029 7.028-7.029 17.962v149.945q0 10.934 7.029 17.962 7.029 7.029 17.962 7.029h249.909q10.933 0 17.962-7.029 7.029-7.028 7.029-17.962zm399.854 299.89V524.808q0-10.933-7.029-17.962-7.029-7.028-17.962-7.028H841.592q-10.933 0-17.962 7.028-7.029 7.029-7.029 17.962v149.946q0 10.933 7.029 17.962 7.029 7.028 17.962 7.028h249.909q10.933 0 17.962-7.028 7.029-7.029 7.029-17.962zm399.854 299.89V824.7q0-10.934-7.029-17.962-7.029-7.03-17.962-7.03h-249.909q-10.933 0-17.962 7.03-7.029 7.028-7.029 17.962v149.945q0 10.934 7.029 17.962 7.029 7.029 17.962 7.029h249.909q10.933 0 17.962-7.029 7.029-7.028 7.029-17.962zm-399.854-599.78V224.917q0-10.934-7.029-17.962-7.029-7.029-17.962-7.029H841.592q-10.933 0-17.962 7.029-7.029 7.028-7.029 17.962v149.945q0 10.934 7.029 17.962 7.029 7.029 17.962 7.029h249.909q10.933 0 17.962-7.029 7.029-7.028 7.029-17.962zm399.854 299.89V524.808q0-10.933-7.029-17.962-7.029-7.028-17.962-7.028h-249.909q-10.933 0-17.962 7.028-7.029 7.029-7.029 17.962v149.946q0 10.933 7.029 17.962 7.029 7.028 17.962 7.028h249.909q10.933 0 17.962-7.028 7.029-7.029 7.029-17.962zm0-299.89V224.917q0-10.934-7.029-17.962-7.029-7.029-17.962-7.029h-249.909q-10.933 0-17.962 7.029-7.029 7.028-7.029 17.962v149.945q0 10.934 7.029 17.962 7.029 7.029 17.962 7.029h249.909q10.933 0 17.962-7.029 7.029-7.028 7.029-17.962zm99.963-249.91v849.69q0 51.544-36.705 88.25-36.705 36.705-88.25 36.705H441.739q-51.543 0-88.249-36.706-36.705-36.705-36.705-88.249v-849.69q0-51.543 36.705-88.249Q390.195 0 441.74 0h1049.616q51.544 0 88.249 36.705 36.705 36.706 36.705 88.25z" style="fill:#6288b8;fill-opacity:1"/><path d="M1989.291 332.825h543.534l-97.817 97.813c-29.546 29.546-29.546 77.447 0 106.99 29.54 29.54 77.447 29.54 106.99 0l226.968-226.96c.111-.111.202-.232.312-.342a76.368 76.368 0 0 0 4.646-5.13c.455-.55.838-1.141 1.27-1.7 1.087-1.392 2.169-2.79 3.154-4.255.322-.495.601-1.018.923-1.519 1.008-1.59 2.003-3.182 2.9-4.847.198-.364.345-.75.54-1.118.939-1.827 1.846-3.673 2.633-5.578.107-.257.185-.53.299-.793.806-2.02 1.57-4.067 2.204-6.17.085-.283.137-.57.218-.852.604-2.074 1.154-4.161 1.583-6.303.127-.647.185-1.307.299-1.957.312-1.782.624-3.56.806-5.38.244-2.5.374-5.023.374-7.555 0-2.533-.13-5.055-.377-7.555-.186-1.847-.504-3.648-.816-5.449-.111-.624-.156-1.264-.286-1.885-.432-2.175-.995-4.298-1.603-6.4-.075-.248-.117-.511-.198-.758-.65-2.133-1.418-4.217-2.243-6.274-.091-.221-.156-.459-.247-.68-.813-1.95-1.736-3.839-2.698-5.698-.166-.329-.31-.67-.478-.998-.927-1.72-1.957-3.375-3-5.013-.287-.445-.53-.914-.817-1.346-1.043-1.557-2.188-3.043-3.345-4.515-.367-.475-.695-.972-1.08-1.437a78.205 78.205 0 0 0-4.973-5.497L2542.012-23.288c-14.772-14.771-34.137-22.16-53.499-22.16-19.362 0-38.727 7.389-53.492 22.16-29.546 29.547-29.546 77.447 0 106.99l97.813 97.814h-543.533c-41.783 0-75.656 33.873-75.656 75.656 0 41.782 33.864 75.653 75.646 75.653z" style="fill:#b89a62;fill-opacity:1" transform="matrix(1.58076 0 0 1.72675 -3025.01 101)"/></svg>