<svg xmlns="http://www.w3.org/2000/svg" height="1408" width="1664"><path style="opacity:1;fill:#62b880;fill-opacity:1;stroke:none;stroke-width:2;stroke-miterlimit:10;stroke-dasharray:none;stroke-opacity:1" d="M45.559 565.153h1602.169v387.254H45.559z"/><path d="M512 1248v-192q0-14-9-23t-23-9H160q-14 0-23 9t-9 23v192q0 14 9 23t23 9h320q14 0 23-9t9-23zm0-384V672q0-14-9-23t-23-9H160q-14 0-23 9t-9 23v192q0 14 9 23t23 9h320q14 0 23-9t9-23zm512 384v-192q0-14-9-23t-23-9H672q-14 0-23 9t-9 23v192q0 14 9 23t23 9h320q14 0 23-9t9-23zM512 480V288q0-14-9-23t-23-9H160q-14 0-23 9t-9 23v192q0 14 9 23t23 9h320q14 0 23-9t9-23zm512 384V672q0-14-9-23t-23-9H672q-14 0-23 9t-9 23v192q0 14 9 23t23 9h320q14 0 23-9t9-23zm512 384v-192q0-14-9-23t-23-9h-320q-14 0-23 9t-9 23v192q0 14 9 23t23 9h320q14 0 23-9t9-23zm-512-768V288q0-14-9-23t-23-9H672q-14 0-23 9t-9 23v192q0 14 9 23t23 9h320q14 0 23-9t9-23zm512 384V672q0-14-9-23t-23-9h-320q-14 0-23 9t-9 23v192q0 14 9 23t23 9h320q14 0 23-9t9-23zm0-384V288q0-14-9-23t-23-9h-320q-14 0-23 9t-9 23v192q0 14 9 23t23 9h320q14 0 23-9t9-23zm128-320v1088q0 66-47 113t-113 47H160q-66 0-113-47T0 1248V160Q0 94 47 47T160 0h1344q66 0 113 47t47 113z" style="fill:#6288b8;fill-opacity:1"/></svg>