<svg xmlns="http://www.w3.org/2000/svg" height="1408" width="1664"><path transform="matrix(-.01902 .99982 -.99997 -.00756 0 0)" style="opacity:1;fill:#8b62b8;fill-opacity:1;stroke:none;stroke-width:2;stroke-miterlimit:10;stroke-dasharray:none;stroke-opacity:1" d="M108.944-1606.136H1332.8v469.086H108.944zM116.719-578.255h1223.856v469.086H116.719z"/><path d="M1032 1248v-192c0-9.333-3-17-9-23s-13.667-9-23-9H680c-9.333 0-17 3-23 9s-9 13.667-9 23v192c0 9.333 3 17 9 23s13.667 9 23 9h320c9.333 0 17-3 23-9s9-13.667 9-23zm0-384V672c0-9.333-3-17-9-23s-13.667-9-23-9H680c-9.333 0-17 3-23 9s-9 13.667-9 23v192c0 9.333 3 17 9 23s13.667 9 23 9h320c9.333 0 17-3 23-9s9-13.667 9-23zm-904 384c0 9.333 3 17 9 23s13.667 9 23 9h320c9.333 0 17-3 23-9s9-13.667 9-23V288c0-9.333-3-17-9-23s-13.667-9-23-9H160c-9.333 0-17 3-23 9s-9 13.667-9 23zm904-768V288c0-9.333-3-17-9-23s-13.667-9-23-9H680c-9.333 0-17 3-23 9s-9 13.667-9 23v192c0 9.333 3 17 9 23s13.667 9 23 9h320c9.333 0 17-3 23-9s9-13.667 9-23zm120 768c0 9.333 3 17 9 23s13.667 9 23 9h320c9.333 0 17-3 23-9s9-13.667 9-23V288c0-9.333-3-17-9-23s-13.667-9-23-9h-320c-9.333 0-17 3-23 9s-7.404 13.804-9 23zm512-1088v1088c0 44-15.667 81.667-47 113s-69 47-113 47H160c-44 0-81.667-15.667-113-47s-47-69-47-113V160c0-44 15.667-81.667 47-113S116 0 160 0h1344c44 0 81.667 15.667 113 47s47 69 47 113z" style="fill:#6288b8;fill-opacity:1"/></svg>