<svg xmlns="http://www.w3.org/2000/svg" height="1099.599" width="1617.162"><path d="M399.854 974.644V824.7q0-10.934-7.029-17.962-7.028-7.03-17.962-7.03H124.954q-10.933 0-17.962 7.03-7.029 7.028-7.029 17.962v149.945q0 10.934 7.03 17.962 7.028 7.029 17.961 7.029h249.91q10.933 0 17.961-7.029 7.029-7.028 7.029-17.962zm0-299.89V524.808q0-10.933-7.029-17.962-7.028-7.029-17.962-7.029H124.954q-10.933 0-17.962 7.03-7.029 7.028-7.029 17.961v149.946q0 10.933 7.03 17.962 7.028 7.028 17.961 7.028h249.91q10.933 0 17.961-7.028 7.029-7.029 7.029-17.962zm399.854 299.89V824.7q0-10.934-7.029-17.962-7.028-7.03-17.962-7.03H524.808q-10.933 0-17.962 7.03-7.029 7.028-7.029 17.962v149.945q0 10.934 7.03 17.962 7.028 7.029 17.961 7.029h249.91q10.933 0 17.961-7.029 7.029-7.028 7.029-17.962zm-399.854-599.78V224.917q0-10.934-7.029-17.962-7.028-7.029-17.962-7.029H124.954q-10.933 0-17.962 7.029-7.029 7.028-7.029 17.962v149.945q0 10.934 7.03 17.962 7.028 7.029 17.961 7.029h249.91q10.933 0 17.961-7.029 7.029-7.028 7.029-17.962zm399.854 299.89V524.808q0-10.933-7.029-17.962-7.028-7.029-17.962-7.029H524.808q-10.933 0-17.962 7.03-7.029 7.028-7.029 17.961v149.946q0 10.933 7.03 17.962 7.028 7.028 17.961 7.028h249.91q10.933 0 17.961-7.028 7.029-7.029 7.029-17.962zm399.854 299.89V824.7q0-10.934-7.029-17.962-7.028-7.03-17.962-7.03H924.662q-10.933 0-17.962 7.03-7.029 7.028-7.029 17.962v149.945q0 10.934 7.03 17.962 7.028 7.029 17.961 7.029h249.91q10.933 0 17.961-7.029 7.029-7.028 7.029-17.962zm-399.854-599.78V224.917q0-10.934-7.029-17.962-7.028-7.029-17.962-7.029H524.808q-10.933 0-17.962 7.029-7.029 7.028-7.029 17.962v149.945q0 10.934 7.03 17.962 7.028 7.029 17.961 7.029h249.91q10.933 0 17.961-7.029 7.029-7.028 7.029-17.962zm399.854 299.89V524.808q0-10.933-7.029-17.962-7.028-7.029-17.962-7.029H924.662q-10.933 0-17.962 7.03-7.029 7.028-7.029 17.961v149.946q0 10.933 7.03 17.962 7.028 7.028 17.961 7.028h249.91q10.933 0 17.961-7.028 7.029-7.029 7.029-17.962zm0-299.89V224.917q0-10.934-7.029-17.962-7.028-7.029-17.962-7.029H924.662q-10.933 0-17.962 7.029-7.029 7.028-7.029 17.962v149.945q0 10.934 7.03 17.962 7.028 7.029 17.961 7.029h249.91q10.933 0 17.961-7.029 7.029-7.028 7.029-17.962zm99.963-249.91v849.69q0 51.544-36.705 88.25-36.705 36.705-88.249 36.705H124.954q-51.543 0-88.249-36.706Q0 1026.188 0 974.644v-849.69q0-51.543 36.705-88.249Q73.411 0 124.955 0H1174.57q51.544 0 88.25 36.705 36.704 36.706 36.704 88.25z" style="fill:#6288b8;fill-opacity:1"/><path d="M2123.943 332.825h543.533l-97.816 97.813c-29.547 29.546-29.547 77.447 0 106.99 29.54 29.54 77.447 29.54 106.99 0l226.968-226.96c.11-.111.201-.232.312-.342a76.368 76.368 0 0 0 4.645-5.13c.455-.55.839-1.141 1.271-1.7 1.086-1.392 2.168-2.79 3.153-4.255.322-.495.602-1.018.924-1.519 1.007-1.59 2.002-3.182 2.9-4.847.198-.364.344-.75.539-1.118.94-1.827 1.847-3.673 2.633-5.578.107-.257.185-.53.3-.793.805-2.02 1.57-4.067 2.203-6.17.085-.283.137-.57.218-.852.605-2.074 1.154-4.161 1.583-6.303.127-.647.186-1.307.3-1.957.311-1.782.623-3.56.805-5.38.244-2.5.374-5.023.374-7.555 0-2.533-.13-5.055-.377-7.555-.185-1.847-.504-3.648-.816-5.449-.11-.624-.156-1.264-.286-1.885-.432-2.175-.995-4.298-1.602-6.4-.075-.248-.118-.511-.199-.758-.65-2.133-1.417-4.217-2.243-6.274-.09-.221-.156-.459-.247-.68-.813-1.95-1.736-3.839-2.698-5.698-.166-.329-.309-.67-.478-.998-.926-1.72-1.957-3.375-3-5.013-.286-.445-.53-.914-.816-1.346-1.044-1.557-2.188-3.043-3.345-4.515-.368-.475-.696-.972-1.08-1.437a78.205 78.205 0 0 0-4.973-5.497L2676.663-23.288c-14.772-14.771-34.137-22.16-53.498-22.16-19.362 0-38.727 7.389-53.492 22.16-29.547 29.547-29.547 77.447 0 106.99l97.813 97.814h-543.533c-41.783 0-75.656 33.873-75.656 75.656 0 41.782 33.863 75.653 75.646 75.653z" style="fill:#b89a62;fill-opacity:1" transform="matrix(1.58076 0 0 1.72675 -3025.01 101)"/></svg>