<svg xmlns="http://www.w3.org/2000/svg" height="1408" width="1664"><path style="opacity:1;fill:#8b62b8;fill-opacity:1;stroke:none;stroke-width:1.96124542;stroke-miterlimit:10;stroke-dasharray:none;stroke-opacity:1" d="M68.339 952.407H1579.39v394.848H68.339zM68.339 189.288H1579.39v394.848H68.339z"/><path d="M512 864V672c0-9.333-3-17-9-23s-13.667-9-23-9H160c-9.333 0-17 3-23 9s-9 13.667-9 23v192c0 9.333 3 17 9 23s13.667 9 23 9h320c9.333 0 17-3 23-9s9-13.667 9-23zm512 0V672c0-9.333-3-17-9-23s-13.667-9-23-9H672c-9.333 0-17 3-23 9s-9 13.667-9 23v192c0 9.333 3 17 9 23s13.667 9 23 9h320c9.333 0 17-3 23-9s9-13.667 9-23zm480 416c9.333 0 17-3 23-9s9-13.667 9-23v-192c0-9.333-3-17-9-23s-13.667-9-23-9H160c-9.333 0-17 3-23 9s-9 13.667-9 23v192c0 9.333 3 17 9 23s13.667 9 23 9zm32-416V672c0-9.333-3-17-9-23s-13.667-9-23-9h-320c-9.333 0-17 3-23 9s-9 13.667-9 23v192c0 9.333 3 17 9 23s13.667 9 23 9h320c9.333 0 17-3 23-9s9-13.667 9-23zm-32-352c9.333 0 17-3 23-9s9-13.667 9-23V288c0-9.333-3-17-9-23s-13.667-9-23-9H160c-9.333 0-17 3-23 9s-9 13.667-9 23v192c0 9.333 3 17 9 23s13.667 9 23 9zm160-352v1088c0 44-15.667 81.667-47 113s-69 47-113 47H160c-44 0-81.667-15.667-113-47s-47-69-47-113V160c0-44 15.667-81.667 47-113S116 0 160 0h1344c44 0 81.667 15.667 113 47s47 69 47 113z" style="fill:#6288b8;fill-opacity:1"/></svg>