<svg xmlns="http://www.w3.org/2000/svg" height="19.657" width="30.547" xml:space="preserve"><path d="m-187.148-31.646 6.721-6.72a1.72 1.72 0 0 0-2.432-2.432l-7.91 7.91a1.71 1.71 0 0 0-.504 1.24c-.006.448.16.896.504 1.239l7.91 7.91a1.72 1.72 0 0 0 2.432-2.432l-6.721-6.715zM-161.23-33.239l-7.91-7.91a1.72 1.72 0 0 0-2.433 2.43l6.72 6.719-6.72 6.721a1.72 1.72 0 0 0 2.433 2.431l7.91-7.91c.342-.342.51-.791.504-1.24a1.74 1.74 0 0 0-.504-1.241z" style="fill:#b89a62;fill-opacity:1" transform="translate(191.273 41.653)"/></svg>