<svg xmlns="http://www.w3.org/2000/svg" height="419" width="512" xml:space="preserve"><path d="M125.269 94.862a23.265 23.265 0 0 0-25.361 5.045L6.817 192.998c-9.09 9.09-9.09 23.824 0 32.912l93.09 93.091a23.272 23.272 0 0 0 39.729-16.456V116.363a23.27 23.27 0 0 0-14.367-21.5z" style="fill:#b86262"/><path d="M23.273 418.91h465.455c12.853 0 23.273-10.42 23.273-23.273s-10.42-23.273-23.273-23.273H23.273C10.42 372.364 0 382.784 0 395.637s10.42 23.273 23.273 23.273zM23.273 46.546h465.455c12.853 0 23.273-10.42 23.273-23.273S501.581 0 488.728 0H23.273C10.42 0 0 10.42 0 23.273s10.42 23.273 23.273 23.273z" style="fill:#6288b8"/><path style="fill:none;stroke:#6288b8;stroke-width:47;stroke-linecap:round;stroke-linejoin:round;stroke-miterlimit:4;stroke-dasharray:none;stroke-opacity:1;stop-color:#000" d="M257.093 114.966h230.795v190.833H257.093z"/></svg>