<svg width="32" height="32" xmlns="http://www.w3.org/2000/svg"><path d="M23.903 12.998 24.5 13a1.5 1.5 0 0 1 1.233.646l.078.126 5.031 9.057.05.111.013.033c.072.188.102.38.097.569L31 29.5a1.5 1.5 0 0 1-1.356 1.493L29.5 31h-27a1.5 1.5 0 0 1-1.493-1.356L1 29.5v-5.919c-.011-.197.017-.4.091-.598l.014-.035.063-.138 5.247-9.062a1.5 1.5 0 0 1 1.153-.741L7.713 13h.665a2.98 2.98 0 0 0-.484.321l-.172.153-.106.107-.103.114c-.949 1.16-.949 2.746-.05 3.847l.133.15L5.102 22H11.9l2.12 2.121.169.155c1.16.949 2.745.949 3.847.05l.172-.153L20.382 22h6.568l-2.345-4.221.165-.179.05-.058a3 3 0 0 0-.917-4.544zM28 25H4v3h24v-3zM16 1a1.5 1.5 0 0 1 1.493 1.356l.007.144v16.026l3.94-3.94.113-.102a1.5 1.5 0 0 1 2.11 2.11l-.102.114-6.353 6.353-.114.103a1.5 1.5 0 0 1-1.893 0l-.114-.103-6.353-6.353-.103-.114a1.5 1.5 0 0 1 0-1.893l.103-.114.114-.103a1.5 1.5 0 0 1 1.894 0l.114.103L14.5 18.23V2.5l.007-.144A1.5 1.5 0 0 1 16 1zm5.082 12a3 3 0 0 0-.483.321l-.172.153-1.433 1.431V13h2.088zm-9.907-.002 1.819.002v1.61l-1.084-1.084-.168-.155a3.249 3.249 0 0 0-.567-.373z" fill="#6288B8" fill-rule="nonzero"/></svg>