<svg width="32" height="32" xmlns="http://www.w3.org/2000/svg"><path d="M7 .5a1.5 1.5 0 0 1 1.493 1.356L8.5 2v28a1.5 1.5 0 0 1-1.356 1.493L7 31.5H2a1.5 1.5 0 0 1-1.493-1.356L.5 30V2A1.5 1.5 0 0 1 1.856.507L2 .5h5zm10 0a1.5 1.5 0 0 1 1.457 1.142l.091-.033.14-.037 4.89-1.04a1.5 1.5 0 0 1 1.743 1.016l.037.14 5.718 26.9a1.5 1.5 0 0 1-1.016 1.742l-.14.036-4.89 1.04a1.5 1.5 0 0 1-1.743-1.016l-.037-.14L18.5 7.905V30a1.5 1.5 0 0 1-1.356 1.493L17 31.5h-5a1.5 1.5 0 0 1-1.493-1.356L10.5 30V2A1.5 1.5 0 0 1 11.856.507L12 .5h5zm-11.5 3h-2v25h2v-25zm10 0h-2v25h2v-25zm7.235.279-1.956.416 5.094 23.964 1.956-.416L22.735 3.78z" fill="#6288B8" fill-rule="nonzero"/></svg>