<svg xmlns="http://www.w3.org/2000/svg" height="32" width="32"><path d="M7.262 20.228V17.79H5.733c-1.159 0-2.147-.818-2.228-1.89l-.005-.14V5.196c0-1.093.94-1.957 2.083-2.027l.15-.005h20.534c1.159 0 2.147.82 2.228 1.89l.005.142v10.562c0 1.092-.94 1.957-2.083 2.027l-.15.004h-.913v2.438h.913c2.843 0 5.12-1.922 5.229-4.29l.004-.179V5.197c0-2.39-2.207-4.37-5.021-4.465l-.212-.004H5.733C2.89.728.613 2.649.504 5.018L.5 5.197v10.562c0 2.39 2.207 4.37 5.021 4.465l.212.004z" fill="#6288b8" style="stroke:none;stroke-width:1"/><path d="M23.56 22.431c.55.528.584 1.364.104 1.93l-.103.11-6.353 6.107-.114.099a1.548 1.548 0 0 1-1.893 0l-.114-.1-6.353-6.107-.103-.109a1.4 1.4 0 0 1 0-1.82l.103-.11.114-.099a1.548 1.548 0 0 1 1.894 0l.114.1 3.644 3.5V10.812l.007-.139C14.58 9.941 15.22 9.37 16 9.37c.78 0 1.42.572 1.493 1.303l.007.139v15.408l3.94-3.788.113-.099a1.545 1.545 0 0 1 2.008.1z" fill="#62b880" style="stroke:none;stroke-width:1"/></svg>