<svg width="32" height="32" xmlns="http://www.w3.org/2000/svg"><path d="M16 0c8.837 0 16 7.163 16 16s-7.163 16-16 16S0 24.837 0 16 7.163 0 16 0zm0 3.097C8.874 3.097 3.097 8.874 3.097 16S8.874 28.903 16 28.903 28.903 23.126 28.903 16 23.126 3.097 16 3.097zm2.477 9.187a1.548 1.548 0 0 1 .15 3.09l-.15.007-.86-.001v6.4h2.267a1.548 1.548 0 0 1 .15 3.09l-.15.007h-8.013a1.548 1.548 0 0 1-.15-3.09l.15-.006h2.649V15.38h-.997a1.548 1.548 0 0 1-.15-3.089l.15-.007h4.954zM16 6.194a2.065 2.065 0 1 1 0 4.129 2.065 2.065 0 0 1 0-4.13z" fill="#6288B8" fill-rule="nonzero"/></svg>