<svg width="32" height="32" xmlns="http://www.w3.org/2000/svg"><g fill="none" fill-rule="nonzero"><path d="m14.562 0 .21.002.458.017c.31.009.626.011.951.009l.495-.009.508-.016c1.11-.041 2 .505 2.465 1.507l1.035 2.283.092.218.037.099.037.111.516-.219.853-.354.908-.367.48-.19c.923-.368 1.855-.162 2.569.478l.266.263.667.677.386.385.44.427.217.203c.81.751 1.077 1.765.682 2.8l-.707 1.86-.364.908.385.148.458.182 1.78.74c1.08.448 1.665 1.38 1.61 2.57l-.014.38-.007.403v.695l.015 1.177c.012.877-.376 1.656-1.18 2.086l-.78.41-.306.154-.437.203-.293.13-.494.207V17.5h-.436l.143-.064.144-.068.312-.154.32-.168-.009-.86v-.583l.008-.52.007-.254-1.492-.62-.565-.223-.399-.15c-.796-.294-1.346-.821-1.648-1.626-.262-.702-.27-1.367.023-2.064l.24-.586.33-.843.443-1.172-.437-.42-.79-.792-.316-.321-1.017.41-.83.345-.788.336c-.593.257-1.15.263-1.757.084-.967-.285-1.643-.932-1.942-1.871l-.06-.205-.05-.116-.897-1.987-.294.01c-.366.01-.721.013-1.065.01l-.506-.009-.322-.012-.446 1.04-.236.574-.136.356-.081.233c-.353 1.035-1.002 1.738-2.055 2.022-.547.147-1.02.158-1.57-.062l-2.324-.908-.454-.174-.595.616-.45.45-.276.267-.238.222.474 1.178.182.433.112.25.167.352c.476.968.503 1.923-.03 2.856-.28.495-.61.84-1.172 1.056l-.656.258c-.103.04-.203.081-.301.121l-.564.237-.268.117-.33.151a15.17 15.17 0 0 0-.173.085l-.412.208.015.89v.551l-.01.504-.013.287 2.795 1.135c.125.045.218.083.34.151.27.152.504.36.664.678l.182.404c.39.84.487 1.539.064 2.42l-.112.24-.163.376-.178.45-.527 1.415.256.243.338.33.59.594.367.379 2.84-1.18c.124-.055.238-.096.382-.128a1.6 1.6 0 0 1 .982.077l.2.076c.425.155.65.256.944.466a2.6 2.6 0 0 1 .88 1.103l.078.201.086.24.093.24.165.393.211.473.483 1.037.301-.007c.38-.008.748-.01 1.106-.008l.53.008.25.007.343-.799v.309h3.119l-.07.18-.173.419-.568 1.322c-.444 1.045-1.356 1.62-2.499 1.576-.78-.03-1.604-.03-2.524-.001-1.018.033-1.864-.437-2.333-1.314l-.083-.169-.626-1.349-.165-.365-.14-.325-.123-.299-.111-.29-.041-.111-2.722 1.125c-1.017.414-2.033.15-2.78-.625l-.829-.85-.38-.378-.341-.329-.227-.211c-.796-.733-1.084-1.698-.768-2.704l.067-.189.56-1.505.213-.546.129-.311.149-.338-2.555-1.039c-1.134-.467-1.748-1.43-1.673-2.686l.019-.407.009-.44v-.491l-.022-1.197c-.016-.924.4-1.726 1.236-2.167l.432-.226.373-.19.337-.163.328-.15.592-.254.31-.129.59-.237-.119-.25-.142-.31a18.826 18.826 0 0 1-.071-.164l-.323-.776-.441-1.104c-.44-1.087-.189-2.16.688-2.954l.365-.339.38-.372.438-.443.534-.554c.72-.753 1.663-1.053 2.651-.75l.248.088 2.216.855.474.187.123-.349.128-.338.15-.37.673-1.578C12.565.704 13.286.153 14.2.027l.224-.023.137-.004zm1.444 9.314.234.005c3.58.126 6.462 3.087 6.454 6.692a6.681 6.681 0 0 1-.17 1.49L22.5 17.5v.095a6.728 6.728 0 0 1-4.908 4.906L17.5 22.5l.001.022c-.484.112-.988.17-1.506.17-3.686-.005-6.69-3.011-6.687-6.694.004-3.607 2.885-6.558 6.464-6.68l.234-.004zm-.002 3A3.704 3.704 0 0 0 12.308 16c-.002 2.026 1.66 3.689 3.691 3.692 2.026.002 3.69-1.658 3.695-3.688.004-2.022-1.66-3.688-3.69-3.69z" fill="#6288B8"/><path fill="#62B880" d="M27 19v5h5v3h-5v5h-3v-5h-5v-3h5v-5z"/></g></svg>