<svg width="32" height="32" xmlns="http://www.w3.org/2000/svg"><g fill="none" fill-rule="nonzero"><path d="M12.94 1c2.092 0 3.789 1.7 3.789 3.797 0 .582-.131 1.134-.365 1.627h3.243c.43 0 .79.297.886.697h1.761c1.359 0 2.528 1 2.62 2.342l.005.17V16H21.84v-5.842l-1.375.001a.912.912 0 0 1-.858.604H6.272a.912.912 0 0 1-.858-.604H4.037v17.803H16V28h5v3H3.625c-1.359 0-2.528-1-2.62-2.342L1 28.488V9.633c0-1.368 1.115-2.424 2.456-2.506l.169-.005h1.761a.912.912 0 0 1 .886-.697h3.243a3.788 3.788 0 0 1-.365-1.627A3.793 3.793 0 0 1 12.94 1zm4.736 12.535 2.148 2.149-8.69 8.69-5.08-5.08 2.149-2.147 2.931 2.93 6.542-6.542zM12.94 4.038a.755.755 0 0 0-.752.759c0 .42.338.758.752.758a.755.755 0 0 0 .75-.758.755.755 0 0 0-.75-.759z" fill="#6288B8"/><path fill="#62B880" d="M26 18v5h5v3h-5v5h-3v-5h-5v-3h5v-5z"/></g></svg>