<svg width="32" height="32" xmlns="http://www.w3.org/2000/svg"><path d="M16 1c2.093 0 3.79 1.7 3.79 3.797 0 .582-.132 1.134-.366 1.627h3.243c.43 0 .79.297.886.697h1.762c1.358 0 2.527 1 2.619 2.342l.006.17v18.856c0 1.368-1.115 2.424-2.456 2.506l-.17.005H6.686c-1.358 0-2.527-1-2.619-2.342l-.006-.17V9.633c0-1.368 1.115-2.424 2.456-2.506l.17-.005h1.76a.912.912 0 0 1 .887-.697h3.243a3.788 3.788 0 0 1-.365-1.627A3.793 3.793 0 0 1 16 1zm8.901 9.158-1.376.001a.912.912 0 0 1-.858.604H9.333a.912.912 0 0 1-.858-.604H7.098v17.803H24.9V10.158zm-4.164 3.377 2.148 2.149-8.69 8.69-5.08-5.08 2.148-2.147 2.931 2.93 6.543-6.542zM16 4.038a.755.755 0 0 0-.751.759c0 .42.337.758.751.758a.755.755 0 0 0 .751-.758.755.755 0 0 0-.751-.759z" fill="#6288B8" fill-rule="nonzero"/></svg>