<svg xmlns="http://www.w3.org/2000/svg" xmlns:xlink="http://www.w3.org/1999/xlink" width="100" height="100" viewBox="0 0 26.458 26.458"><defs><radialGradient gradientUnits="userSpaceOnUse" gradientTransform="matrix(2.60923 -.03668 .03294 2.34308 -2025.29 -648.585)" r="94.746" fy="555.571" fx="1007.07" cy="555.571" cx="1007.07" id="d" xlink:href="#a"/><radialGradient gradientUnits="userSpaceOnUse" gradientTransform="matrix(.10547 0 0 .08875 -90.92 224.106)" r="356.347" fy="643.652" fx="1007.837" cy="643.652" cx="1007.837" id="c" xlink:href="#b"/><linearGradient id="a"><stop style="stop-color:#fbf1ff;stop-opacity:1" offset="0"/><stop style="stop-color:#000;stop-opacity:.99489802" offset="1"/></linearGradient><linearGradient gradientTransform="matrix(.69296 0 0 -.69296 47.193 1226.259)" y2="468.784" x2="1038.378" y1="803.059" x1="1373.426" gradientUnits="userSpaceOnUse" id="b"><stop style="stop-color:#920ea2;stop-opacity:1" offset="0"/><stop style="stop-color:#000;stop-opacity:1" offset="1"/></linearGradient></defs><path d="M8.888 275.512c-1.714-.4-3.444-.237-4.885.514-1.555.81-2.592 2.209-2.833 3.959-.547 3.938 3.014 7.775 7.481 8.073-.032 2.077.76 4.146 2.238 5.732 1.483 1.594 3.387 2.414 5.274 2.312 1.782-.097 3.272-1.005 4.215-2.474v-.001c.874-1.36 1.178-3.055.916-4.78 1.353.079 2.454-.47 3.112-1.496.624-.97.78-2.26.478-3.628-.289-1.315-.977-2.59-1.946-3.632-.963-1.036-2.128-1.756-3.32-2.042-.192-1.199-.822-2.41-1.784-3.444-.97-1.041-2.198-1.825-3.495-2.218-1.354-.41-2.662-.36-3.69.176-1.088.566-1.728 1.607-1.761 2.95z" style="fill:url(#c);fill-opacity:1;stroke:none;stroke-width:.22786611;stroke-miterlimit:4;stroke-dasharray:none;stroke-opacity:1" transform="translate(0 -270.542)"/><path style="fill:url(#d);fill-opacity:1;stroke:none;stroke-width:.77510375;stroke-miterlimit:4;stroke-dasharray:none;stroke-opacity:1;filter:url(#filter12251)" d="M612.537 592.156c-4.308-.023-7.506 2.657-7.432 7.08.099 5.796 5.668 11.788 12.075 12.98 6.02 1.124 10.05-2.575 9.36-7.915-.656-5.055-5.396-10.144-10.87-11.684a11.84 11.84 0 0 0-3.133-.46zm-22.07 12.936c-6.31-.194-11.672 3.61-12.244 9.724-.705 7.537 6.053 14.787 14.529 15.616 7.877.766 13.591-4.472 13.273-11.23-.29-6.333-5.848-12.308-12.808-13.776a15.671 15.671 0 0 0-2.75-.334zm44.642 9.36c-4.333.035-7.366 3.513-6.804 8.792.674 6.423 6.25 12.412 12.074 12.977 5.478.535 8.685-4.036 7.523-9.893-1.1-5.525-5.836-10.615-10.861-11.678a9.014 9.014 0 0 0-1.932-.199zm-17.44 19.097c-6.223-.108-11.25 4.938-11.128 12.281.137 8.44 6.887 15.692 14.525 15.611 7.085-.078 11.644-6.56 10.674-14.025-.91-6.995-6.466-12.97-12.81-13.777a11.59 11.59 0 0 0-1.26-.09z" transform="matrix(.26458 0 0 .26458 -148.324 -152.806)"/></svg>