<svg xmlns="http://www.w3.org/2000/svg" xmlns:xlink="http://www.w3.org/1999/xlink" width="256" height="256"><defs><radialGradient id="d" gradientUnits="userSpaceOnUse" gradientTransform="matrix(4.00405 0 0 3.16165 -164.504 -657.562)" r="6.166" fy="297.703" fx="44.485" cy="297.703" cx="44.485" xlink:href="#a"/><radialGradient xlink:href="#b" id="c" cx="1007.837" cy="643.652" fx="1007.837" fy="643.652" r="356.347" gradientTransform="matrix(.10234 0 0 .08611 -44.412 237.916)" gradientUnits="userSpaceOnUse"/><linearGradient id="b" gradientUnits="userSpaceOnUse" x1="1373.426" y1="803.059" x2="1038.378" y2="468.784" gradientTransform="matrix(.69296 0 0 -.69296 47.193 1226.259)"><stop offset="0" style="stop-color:#050ea2;stop-opacity:1"/><stop offset="1" style="stop-color:#000;stop-opacity:1"/></linearGradient><linearGradient id="a"><stop offset="0" style="stop-color:#fbf1ff;stop-opacity:1"/><stop offset="1" style="stop-color:#000;stop-opacity:.99489802"/></linearGradient></defs><g style="stroke-width:.99842036"><path d="M52.308 287.541c-1.713-.4-3.443-.237-4.885.514-1.555.81-2.591 2.208-2.833 3.959-.546 3.938 3.015 7.774 7.482 8.072-.032 2.078.76 4.146 2.237 5.732 1.484 1.594 3.387 2.415 5.275 2.312 1.781-.096 3.272-1.004 4.214-2.474.875-1.36 1.179-3.055.917-4.78 1.353.079 2.453-.47 3.112-1.496.623-.97.78-2.26.478-3.628-.289-1.316-.978-2.59-1.946-3.632-.963-1.036-2.129-1.756-3.321-2.042-.191-1.199-.821-2.41-1.784-3.445-.97-1.04-2.197-1.825-3.495-2.217-1.354-.41-2.661-.36-3.69.176-1.087.566-1.727 1.606-1.76 2.95z" style="fill:#fbf1ff;fill-opacity:1;stroke:none;stroke-width:.22750618;stroke-miterlimit:4;stroke-dasharray:none;stroke-opacity:1" transform="matrix(10.70289 0 0 10.6691 -476.651 -3031.566)"/><path d="M52.433 287.797c-1.663-.389-3.342-.23-4.74.498-1.51.787-2.515 2.143-2.75 3.841-.53 3.822 2.926 7.544 7.26 7.833-.03 2.016.738 4.023 2.171 5.562 1.44 1.547 3.287 2.343 5.118 2.244 1.729-.094 3.175-.975 4.09-2.401v-.001c.848-1.32 1.143-2.964.889-4.637 1.312.076 2.38-.456 3.02-1.452.604-.941.756-2.193.463-3.52-.28-1.277-.948-2.514-1.888-3.525-.934-1.005-2.065-1.704-3.222-1.981-.186-1.163-.797-2.338-1.731-3.342-.941-1.01-2.133-1.771-3.391-2.152-1.314-.397-2.583-.349-3.58.17-1.056.55-1.677 1.56-1.71 2.863z" style="fill:url(#c);fill-opacity:1;stroke:none;stroke-width:.22075209;stroke-miterlimit:4;stroke-dasharray:none;stroke-opacity:1" transform="matrix(10.70289 0 0 10.6691 -476.651 -3031.566)"/></g><path transform="matrix(9.99629 0 0 9.96473 5.669 -2709.763)" d="M13.594 277.852c-.932-.1-2.408.288-2.45.408-.044.12.018.592.018.592l-1.338-.128c-.198-.019-.34.119-.319.312l.168 1.548a.455.455 0 0 0 .406.39l1.375.102.242 1.846-.85-.047c-.152-.008-.255.113-.237.27l.145 1.241c.019.162.156.3.31.307l.868.032s.432 3.71.548 3.879c.116.168 1.99.915 3.05.903 3.086-.035 4.814-2.814 4.085-5.979-.675-2.93-3.291-5.38-6.022-5.676m-5.865 3.176c-.165-.012-.29.11-.277.272l.1 1.281a.354.354 0 0 0 .331.315l1.295.07c.163.008.277-.115.26-.279l-.13-1.26a.355.355 0 0 0-.314-.309l-1.265-.09m2.724.564c-.06-.004-.1.04-.094.1l.055.466c.003.06.06.11.118.114l.46.028c.06.004.1-.041.093-.1l-.058-.464c-.011-.059-.06-.11-.118-.113l-.456-.031m-1.519 2.423c-.109-.005-.19.084-.18.196l.082.889a.23.23 0 0 0 .22.208l.86.027c.108.003.18-.081.169-.195l-.095-.879c-.013-.11-.103-.205-.21-.21l-.846-.036m1.037 1.906c-.177-.004-.305.143-.286.332l.153 1.507c.02.197.182.357.363.357l1.397.004c.176 0 .297-.155.273-.348l-.186-1.477c-.023-.185-.18-.337-.351-.342l-1.364-.033" style="color:#000;display:inline;overflow:visible;visibility:visible;fill:url(#d);fill-opacity:1;fill-rule:nonzero;stroke:none;stroke-width:.09396685;marker:none;filter:url(#filter887-7-2);enable-background:accumulate"/></svg>