<svg width="32" height="32" xmlns="http://www.w3.org/2000/svg"><g fill="none" fill-rule="nonzero"><path d="M11.163.44c.29-.29.643-.429.994-.442L26.522 0a1.5 1.5 0 0 1 1.493 1.356l.007.144v28.696a1.5 1.5 0 0 1-1.356 1.493l-.144.007H5a1.5 1.5 0 0 1-1.493-1.356l-.007-.144V8.806c-.022-.348.077-.708.324-1.015l.115-.128L11.163.439zM25.02 3H13.723v5.723a1.5 1.5 0 0 1-1.355 1.493l-.145.007H6.5L6.5 28.695h18.521V3z" fill="#6288B8"/><path fill="#62B880" d="M17.2 10.522v5.915h5.74v3H17.2V25h-3v-5.563H8.46v-3h5.74v-5.915z"/></g></svg>