<svg xmlns="http://www.w3.org/2000/svg" viewBox="0 0 248.49 278.538"><path fill="#6288b8" d="M70.987 51.386h-47.82c-5.9 0-10.68 4.782-10.68 10.68v153.353c0 5.899 4.78 10.68 10.68 10.68h199.358c5.899 0 10.68-4.781 10.68-10.68V77.401l-.049-1.028c-.517-5.416-5.08-9.651-10.63-9.652l-134.739-.006-8.242-11.039a10.68 10.68 0 0 0-8.558-4.29zm-5.357 21.36 8.245 11.039.713.858a10.68 10.68 0 0 0 7.844 3.432h129.413v116.66H33.846V72.747z"/><path style="fill:#8b62b8" d="M159.511 106.538c27.615 0 50 22.386 50 50s-22.385 50-50 50c-27.614 0-50-22.386-50-50s22.386-50 50-50zm57.276 104.319-22.285-5.571c-23.414 16.84-51.793 13.082-69.981 0l-22.286 5.571c-13.355 3.339-22.724 15.338-22.724 29.104v11.577c0 8.284 6.716 15 15 15h130c8.285 0 15-6.716 15-15v-11.577c0-13.766-9.369-25.765-22.724-29.104z"/></svg>