<svg xmlns="http://www.w3.org/2000/svg" height="32" width="32"><path d="M7.262 24.5v-3H5.733c-1.159 0-2.147-1.008-2.228-2.326L3.5 19V6c0-1.344.94-2.408 2.083-2.494l.15-.006h20.534c1.159 0 2.147 1.008 2.228 2.326L28.5 6v13c0 1.344-.94 2.408-2.083 2.494l-.15.006h-.913v3h.913c2.843 0 5.12-2.365 5.229-5.28L31.5 19V6c0-2.942-2.207-5.378-5.021-5.496L26.267.5H5.733C2.89.5.613 2.865.504 5.78L.5 6v13c0 2.942 2.207 5.378 5.021 5.496l.212.004z" fill="#6288b8" style="stroke:none;stroke-width:1"/><path d="M23.56 17.913a1.5 1.5 0 0 0 .104-2.007l-.103-.114-6.353-6.353-.114-.103a1.5 1.5 0 0 0-1.893 0l-.114.103-6.353 6.353-.103.114a1.5 1.5 0 0 0 0 1.893l.103.114.114.103a1.5 1.5 0 0 0 1.894 0l.114-.103 3.644-3.642V30l.007.144a1.5 1.5 0 0 0 2.986 0L17.5 30V13.973l3.94 3.94.113.103a1.5 1.5 0 0 0 2.008-.103z" fill="#62b880" style="stroke:none;stroke-width:1;fill:#8b62b8;fill-opacity:1"/></svg>