<svg width="32" height="32" xmlns="http://www.w3.org/2000/svg"><path d="m31.64 16.957-.066.071-4.847 4.85-.114.102a1.5 1.5 0 0 1-1.893 0l-.114-.103-.103-.114a1.5 1.5 0 0 1 0-1.893l.103-.114 2.272-2.273H17.5v9.38l2.273-2.274.114-.103a1.5 1.5 0 0 1 2.11 2.11l-.103.115-4.887 4.884-.076.065-.122.087-.051.031a1.475 1.475 0 0 1-.758.205c-.197 0-.386-.038-.558-.107l-.154-.072-.103-.06-.111-.08-.084-.072-4.884-4.881-.103-.114a1.5 1.5 0 0 1 0-1.894l.103-.114.114-.103a1.5 1.5 0 0 1 1.893 0l.114.103 2.273 2.272v-9.379l-9.379.001 2.273 2.273a1.5 1.5 0 0 1 .103 2.007l-.103.114a1.5 1.5 0 0 1-2.007.103l-.114-.103-4.834-4.833a1.5 1.5 0 0 1-.103-2.007l.103-.114 4.834-4.834a1.5 1.5 0 0 1 2.224 2.008l-.103.114-2.275 2.272H14.5V5.103l-2.273 2.273a1.5 1.5 0 0 1-2.007.103l-.114-.103a1.5 1.5 0 0 1-.103-2.007l.103-.114L14.939.423A1.5 1.5 0 0 1 16.947.32l.114.103 4.833 4.833a1.5 1.5 0 0 1-2.007 2.224l-.114-.103L17.5 5.102v9.38l9.38.001-2.274-2.272-.103-.114a1.5 1.5 0 0 1 2.11-2.11l.114.102 4.885 4.888.09.11.077.113.016.026a1.475 1.475 0 0 1 .205.757c0 .247-.06.48-.165.685l-.052.092-.077.115-.065.082z" fill="#6288B8" fill-rule="nonzero"/></svg>