<svg width="32" height="32" xmlns="http://www.w3.org/2000/svg"><path d="M16 5.5c5.585 0 10.583 3.141 14.953 9.258l.278.394.601.864-.607.86c-4.646 6.57-9.835 9.944-15.54 9.944-5.616 0-10.528-3.266-14.695-9.61l-.254-.393-.539-.843.572-.822C5.205 8.776 10.296 5.5 16 5.5zm0 3c-4.184 0-8.068 2.253-11.685 6.892l-.277.361-.218.291.192.28c3.347 4.804 7.02 7.25 11.049 7.478l.318.013.305.005c4.192 0 8.178-2.35 11.977-7.181l.285-.367.202-.27-.186-.249c-3.51-4.638-7.273-7.01-11.32-7.235l-.329-.014L16 8.5zm0 .733a7.1 7.1 0 1 1 0 14.2 7.1 7.1 0 0 1 0-14.2zm0 3a4.1 4.1 0 1 0 0 8.2 4.1 4.1 0 0 0 0-8.2z" fill="#6288B8" fill-rule="nonzero"/></svg>