<svg width="32" height="32" xmlns="http://www.w3.org/2000/svg"><g fill="none" fill-rule="nonzero"><path d="M23.224 1.158a3.5 3.5 0 0 1 4.65.134l.146.145.136.154 2.42 2.884a3.5 3.5 0 0 1-.277 4.794l-.154.137L12.52 24.194c-.034.028-.069.055-.104.08l-.09.081c-.108.087-.228.16-.36.216l-.136.05-9.677 3.052C.927 28.06-.16 26.832.311 25.682l.062-.132 4.686-9c.113-.218.273-.397.46-.53l.08-.073L23.224 1.158zM7.166 18.997l-2.46 4.724 5.078-1.6-.056-.076a1.4 1.4 0 0 0-.735-.461l-.293-.058a1.5 1.5 0 0 1-1.136-1.362l-.005-.289a1.4 1.4 0 0 0-.326-.804l-.067-.074zM21.819 6.255 9.228 16.818l.135.136.168.189c.38.453.66.969.83 1.517l.072.259.244.116c.35.18.675.41.968.681l.213.212.168.19.08.097.077.1.11.155L24.881 9.905l-3.063-3.65zm4.04-2.736a.5.5 0 0 0-.631-.113l-.074.052-1.036.868 3.061 3.649 1.036-.869a.5.5 0 0 0 .15-.55l-.036-.08-.052-.074-2.419-2.883z" fill="#6288B8"/><path d="m17.042 28.504-1.18 1.148-.507.481c-.059.055-.117.11-.175.162-2.596 2.386-5.522 2.125-8.077-.613a1.5 1.5 0 0 1 2.194-2.047c1.473 1.58 2.523 1.674 3.853.452l.325-.304 1.49-1.443.506-.481.303-.277.147-.132c2.462-2.172 4.69-2.86 7.45-1.674l.261.116c2.077.968 4.017.835 6.006-.42a1.5 1.5 0 1 1 1.6 2.538c-2.751 1.735-5.665 1.987-8.572.736l-.3-.134c-1.564-.729-2.638-.466-4.255.91l-.334.293-.416.384-.32.305z" fill="#8B62B8"/></g></svg>