<svg width="32" height="32" xmlns="http://www.w3.org/2000/svg"><path d="M16 .5C24.56.5 31.5 7.44 31.5 16c0 8.56-6.94 15.5-15.5 15.5C7.44 31.5.5 24.56.5 16 .5 7.44 7.44.5 16 .5zm0 3C9.096 3.5 3.5 9.096 3.5 16S9.096 28.5 16 28.5 28.5 22.904 28.5 16 22.904 3.5 16 3.5zm2.4 8.4a1.5 1.5 0 0 1 .144 2.993l-.144.007h-.834v6.2h2.197a1.5 1.5 0 0 1 .144 2.993l-.144.007H12a1.5 1.5 0 0 1-.144-2.993L12 21.1h2.566v-6.2H13.6a1.5 1.5 0 0 1-.144-2.993l.144-.007h4.8zM16 6a2 2 0 1 1 0 4 2 2 0 0 1 0-4z" fill="#6288B8" fill-rule="nonzero"/></svg>