<svg width="32" height="32" xmlns="http://www.w3.org/2000/svg"><path d="M19.067.5a1.5 1.5 0 0 1 1.493 1.356l.007.144-.001 2.233h5.967a1.5 1.5 0 0 1 1.493 1.356l.007.144v3.734a1.5 1.5 0 0 1-.933 1.39V28a3.5 3.5 0 0 1-3.308 3.495l-.192.005H8.933a3.5 3.5 0 0 1-3.494-3.308L5.433 28V10.856a1.501 1.501 0 0 1-.926-1.246L4.5 9.467V5.733A1.5 1.5 0 0 1 5.856 4.24L6 4.233h5.966V2A1.5 1.5 0 0 1 13.323.507L13.467.5h5.6zm5.032 10.466H8.433V28a.5.5 0 0 0 .326.469l.084.023.09.008H23.6a.5.5 0 0 0 .492-.41L24.1 28l-.001-17.034zm.934-3.733H7.499v.733h17.534v-.733zM17.566 3.5h-2.6v.733h2.6V3.5z" fill="#6288B8" fill-rule="nonzero"/></svg>