<svg width="32" height="32" xmlns="http://www.w3.org/2000/svg"><g fill="none" fill-rule="evenodd"><path d="m30.953 14.758.278.394.601.864-.607.86c-4.646 6.57-9.835 9.944-15.54 9.944-1.175 0-2.318-.143-3.43-.427l2.605-2.604.2.013.32.013.304.005c4.192 0 8.178-2.35 11.977-7.181l.285-.367.202-.27-.186-.249a26.926 26.926 0 0 0-2.344-2.724l2.12-2.12c1.107 1.115 2.179 2.398 3.215 3.849zM16 5.5c3.381 0 6.547 1.151 9.49 3.417l-2.143 2.141c-2.145-1.571-4.378-2.41-6.705-2.54l-.329-.014L16 8.5c-4.184 0-8.068 2.253-11.685 6.892l-.277.361-.218.291.192.28c2.319 3.328 4.793 5.524 7.434 6.636l-2.255 2.255c-2.99-1.557-5.727-4.239-8.2-8.006l-.255-.392-.539-.843.572-.822C5.205 8.776 10.296 5.5 16 5.5zm7.1 10.833a7.1 7.1 0 0 1-7.846 7.062l7.807-7.808c.026.245.039.494.039.746zm-7.1-7.1a7.094 7.094 0 0 1 5.95 3.224l-2.205 2.204a4.1 4.1 0 1 0-5.417 5.417l-2.205 2.204A7.1 7.1 0 0 1 16 9.233z" fill="#6288B8" fill-rule="nonzero"/><path d="M31.466 1.06a1.5 1.5 0 0 1 0 2.122L3.182 31.466a1.5 1.5 0 0 1-2.121-2.121L29.345 1.06a1.5 1.5 0 0 1 2.121 0z" fill="#B86262"/></g></svg>