<svg width="32" height="32" xmlns="http://www.w3.org/2000/svg" xmlns:xlink="http://www.w3.org/1999/xlink"><defs><path d="M15 0a1 1 0 0 1 .993.883L16 1v3h7a1 1 0 0 1 .993.883L24 5v4a1 1 0 0 1-.883.993L23 10v19a3 3 0 0 1-2.824 2.995L20 32H4a3 3 0 0 1-2.995-2.824L1 29V10a1 1 0 0 1-.993-.883L0 9V5a1 1 0 0 1 .883-.993L1 4h7V1a1 1 0 0 1 .883-.993L9 0h6zm6 10H3v19a1 1 0 0 0 .77.974l.113.02L4 30h16a1 1 0 0 0 .993-.883L21 29V10zm1-4.001H2v2h20v-2zm-8-4h-4v2h4v-2z" id="a"/><path d="M1.957.06a1 1 0 0 1 .913.957l-.004.126-.145 1.65A6 6 0 1 1 1.58 9.576a1 1 0 1 1 1.806-.86 4 4 0 1 0 .501-4.23l1.927.17a1 1 0 0 1 .912.957l-.003.126a1 1 0 0 1-.958.912l-.125-.003-4.227-.37a1 1 0 0 1-.912-.958l.003-.125.37-4.227A1 1 0 0 1 1.957.06z" id="c"/></defs><g fill="none" fill-rule="evenodd"><g transform="translate(4)"><mask id="b" fill="#fff"><use xlink:href="#a"/></mask><use fill="#333" fill-rule="nonzero" xlink:href="#a"/><g mask="url(#b)"><path fill="#6288B8" d="M-4 0h32v32H-4z"/></g></g><g transform="translate(9 13)"><mask id="d" fill="#fff"><use xlink:href="#c"/></mask><use fill="#333" fill-rule="nonzero" xlink:href="#c"/><g mask="url(#d)"><path fill="#62B880" d="M-9-13h32v32H-9z"/></g></g></g></svg>