<svg width="32" height="32" xmlns="http://www.w3.org/2000/svg"><g fill="none" fill-rule="nonzero"><path d="M16 .5c8.292 0 15.064 6.512 15.48 14.7a11.61 11.61 0 0 0-3.529-2.87 12.53 12.53 0 0 0-6.727-7.69l.089.179c.835 1.704 1.457 3.824 1.82 6.193a11.609 11.609 0 0 0-3.01.246l-.067-.395a23.493 23.493 0 0 0-.478-2.118l-.141-.486-.166-.517-.174-.493-.09-.237-.093-.23-.19-.442c-.769-1.699-1.698-2.742-2.596-2.833L16 3.5l-.128.007c-.854.086-1.734 1.032-2.48 2.583l-.116.25-.19.441-.092.23-.09.238-.175.493-.166.517a22.17 22.17 0 0 0-.514 2.05l-.105.554-.106.634a28.992 28.992 0 0 0-.302 3.015l2.736-.008a11.57 11.57 0 0 0-2.536 3.991h-.134l.026.3A11.547 11.547 0 0 0 11 22.562a11.54 11.54 0 0 0 4.2 8.917C7.333 31.08 1.014 24.814.53 16.97l-.02-.166-.006-.117-.003-.308.002-.073L.5 16C.5 7.545 7.27.672 15.684.503L16 .5zM3.716 18.326a12.52 12.52 0 0 0 7.06 9.033c-.967-1.905-1.66-4.355-2.012-7.106l-.062-.52-.072-.725-.042-.53-1.355-.018-1.036-.022-1.138-.037-.605-.029-.738-.046zm7.06-13.686-.236.112c-3.792 1.844-6.511 5.55-6.971 9.927l.34-.024.723-.038.818-.031 1.946-.043 1.135-.012a33.9 33.9 0 0 1 .058-1.031l.041-.508.072-.725c.329-2.962 1.047-5.602 2.074-7.627z" fill="#6288B8"/><path d="M22.563 13a9.563 9.563 0 1 1 0 19.126 9.563 9.563 0 0 1 0-19.126zm0 3a6.563 6.563 0 1 0 0 13.126 6.563 6.563 0 0 0 0-13.126zm3.998 3.44a1.5 1.5 0 0 1 .103 2.007l-.103.114-4.144 4.143a1.5 1.5 0 0 1-2.007.103l-.114-.103-1.857-1.856a1.5 1.5 0 0 1 2.008-2.224l.114.103.795.794 3.083-3.082a1.5 1.5 0 0 1 2.122 0z" fill="#62B880"/></g></svg>