<svg width="32" height="32" xmlns="http://www.w3.org/2000/svg"><g fill="none" fill-rule="nonzero"><path d="M15.5 0C24.06 0 31 6.94 31 15.5v.147a11.057 11.057 0 0 0-3.342-3.056 12.521 12.521 0 0 0-6.934-8.45l.089.178c.901 1.84 1.554 4.164 1.901 6.762a11.041 11.041 0 0 0-3.006.235l-.046-.32-.106-.633a23.493 23.493 0 0 0-.478-2.118l-.141-.486-.166-.517-.174-.493-.09-.237-.093-.23-.19-.442c-.769-1.699-1.698-2.742-2.596-2.833L15.5 3l-.128.007c-.854.086-1.734 1.032-2.48 2.583l-.116.25-.19.441-.092.23-.09.238-.175.493-.166.517a22.17 22.17 0 0 0-.514 2.05l-.105.554-.106.634a28.992 28.992 0 0 0-.302 3.015l3.237-.01h.305a11.02 11.02 0 0 0-2.739 3.995l-.737-.002c.042.52.098 1.027.165 1.52l.036.251c-.157.74-.24 1.51-.24 2.297 0 3.68 1.808 6.94 4.584 8.936L15.5 31C7.265 31 .53 24.578.03 16.47l-.02-.166-.006-.117L0 15.879l.002-.073L0 15.5C0 7.045 6.77.172 15.184.003L15.5 0zM3.216 17.826a12.52 12.52 0 0 0 7.06 9.033c-.967-1.905-1.66-4.355-2.012-7.106l-.062-.52-.072-.725-.042-.53-1.355-.018-1.036-.022-1.138-.037-.605-.029-.738-.046zm7.06-13.686-.236.112c-3.792 1.844-6.511 5.55-6.971 9.927l.34-.024.723-.038.818-.031 1.946-.043 1.135-.012A33.9 33.9 0 0 1 8.089 13l.041-.508.072-.725c.329-2.962 1.047-5.602 2.074-7.627z" fill="#6288B8"/><path d="M22.063 13.063a9 9 0 1 1 0 18 9 9 0 0 1 0-18zm0 2a7 7 0 1 0 0 14 7 7 0 0 0 0-14zm4.447 2.23a2.707 2.707 0 0 1 0 3.828l-1.766 1.766a1 1 0 0 1-.91.272c-.089.447-.293.876-.611 1.24l-.127.136-1.975 1.975a2.707 2.707 0 0 1-3.828-3.828l1.774-1.774a1 1 0 0 1 .904-.274c.09-.443.293-.869.609-1.23l.127-.136 1.975-1.975a2.707 2.707 0 0 1 3.828 0zm-6.237 5.237-1.566 1.566a.707.707 0 0 0 .912 1.074l.088-.074 1.709-1.707a.997.997 0 0 1-.71-.293 2.71 2.71 0 0 1-.433-.566zm3.91-3.897-.087.074-1.57 1.57c.039.018.076.039.113.062a2.713 2.713 0 0 1 .891.934l1.566-1.566a.707.707 0 0 0-.913-1.074z" fill="#B89A62"/></g></svg>