<svg xmlns="http://www.w3.org/2000/svg" viewBox="0 0 725.7 725.7" style="fill:#6288b8"><path d="M455.8 355.7c-40 0-72.4-32.4-72.4-72.4 0-26.3 14.1-49.4 35.1-62-18.1-6.7-37.7-10.4-58.2-10.4-92.7 0-167.9 75.2-167.9 167.9s75.2 167.9 167.9 167.9 167.9-75.2 167.9-167.9c0-20.5-3.7-40.1-10.4-58.2-12.7 21-35.7 35.1-62 35.1z"/><path d="M603.6 185.3c18.1 0 33.4 15.3 33.4 33.4v320.2c0 18.1-15.3 33.4-33.4 33.4H116.9c-18.1 0-33.4-15.3-33.4-33.4V218.7c0-18.1 15.3-33.4 33.4-33.4h486.7m0-80H116.9c-62.4 0-113.4 51-113.4 113.4v320.2c0 62.4 51 113.4 113.4 113.4h486.7c62.4 0 113.4-51 113.4-113.4V218.7c0-62.4-51-113.4-113.4-113.4z"/></svg>