<svg xmlns="http://www.w3.org/2000/svg" width="32" height="32" viewBox="0 0 8.467 8.467"><path d="m6.661 6.846-.14 1.405h-.81l.144-1.405h-.959l-.14 1.405h-.81l.144-1.405h-.728v-.757h.802l.12-1.186h-.702v-.757h.777l.132-1.298h.81L5.17 4.146h.955l.132-1.298h.81l-.132 1.298h.736v.757h-.81l-.12 1.186h.711v.757zM6.05 4.903h-.955l-.12 1.186h.955z" transform="matrix(1.20775 0 0 1.08677 -.985 -.75)" style="fill:#8b62b8"/><path d="M2.444 5.61.891 7.162" style="stroke:#6288b8;stroke-width:1.32291663;stroke-linecap:round;stroke-linejoin:round"/><circle r="2.639" cx="4.315" cy="3.337" style="fill:none;stroke:#6288b8;stroke-width:.79375005"/></svg>